STARTFONT 2.3
FONT -FontForge-Bungee Shade-Book-R-Normal--20-200-72-72-P-172-ISO10646-1
SIZE 20 72 72  4
FONTBOUNDINGBOX 51 52 -12 -19
COMMENT "Generated by fontforge, http://fontforge.sourceforge.net"
COMMENT "Copyright 2008 The Bungee Project Authors (david@djr.com)"
STARTPROPERTIES 40
FOUNDRY "FontForge"
FAMILY_NAME "Bungee Shade"
WEIGHT_NAME "Book"
SLANT "R"
SETWIDTH_NAME "Normal"
ADD_STYLE_NAME ""
PIXEL_SIZE 20
POINT_SIZE 200
RESOLUTION_X 72
RESOLUTION_Y 72
SPACING "P"
AVERAGE_WIDTH 172
CHARSET_REGISTRY "ISO10646"
CHARSET_ENCODING "1"
FONTNAME_REGISTRY ""
CHARSET_COLLECTIONS "ISO8859-2 ISO8859-9 ISO8859-4 ISO10646-1"
BITS_PER_PIXEL 4
FONT_NAME "BungeeShade-Regular"
FACE_NAME "Bungee Shade"
COPYRIGHT "Copyright 2008 The Bungee Project Authors (david@djr.com)"
FONT_VERSION "1.000;PS 1.0;hotconv 1.0.72;makeotf.lib2.5.5900"
FONT_ASCENT 17
FONT_DESCENT 3
UNDERLINE_POSITION 0
UNDERLINE_THICKNESS 0
X_HEIGHT 14
CAP_HEIGHT 14
RAW_ASCENT 860
RAW_DESCENT 140
NORM_SPACE 7
RELATIVE_WEIGHT 40
RELATIVE_SETWIDTH 50
SUPERSCRIPT_X 0
SUPERSCRIPT_Y 7
SUPERSCRIPT_SIZE 12
SUBSCRIPT_X 0
SUBSCRIPT_Y 1
SUBSCRIPT_SIZE 12
AVG_LOWERCASE_WIDTH 164
AVG_UPPERCASE_WIDTH 167
ENDPROPERTIES
CHARS 1065
STARTCHAR space
ENCODING 32
SWIDTH 325 0
DWIDTH 7 0
BBX 1 1 0 0
BITMAP
00
ENDCHAR
STARTCHAR exclam
ENCODING 33
SWIDTH 524 0
DWIDTH 10 0
BBX 9 17 1 -2
BITMAP
0063333330
08F0000030
9FF0030030
CFF1030030
BFF1030030
BFF2030030
AFF3030120
AFF3020120
9FF4000210
9FFC999600
8FFB998310
3DF0000030
5FF0030030
CFF0000030
CFF7666620
CFFFFFD300
9FFFFB1000
ENDCHAR
STARTCHAR quotedbl
ENCODING 34
SWIDTH 746 0
DWIDTH 15 0
BBX 15 10 0 5
BITMAP
0035333346333330
05F40000D7000030
5FF40300E7030030
8FF50300E8030030
8FF50300F8030030
7FF60300F8030030
7FF60001F9000030
6FFB6668FD666620
6FFFFFDFFFFFD300
4FFFFA2EFFFC2000
ENDCHAR
STARTCHAR numbersign
ENCODING 35
SWIDTH 850 0
DWIDTH 17 0
BBX 17 17 0 -2
BITMAP
000004433406333400
00006E0004AB000300
000697030596030430
001900030000030030
02DB01353333352030
0EFB00030000210030
1FFE61121550302530
1FFFF2305FE0307700
0EFB90304980304400
03D000300000300210
4EF013533333530210
CFF310301100301510
CFFF6021FF3114E500
BFFF4003FF10053000
29FF966AFF76640000
08FFFF9BFFFF700000
07FFF70AFFE4000000
ENDCHAR
STARTCHAR dollar
ENCODING 36
SWIDTH 750 0
DWIDTH 15 0
BBX 15 21 0 -4
BITMAP
0000002333310000
000005B000030000
0000562021023500
0003100021000300
0077003343330300
08F5030000000400
3FF50301FFFFE300
6FF50300368A5000
7FF6032000000400
7FFB001333310030
6FFF920000031030
3FFFFFDB95003030
07FFDDDDDB003030
0095000000022040
09F5033343320040
6FF5000021000510
7FFB665011079100
7FFFFFC000080000
5FFFFFE766620000
0000FFFFFC200000
0000DFFFB1000000
ENDCHAR
STARTCHAR percent
ENCODING 37
SWIDTH 1131 0
DWIDTH 23 0
BBX 23 17 0 -2
BITMAP
000233333300633330000000
00460333214B600120000000
07F3303130BF221300000000
5FF230E630BE030300000000
9FF230E630BA030300000000
AFF2308330B6031213334100
AFF3300030C2213100000410
AFF8033322D0307303332030
8FFFB7669EA030C130313030
3FFFFFFDEF6031F130F53030
04CEFD92FF2215F130F53030
00000005FE0308F130E43030
00000009FA030CF230003030
0000000CF6001FF803332110
0000001FFB77AFFFB7677200
0000005FFFF97FFFFFFC2000
0000005FFF7008DFFD910000
ENDCHAR
STARTCHAR ampersand
ENCODING 38
SWIDTH 866 0
DWIDTH 17 0
BBX 18 17 0 -2
BITMAP
000002223333330000
000061000000030000
000A80033331030000
00BF60310000130000
03FF60302FFF900000
06FFA03019D7000000
06FFB2300032333331
04FA0135204B000003
02E30400008C023103
1DF10307FFFC030003
8FF11306BCC8030180
BFF203000000030220
BFF501333333320300
AFFD10000000001300
6FFFE9666666684000
0DFFFFFFFFFFE40000
019EFFFFFFEA200000
ENDCHAR
STARTCHAR quotesingle
ENCODING 39
SWIDTH 456 0
DWIDTH 9 0
BBX 9 10 0 5
BITMAP
0026333330
03E7000030
3FF7030030
5FF8030030
5FF8030030
4FF8030030
4FF9000030
3FFD666620
3FFFFFD300
1EFFFC2000
ENDCHAR
STARTCHAR parenleft
ENCODING 40
SWIDTH 529 0
DWIDTH 11 0
BBX 11 21 0 -4
BITMAP
000002333300
000141000030
002901431030
03E603000220
1EF40302E700
5FF403034000
7FF403030000
8FF403030000
8FF403030000
8FF403030000
8FF403030000
8FF403030000
8FF403030000
8FF403004300
8FF503100130
8FF800331030
7FFE20000030
5FFFD6210210
1EFFFFFFE300
03CFFFFD2000
000356620000
ENDCHAR
STARTCHAR parenright
ENCODING 41
SWIDTH 529 0
DWIDTH 11 0
BBX 11 21 0 -4
BITMAP
000433320000
02C300003100
3EF303310400
9FF400030300
9FFFF3030110
8FFFF5030120
26BFF5030120
006FF5030120
006FF5030120
006FF5030120
006FF5030120
006FF5030120
006FF5030120
006FF4030120
009500030210
09F303300400
7FF300001400
9FF500255000
9FFFFFE50000
8FFFFC300000
266520000000
ENDCHAR
STARTCHAR asterisk
ENCODING 42
SWIDTH 818 0
DWIDTH 16 0
BBX 16 15 0 0
BITMAP
0000001733340000
000002CB00030000
00003CFE03030330
0009305C13063021
01CD001003000003
07F9003334333003
0CFD964016204684
2FFFFF9040408E40
2ADFF90312040500
0003C0011D110040
002EF8007F900410
00DFFFC4EFF56100
008FFFE7FFF80000
0005ED20BD400000
0000100011000000
ENDCHAR
STARTCHAR plus
ENCODING 43
SWIDTH 834 0
DWIDTH 17 0
BBX 16 15 0 -1
BITMAP
0000000233330000
0000004A00030000
000005FA01030000
00001FFA03030000
0002499603023333
005A000003000003
06FB023335333203
1FFB000003000003
1FFE666403026663
1FFFFFFA0306FF60
0EFFFFFA0306E500
00001FFA00030000
00001FFD66650000
00001FFFFF800000
00000EFFE5000000
ENDCHAR
STARTCHAR comma
ENCODING 44
SWIDTH 484 0
DWIDTH 10 0
BBX 10 11 0 -5
BITMAP
0004333340
01A6000021
1CF6133321
5FF6000321
6FF7000321
6FFFDD3330
4FFB133040
09FC445610
2FFFFF9000
1FFFD60000
0111000000
ENDCHAR
STARTCHAR hyphen
ENCODING 45
SWIDTH 520 0
DWIDTH 10 0
BBX 11 7 0 3
BITMAP
001433333300
02C200000210
3EF103330110
AFF100000110
AFF866666600
AFFFFFFFB100
8FFFFFF90000
ENDCHAR
STARTCHAR period
ENCODING 46
SWIDTH 484 0
DWIDTH 10 0
BBX 10 9 0 -2
BITMAP
0004333340
0086000021
0AF6000021
5FF6003021
6FF6003021
6FF6000021
6FFB666640
6FFFFFF900
4FFFFF8000
ENDCHAR
STARTCHAR slash
ENCODING 47
SWIDTH 487 0
DWIDTH 10 0
BBX 10 21 0 -4
BITMAP
0000043333
0001B30003
002DF10303
008FE01203
00BFB03003
00DF903012
00FF703030
02FF503030
05FF203030
07FF003030
09FD012030
0BFB030030
0EF8030120
1FF6030300
3FF4030300
5FF2030300
7FE0010300
AFE1001300
CFFFFF9000
EFFFF60000
4666300000
ENDCHAR
STARTCHAR zero
ENCODING 48
SWIDTH 827 0
DWIDTH 17 0
BBX 16 17 0 -2
BITMAP
0000033333333410
0002401333341041
003A004000004103
05F8030024200303
1EF70300EFF20303
3FF70300FFF30303
5FF70300DFF30303
5FF70300CFF30303
5FF70300CFF30303
5FF70300CFF30303
5FF70300AFD10303
5FF8004000003103
4FFD000333331004
2FFFA10000000161
0DFFFFB87678A910
03EFFFFFFFFF7000
0017BEFFEC920000
ENDCHAR
STARTCHAR one
ENCODING 49
SWIDTH 701 0
DWIDTH 14 0
BBX 14 17 0 -2
BITMAP
00073333334000
01CA0000001100
1DFA0233301100
2FFC2200301100
2FFFFF30301100
1FFFFF30301100
034AFF30301100
0008FF30301100
0008FF30301100
0008FF30301100
00089920301433
01A40000300003
1CF40333433203
7FF40000000003
8FFA6666666663
8FFFFFFFFFFF60
5FFFFFFFFFE400
ENDCHAR
STARTCHAR two
ENCODING 50
SWIDTH 739 0
DWIDTH 15 0
BBX 15 17 0 -2
BITMAP
0006333333333100
009D000000000400
0AFD013333310210
0EFE100000030030
0EFFFFFFF5030030
0EFFFFEA60030130
0466951000230310
0006100233101300
01B6023000274000
0CF203018CD30000
5FF1030399433310
9FF1030000000030
AFF1033333331030
AFF1000000000030
AFF8666666666510
AFFFFFFFFFFFC100
8FFFFFFFFFFA1000
ENDCHAR
STARTCHAR three
ENCODING 51
SWIDTH 737 0
DWIDTH 15 0
BBX 15 17 0 -2
BITMAP
0026333333331000
04E4000000003000
4FF4033333003000
7FF6000000402100
8FFFFFFF60302000
7FFFF88720303000
166AE00000314200
006FE01334310310
00DFE10000030030
00DFFFFFFA021030
00DEBBBBB7011030
00A5000000030030
1BF4033333320130
7FF4000000000400
8FFA666666687000
8FFFFFFFFFF70000
5FFFFFFFEB300000
ENDCHAR
STARTCHAR four
ENCODING 52
SWIDTH 809 0
DWIDTH 16 0
BBX 16 17 0 -2
BITMAP
0017333320633332
02C800004C900003
1EF80300DF903003
3FF80300EF903003
3FF80300EF903003
3FF80300EF903003
3FF80300DF903003
3FF9030035303003
3FFA012000003003
3FFE102333335003
1FFFB31000003003
0BFFFFFFFF903003
02DFFFFFFF903003
00046668FF900003
00000003FFD66662
00000003FFFFFD20
00000002EFFFB100
ENDCHAR
STARTCHAR five
ENCODING 53
SWIDTH 747 0
DWIDTH 15 0
BBX 15 17 0 -2
BITMAP
0016333333333400
02C9000000000300
1EF9023333320300
3FF9030011111400
3FF90300DFFFC200
3FF9030034454200
3FF9030000000310
3FF9023333320030
3FFA000000021030
3FFFFFFFFB003030
2FFEBBBBB8003030
04C7000000021030
0AF6023333320030
5FF6000000000400
6FFB666666687100
6FFFFFFFFFF80000
4FFFFFFFEB400000
ENDCHAR
STARTCHAR six
ENCODING 54
SWIDTH 793 0
DWIDTH 16 0
BBX 16 17 0 -2
BITMAP
0000133333333400
0003402333330300
005B013000000300
05F8030001111400
1EF70300DFFFC200
3FF7030064444310
5FF7032333331050
5FF7042000004003
5FF703007A402103
5FF70300FFB02103
5FF70300DF803103
5FF9013000004004
4FFC001333330021
2FFF910000000240
0DFFFEA87678B400
03EFFFFFFFFD3000
0018CEFFEB710000
ENDCHAR
STARTCHAR seven
ENCODING 55
SWIDTH 727 0
DWIDTH 15 0
BBX 14 17 0 -2
BITMAP
00443333333335
07F10000000003
7FF10333333303
BFF30000000303
BFFFFFFFF40303
BFFFFFFFF30303
26666795100303
00002400003203
0004B002430013
005F8022001540
00EF803009E400
03FF8030092000
04FF8020030000
04FF8000030000
04FFC666620000
04FFFFFD300000
02EFFFB1000000
ENDCHAR
STARTCHAR eight
ENCODING 56
SWIDTH 811 0
DWIDTH 16 0
BBX 16 17 0 -2
BITMAP
0000033333333300
0001601333330130
003D404000003030
03EF3030AF803030
07FF5030CF903030
09FFB14035204230
08FE402653561031
03F8032000003103
08F4030178600303
3FF40305FFF20303
7FF40303EFD10303
8FF4032000003203
8FF8002333331003
7FFF700000000140
3FFFFEA87678A800
07FFFFFFFFFF7000
0039CEFFEC820000
ENDCHAR
STARTCHAR nine
ENCODING 57
SWIDTH 793 0
DWIDTH 16 0
BBX 16 17 0 -2
BITMAP
0000143333333200
0003302333320230
0068021000013030
08F503019A203022
3FF40303FF703003
7FF40302EF503003
8FF4031000006003
8FF7002333343003
8FFD100000003003
5FFFC63224303003
0DFFFFFFFF603003
018DE44443003012
003DC01333330040
00EFC00000000230
00FFE66666679300
00FFFFFFFFFC2000
00DFFFFFEC700000
ENDCHAR
STARTCHAR colon
ENCODING 58
SWIDTH 484 0
DWIDTH 10 0
BBX 10 16 0 -2
BITMAP
0004333340
0096000021
1BF6000021
5FF6003021
6FF6003021
6FF7000021
6FFEBBBA20
5FFD999540
19D6000021
07F6000021
4FF6003021
6FF6003021
6FF6000021
6FFB666640
6FFFFFF900
4FFFFF8000
ENDCHAR
STARTCHAR semicolon
ENCODING 59
SWIDTH 484 0
DWIDTH 10 0
BBX 10 18 0 -5
BITMAP
0004333340
00A6000021
1CF6003021
5FF6003021
6FF6000021
6FF9222251
6FFFFFFE40
5FFD999540
04D6000021
2DF6133321
6FF6000321
6FF7000321
6FFFDD3330
4FFB133040
09FC445610
2FFFFF9000
1FFFD60000
0111000000
ENDCHAR
STARTCHAR less
ENCODING 60
SWIDTH 814 0
DWIDTH 16 0
BBX 14 16 1 -2
BITMAP
00000000000033
00000000133303
00000333200003
00034100033303
00640133300004
09F01300026AB2
6FE03009DFFA10
CFE030048B6000
DFF10410001333
DFF80023330003
CFFFB510003303
7FFFFFFC730003
07DFFFFFFFE955
00038CFFFFFFD2
00000015AEFB10
00000000003000
ENDCHAR
STARTCHAR equal
ENCODING 61
SWIDTH 834 0
DWIDTH 17 0
BBX 16 13 0 0
BITMAP
0003333333333333
005A000000000003
07FB023333333203
1FFB000000000003
1FFFAAAAAAAAAAA3
1FFFFFFFFFFFFE30
09BC999999999533
004A000000000003
06FB023333333303
1FFB000000000003
1FFE666666666663
1FFFFFFFFFFFFF60
0EFFFFFFFFFFE500
ENDCHAR
STARTCHAR greater
ENCODING 62
SWIDTH 814 0
DWIDTH 16 0
BBX 15 16 1 -2
BITMAP
0002000000000000
0051233200000000
07F1000133300000
8FF1032000022000
AFF5001333000000
AFFFEA6200340110
AFFFFFFFD8021030
4CFFFFFB73021030
0013541000040220
0030000023310700
05F103332016B300
6FF100048CFD2000
AFF56AEFFFB10000
AFFFFFFD94000000
AFFFB72000000000
5941000000000000
ENDCHAR
STARTCHAR question
ENCODING 63
SWIDTH 756 0
DWIDTH 15 0
BBX 15 17 0 -2
BITMAP
0035333333333100
05E3000000000210
5FF3033333330030
9FF5000000012030
9FFFFFFFFD003030
8FFFFC9752003030
2668D00000022040
004EE01333310130
00EFF20000003500
00DFF7468ACE7000
00BFF8777AE40000
008FC00001200000
008FC00201100000
00FFC00001100000
00FFE66666000000
00FFFFFFB1000000
00CFFFF800000000
ENDCHAR
STARTCHAR at
ENCODING 64
SWIDTH 967 0
DWIDTH 19 0
BBX 19 22 0 -4
BITMAP
00000013333333300000
00001330000000034000
00025000000000000500
003C005CFFFFFFB50130
03E916EFFFFFFFFE6030
0CF834779999999F5330
2FF833451433330C7330
4FF837D04000030C7330
4FF838A030EE030C7330
4FF838A031FE030C7330
4FF838A031FE030C7330
4FF838A031FE030C6330
4FF838A03066030C4320
4FF838C0300003021320
4FF837F3133334333200
4FFA35FE744444466100
3FFF41AFFFFFFFF90000
0EFFC533689999830000
08FFFEA8643333140000
00BFFFFFFFFFFFC10000
0006DFFFFFFFFA000000
00000245666650000000
ENDCHAR
STARTCHAR A
ENCODING 65
SWIDTH 830 0
DWIDTH 17 0
BBX 16 17 0 -2
BITMAP
0000033333333200
0000490000000300
0004E40233320120
000ED00300030030
005F80212F303030
00BF20307F804003
02FC0120CFC01303
08F8030066600303
0DF6030000000303
3FF6043333333503
5FF6030000000303
6FF60304FFF40303
6FF60204FFF40203
6FF60003AFF40003
6FFB66657FFA6666
6FFFFF907FFFFFA1
4EFFF7004EFFF700
ENDCHAR
STARTCHAR B
ENCODING 66
SWIDTH 825 0
DWIDTH 17 0
BBX 17 17 0 -2
BITMAP
000633333333330000
01BA00000000012000
0CFA01333332003000
1FFA01102300303000
1FFA0110CF90303000
1FFA0110CF70303000
1FFA01100000324000
1FFA01433335310400
1FFA01100000040300
1FFA0110CFF6030120
1FFA0110CFF8030120
1FFA01105651040120
1FFA01433333310310
1FFA00000000000500
1FFD66666666686000
1FFFFFFFFFFFF60000
1DFFFFFFFFDB300000
ENDCHAR
STARTCHAR C
ENCODING 67
SWIDTH 728 0
DWIDTH 15 0
BBX 15 17 0 -2
BITMAP
0000133333333410
0002400000000030
004B002333330030
05F8012000000220
0EF70300BFFFF600
3FF70300FFFE4000
5FF7030086620000
5FF7030030000000
5FF7030030000000
5FF7030030000000
5FF7030033333300
5FF8012000000130
4FFD002333330030
2FFF800000000030
0CFFFD9666666510
03EFFFFFFFFFB100
0029DFFFFFF90000
ENDCHAR
STARTCHAR D
ENCODING 68
SWIDTH 846 0
DWIDTH 17 0
BBX 17 17 0 -2
BITMAP
000633333333333000
01BA00000000001300
0CFA01333333300300
1FFA02100000040030
1FFA02108BA4030030
1FFA0210CFF8030030
1FFA0210BFF8030030
1FFA02107FF8030030
1FFA02107FF8030030
1FFA02107FF8030030
1FFA02105992030030
1FFA02100000040120
1FFA01333333300300
1FFA00000000002300
1FFD66666666793000
1FFFFFFFFFFFC20000
1DFFFFFFFEC7000000
ENDCHAR
STARTCHAR E
ENCODING 69
SWIDTH 754 0
DWIDTH 15 0
BBX 15 17 0 -2
BITMAP
0006333333333330
01BA000000000030
0CFA013333332030
1FFA021000000030
1FFA0210DFFFFA10
1FFA021078889000
1FFA021000003000
1FFA024333303000
1FFA021000003000
1FFA0210CEEC2000
1FFA021089943320
1FFA021000000030
1FFA013333332030
1FFA000000000030
1FFD666666666620
1FFFFFFFFFFFE400
1DFFFFFFFFFD3000
ENDCHAR
STARTCHAR F
ENCODING 70
SWIDTH 718 0
DWIDTH 14 0
BBX 15 17 0 -2
BITMAP
0006333333333420
01BA000000000030
0CFA013333331030
1FFA021000000120
1FFA0210CFFFF600
1FFA0210CFFE4000
1FFA021011124000
1FFA024333203000
1FFA021000003000
1FFA021000004000
1FFA0210CFFA1000
1FFA0210CF800000
1FFA021064000000
1FFA000030000000
1FFD666630000000
1FFFFFE300000000
1DFFFC2000000000
ENDCHAR
STARTCHAR G
ENCODING 71
SWIDTH 808 0
DWIDTH 16 0
BBX 16 17 0 -2
BITMAP
0000133333333320
0002400000000030
004B002333331030
05F8012000000130
0EF70300CFFFF700
3FF70300FFFE5000
5FF7030086853332
5FF7030033C00003
5FF703008ED00203
5FF70300FFD00303
5FF7030068700303
5FF8023000000303
4FFD002333333203
2FFF800000000003
0CFFFD9666666662
03EFFFFFFFFFFE40
0029DFFFFFFFD300
ENDCHAR
STARTCHAR H
ENCODING 72
SWIDTH 859 0
DWIDTH 17 0
BBX 17 17 0 -2
BITMAP
000633333006333320
01BA000031B8000030
0CFA02104CF8030030
1FFA02106FF8030030
1FFA02106FF8030030
1FFA02105995030030
1FFA02100000030030
1FFA02433333350030
1FFA02100000030030
1FFA02105663030030
1FFA0210CFF8030030
1FFA0210CFF8030030
1FFA02106FF8030030
1FFA00006FF8000030
1FFD66666FFC666620
1FFFFFE43FFFFFD200
1DFFFC201EFFFB1000
ENDCHAR
STARTCHAR I
ENCODING 73
SWIDTH 705 0
DWIDTH 14 0
BBX 14 17 0 -2
BITMAP
00263333333333
04E50000000003
4FF50233433103
6FF93300301334
6FFFFF10305F80
5FFFFF10305500
033CFF10303000
000BFF10303000
000BFF10303000
000BFF10303000
00099910302332
00960000300003
1BF50333433203
6FF50000000003
6FFB6666666662
6FFFFFFFFFFE30
4FFFFFFFFFC200
ENDCHAR
STARTCHAR J
ENCODING 74
SWIDTH 788 0
DWIDTH 16 0
BBX 15 17 0 -2
BITMAP
0000000003533340
000000006F300030
00000006FF303030
00000009FF303030
00000009FF303030
00000009FF303030
0014333BFF303030
02C20008FF303030
3DF20208FF303030
AFF20308FF303030
AFF2030287003030
AFF4032000032030
9FF8002333320040
7FFF600000000510
3FFFFD97667A9100
07FFFFFFFFF80000
0039DEFED9300000
ENDCHAR
STARTCHAR K
ENCODING 75
SWIDTH 846 0
DWIDTH 17 0
BBX 17 17 0 -2
BITMAP
000633333024333500
01BA000034B0000300
0CFA02108F50302200
1FFA0210CE00303000
1FFA0210C703013000
1FFA02107103033000
1FFA02100021000400
1FFA02433343310210
1FFA02100000030030
1FFA02108AA3030030
1FFA0210CFF7030030
1FFA0210BFF8030030
1FFA02107FF8030030
1FFA00007FF8000030
1FFD66667FFC666610
1FFFFFE34FFFFFC200
1DFFFC202EFFFA1000
ENDCHAR
STARTCHAR L
ENCODING 76
SWIDTH 795 0
DWIDTH 16 0
BBX 16 17 0 -2
BITMAP
0006333330000000
01BA000030000000
0CFA021030000000
1FFA021030000000
1FFA021030000000
1FFA021030000000
1FFA021030143332
1FFA021032D00003
1FFA02107EE00203
1FFA0210CFE00303
1FFA021079800303
1FFA021000000303
1FFA013333333203
1FFA000000000003
1FFD666666666662
1FFFFFFFFFFFFE30
1DFFFFFFFFFFC200
ENDCHAR
STARTCHAR M
ENCODING 77
SWIDTH 949 0
DWIDTH 19 0
BBX 19 17 0 -2
BITMAP
00063333300034333410
01BA0000110480000110
0CFA0132025E20320110
1FFA030310C804030110
1FFA0300403131030110
1FFA0300040220030110
1FFA0300213202030110
1FFA0300900036030110
1FFA0300E300B6030110
1FFA0300EEACF6030110
1FFA0300EFDFF6030110
1FFA0300C86FF6030110
1FFA0200306FF6020110
1FFA0000306FF6000110
1FFD6665106FFB666600
1FFFFFC2006FFFFFB100
1DFFFA10004FFFF80000
ENDCHAR
STARTCHAR N
ENCODING 78
SWIDTH 853 0
DWIDTH 17 0
BBX 17 17 0 -2
BITMAP
000633340017333410
01BA000042D8000030
0CFA03400BF8030030
1FFA030301D8030030
1FFA03013027030030
1FFA03001200030030
1FFA03000220030030
1FFA03003021030030
1FFA0300C203130030
1FFA0300DD10330030
1FFA0300DFB0050030
1FFA0300DFF7030030
1FFA0300DFF8020030
1FFA0000AFF8000030
1FFD66666FFC666610
1FFFFFD24FFFFFC100
1DFFFB102EFFF90000
ENDCHAR
STARTCHAR O
ENCODING 79
SWIDTH 837 0
DWIDTH 17 0
BBX 17 17 0 -2
BITMAP
000003333333341000
000140033333103200
003A00400000320300
05F803002430030300
1EF70300EFF4030210
3FF70300FFF5030210
5FF70300CFF5030210
5FF703009FF5030210
5FF703009FF5030210
5FF703009FF5030210
5FF703009FE3030210
5FF800400000220300
4FFD00033333100400
3FFFA1000000005200
0CFFFFB87678AA1000
03DFFFFFFFFF900000
0017BEFFEC94000000
ENDCHAR
STARTCHAR P
ENCODING 80
SWIDTH 782 0
DWIDTH 16 0
BBX 16 17 0 -2
BITMAP
0006333333333300
01BA000000000050
0CFA014333331012
1FFA012011004003
1FFA0120CFB00303
1FFA0120CFE00303
1FFA0120CFB00303
1FFA012000004004
1FFA015333331022
1FFA012000000140
1FFA012045568500
1FFA0120CFFE5000
1FFA0120CEA20000
1FFA000030000000
1FFD666620000000
1FFFFFE300000000
1DFFFC2000000000
ENDCHAR
STARTCHAR Q
ENCODING 81
SWIDTH 837 0
DWIDTH 17 0
BBX 17 20 0 -5
BITMAP
000003333333341000
000150000000004200
002A00033333100400
03E800400000320300
0DF70300BFE3030210
2FF70300FFF5030210
4FF70300DFF5030210
5FF703009FF5030210
5FF703009FF5030210
5FF703009FF5030210
5FF70300AFF5030210
5FF803003640030310
5FFA00400000220300
4FFF20133433100300
1FFFD5100300034000
09FFFFF50101E60000
01BFFFF80003400000
0004AFFFFFE4000000
00005FFFFD30000000
000016666100000000
ENDCHAR
STARTCHAR R
ENCODING 82
SWIDTH 843 0
DWIDTH 17 0
BBX 17 17 0 -2
BITMAP
000633333333340000
01BA00000000004000
0CFA01333333003000
1FFA02100000301200
1FFA0210CF60300300
1FFA0210CF80301100
1FFA02107930303000
1FFA02100000303300
1FFA02333335310120
1FFA02100000030030
1FFA0210CFF9012030
1FFA0210CFFC012030
1FFA02108FFC012030
1FFA00003FFC000030
1FFD66663FFE666630
1FFFFFD30FFFFFE400
1DFFFB100DFFFD2000
ENDCHAR
STARTCHAR S
ENCODING 83
SWIDTH 750 0
DWIDTH 15 0
BBX 15 17 0 -2
BITMAP
0000233333333500
0005200000000300
0088003333330300
0AF5030000000400
3FF50301FFFFE300
6FF50300368A5000
7FF6032000000400
7FFA001333310030
6FFF910000031030
3FFFFFDA85003030
07FFDDDDDB003030
0095000000022030
09F5033333320030
6FF5000000000410
7FFA666666688100
7FFFFFFFFFF80000
5FFFFFFFEB400000
ENDCHAR
STARTCHAR T
ENCODING 84
SWIDTH 756 0
DWIDTH 15 0
BBX 16 17 0 -2
BITMAP
0063333333333350
09D0000000000021
AFD0133343333021
EFE1000030000040
EFFFFF80300CFE50
EFFFFF80300CD300
4668FF8030061000
0004FF8030030000
0004FF8030030000
0004FF8030030000
0004FF8030030000
0004FF8030030000
0004FF8020030000
0004FF8000030000
0004FFC666620000
0004FFFFFD300000
0002EFFFB1000000
ENDCHAR
STARTCHAR U
ENCODING 85
SWIDTH 846 0
DWIDTH 17 0
BBX 17 17 0 -2
BITMAP
001733333016333410
02C9000033D7000120
1EF903006EF7030120
3FF903008FF7030120
3FF903008FF7030120
3FF903008FF7030120
3FF903008FF7030120
3FF903008FF7030120
3FF903008FF7030120
3FF903008FF7030120
3FF902104881030120
3FFA00400000220210
3FFE10033333200400
1FFFC2000000005200
0AFFFFC97677AB2000
01CFFFFFFFFF900000
0006BDEFEC94000000
ENDCHAR
STARTCHAR V
ENCODING 86
SWIDTH 830 0
DWIDTH 17 0
BBX 16 17 0 -2
BITMAP
0026333320353335
03E6000035E40003
3EF603008FF40303
6FF60300BFF40303
6FF60300BFF40303
6FF60300BFF40303
6FF60300BFF30303
6FF70310AFE00303
6FFC00305F902203
5FFF30400E403012
1FFF901202003030
0AFFE10400030030
04FFF60133320210
00DFFC0000000300
007FFF8666666200
001FFFFFFFFC2000
0008FFFFFFA10000
ENDCHAR
STARTCHAR W
ENCODING 87
SWIDTH 931 0
DWIDTH 19 0
BBX 18 17 0 -2
BITMAP
001633342000253335
02D800003002D40003
2EF80200302EF40203
4FF80300307FF40303
4FF80300307FF40303
4FF80300346AF40303
4FF80300C100940303
4FF803005132130303
4FF803000303000303
4FF803002100300303
4FFB012030A1300303
4FFE103212F5031203
2FFF502306F9023021
0DFFB0000AFD000030
08FFF7666EFF866620
02FFFFFD3FFFFFD300
009FFFB109FFFC1000
ENDCHAR
STARTCHAR X
ENCODING 88
SWIDTH 837 0
DWIDTH 17 0
BBX 17 17 0 -2
BITMAP
001633342026333400
02C8000033D5000210
1DF803006EF5030210
4FF803109FE1030300
4FFD00401D50210400
4FFF70120000302200
1EFFF3031003003000
06FFFA005333040000
00BFE2030003003000
002F50210300401200
00AB01304F90130300
07F80300EFF4030300
1EF80300FFF5030210
4FF80000BFF5000210
4FFC66667FFB666700
4FFFFFC26FFFFFB100
2FFFF9004FFFF80000
ENDCHAR
STARTCHAR Y
ENCODING 89
SWIDTH 805 0
DWIDTH 16 0
BBX 16 17 0 -2
BITMAP
0035333500443334
05E3000306F10003
5FF303036FF10303
9FF30303BFF10303
9FF30303BFF10303
9FF40300CFA00303
9FF701304E203003
8FFE203100021030
6FFFC00400120220
0CFFF90034201300
02EFFF5003004000
005FFFE003031000
0009FFF002030000
0001DFF000030000
0000CFF866650000
0000CFFFFF900000
00009FFFE6000000
ENDCHAR
STARTCHAR Z
ENCODING 90
SWIDTH 760 0
DWIDTH 15 0
BBX 15 17 0 -2
BITMAP
0017333333333330
02C9000000000030
1EF9023333330030
3FFA000000021030
3FFFFFFF30130130
3FFFFFF500400400
05666C8004004000
00005B0031031000
0003C10220220000
001C201201200000
00B6013004333330
09F3030000000030
5FF3023333332030
8FF3000000000030
8FFA666666666640
8FFFFFFFFFFFF600
6FFFFFFFFFFE4000
ENDCHAR
STARTCHAR bracketleft
ENCODING 91
SWIDTH 529 0
DWIDTH 11 0
BBX 11 21 0 -4
BITMAP
000433333300
01B400000030
2CF404331030
7FF403001220
8FF40303F700
8FF403034000
8FF403030000
8FF403030000
8FF403030000
8FF403030000
8FF403030000
8FF403030000
8FF403030000
8FF403023300
8FF403000130
8FF403331030
8FF400000030
8FF600000210
8FFFFFFFE300
7FFFFFFD2000
166666620000
ENDCHAR
STARTCHAR backslash
ENCODING 92
SWIDTH 487 0
DWIDTH 10 0
BBX 10 21 0 -4
BITMAP
0023333100
05C0000300
7FF0030300
EFF2030300
CFF4030300
AFF7030300
8FF9030120
5FFB021030
3FFD003030
1FFF103030
0EFF303030
0BFF503030
09FF703021
07FFA03003
05FFC02103
02FFE00303
00FFF10103
00DFF50004
00BFFFFFD2
008FFFFB10
0016665000
ENDCHAR
STARTCHAR bracketright
ENCODING 93
SWIDTH 529 0
DWIDTH 11 0
BBX 11 21 0 -4
BITMAP
000433333400
02C300000120
3EF303340120
9FF400030120
9FFFF5030120
8FFFF5030120
26AFF5030120
006FF5030120
006FF5030120
006FF5030120
006FF5030120
006FF5030120
006FF5030120
006FF5030120
009500030120
09F303330120
7FF300000120
9FF500000310
9FFFFFFFE500
8FFFFFFD3000
266666610000
ENDCHAR
STARTCHAR asciicircum
ENCODING 94
SWIDTH 814 0
DWIDTH 16 0
BBX 16 14 0 1
BITMAP
0000004333341000
0000190000004000
0002D60233302200
000CF10300120300
005FC03113030300
00AF80306A030300
00EF4030AE022030
03FE0220EF403030
07FA0304FF803030
0CF60108FFD01012
1FF40018FFF30003
5FFFFF91EFFFFF90
9FFFF600AFFFF700
2666300026663000
ENDCHAR
STARTCHAR underscore
ENCODING 95
SWIDTH 834 0
DWIDTH 17 0
BBX 16 7 0 -4
BITMAP
0003433333333333
005A000000000003
08FB013333333203
1FFB000000000003
1FFE666666666665
1FFFFFFFFFFFFF80
0EFFFFFFFFFFE500
ENDCHAR
STARTCHAR grave
ENCODING 96
SWIDTH 600 0
DWIDTH 12 0
BBX 12 8 0 12
BITMAP
000333100000
01A200233332
2CF103331003
AFF300002203
AFFFDB975324
AFFFFFFFFFB1
279BDFFFF900
000000234000
ENDCHAR
STARTCHAR a
ENCODING 97
SWIDTH 830 0
DWIDTH 17 0
BBX 16 17 0 -2
BITMAP
0000033333333200
0000490000000300
0004E40233320120
000ED00300030030
005F80212F303030
00BF20307F804003
02FC0120CFC01303
08F8030066600303
0DF6030000000303
3FF6043333333503
5FF6030000000303
6FF60304FFF40303
6FF60204FFF40203
6FF60003AFF40003
6FFB66657FFA6666
6FFFFF907FFFFFA1
4EFFF7004EFFF700
ENDCHAR
STARTCHAR b
ENCODING 98
SWIDTH 825 0
DWIDTH 17 0
BBX 17 17 0 -2
BITMAP
000633333333330000
01BA00000000012000
0CFA01333332003000
1FFA01102300303000
1FFA0110CF90303000
1FFA0110CF70303000
1FFA01100000324000
1FFA01433335310400
1FFA01100000040300
1FFA0110CFF6030120
1FFA0110CFF8030120
1FFA01105651040120
1FFA01433333310310
1FFA00000000000500
1FFD66666666686000
1FFFFFFFFFFFF60000
1DFFFFFFFFDB300000
ENDCHAR
STARTCHAR c
ENCODING 99
SWIDTH 728 0
DWIDTH 15 0
BBX 15 17 0 -2
BITMAP
0000133333333410
0002400000000030
004B002333330030
05F8012000000220
0EF70300BFFFF600
3FF70300FFFE4000
5FF7030086620000
5FF7030030000000
5FF7030030000000
5FF7030030000000
5FF7030033333300
5FF8012000000130
4FFD002333330030
2FFF800000000030
0CFFFD9666666510
03EFFFFFFFFFB100
0029DFFFFFF90000
ENDCHAR
STARTCHAR d
ENCODING 100
SWIDTH 846 0
DWIDTH 17 0
BBX 17 17 0 -2
BITMAP
000633333333333000
01BA00000000001300
0CFA01333333300300
1FFA02100000040030
1FFA02108BA4030030
1FFA0210CFF8030030
1FFA0210BFF8030030
1FFA02107FF8030030
1FFA02107FF8030030
1FFA02107FF8030030
1FFA02105992030030
1FFA02100000040120
1FFA01333333300300
1FFA00000000002300
1FFD66666666793000
1FFFFFFFFFFFC20000
1DFFFFFFFEC7000000
ENDCHAR
STARTCHAR e
ENCODING 101
SWIDTH 754 0
DWIDTH 15 0
BBX 15 17 0 -2
BITMAP
0006333333333330
01BA000000000030
0CFA013333332030
1FFA021000000030
1FFA0210DFFFFA10
1FFA021078889000
1FFA021000003000
1FFA024333303000
1FFA021000003000
1FFA0210CEEC2000
1FFA021089943320
1FFA021000000030
1FFA013333332030
1FFA000000000030
1FFD666666666620
1FFFFFFFFFFFE400
1DFFFFFFFFFD3000
ENDCHAR
STARTCHAR f
ENCODING 102
SWIDTH 718 0
DWIDTH 14 0
BBX 15 17 0 -2
BITMAP
0006333333333420
01BA000000000030
0CFA013333331030
1FFA021000000120
1FFA0210CFFFF600
1FFA0210CFFE4000
1FFA021011124000
1FFA024333203000
1FFA021000003000
1FFA021000004000
1FFA0210CFFA1000
1FFA0210CF800000
1FFA021064000000
1FFA000030000000
1FFD666630000000
1FFFFFE300000000
1DFFFC2000000000
ENDCHAR
STARTCHAR g
ENCODING 103
SWIDTH 808 0
DWIDTH 16 0
BBX 16 17 0 -2
BITMAP
0000133333333320
0002400000000030
004B002333331030
05F8012000000130
0EF70300CFFFF700
3FF70300FFFE5000
5FF7030086853332
5FF7030033C00003
5FF703008ED00203
5FF70300FFD00303
5FF7030068700303
5FF8023000000303
4FFD002333333203
2FFF800000000003
0CFFFD9666666662
03EFFFFFFFFFFE40
0029DFFFFFFFD300
ENDCHAR
STARTCHAR h
ENCODING 104
SWIDTH 859 0
DWIDTH 17 0
BBX 17 17 0 -2
BITMAP
000633333006333320
01BA000031B8000030
0CFA02104CF8030030
1FFA02106FF8030030
1FFA02106FF8030030
1FFA02105995030030
1FFA02100000030030
1FFA02433333350030
1FFA02100000030030
1FFA02105663030030
1FFA0210CFF8030030
1FFA0210CFF8030030
1FFA02106FF8030030
1FFA00006FF8000030
1FFD66666FFC666620
1FFFFFE43FFFFFD200
1DFFFC201EFFFB1000
ENDCHAR
STARTCHAR i
ENCODING 105
SWIDTH 705 0
DWIDTH 14 0
BBX 14 17 0 -2
BITMAP
00263333333333
04E50000000003
4FF50233433103
6FF93300301334
6FFFFF10305F80
5FFFFF10305500
033CFF10303000
000BFF10303000
000BFF10303000
000BFF10303000
00099910302332
00960000300003
1BF50333433203
6FF50000000003
6FFB6666666662
6FFFFFFFFFFE30
4FFFFFFFFFC200
ENDCHAR
STARTCHAR j
ENCODING 106
SWIDTH 788 0
DWIDTH 16 0
BBX 15 17 0 -2
BITMAP
0000000003533340
000000006F300030
00000006FF303030
00000009FF303030
00000009FF303030
00000009FF303030
0014333BFF303030
02C20008FF303030
3DF20208FF303030
AFF20308FF303030
AFF2030287003030
AFF4032000032030
9FF8002333320040
7FFF600000000510
3FFFFD97667A9100
07FFFFFFFFF80000
0039DEFED9300000
ENDCHAR
STARTCHAR k
ENCODING 107
SWIDTH 846 0
DWIDTH 17 0
BBX 17 17 0 -2
BITMAP
000633333024333500
01BA000034B0000300
0CFA02108F50302200
1FFA0210CE00303000
1FFA0210C703013000
1FFA02107103033000
1FFA02100021000400
1FFA02433343310210
1FFA02100000030030
1FFA02108AA3030030
1FFA0210CFF7030030
1FFA0210BFF8030030
1FFA02107FF8030030
1FFA00007FF8000030
1FFD66667FFC666610
1FFFFFE34FFFFFC200
1DFFFC202EFFFA1000
ENDCHAR
STARTCHAR l
ENCODING 108
SWIDTH 795 0
DWIDTH 16 0
BBX 16 17 0 -2
BITMAP
0006333330000000
01BA000030000000
0CFA021030000000
1FFA021030000000
1FFA021030000000
1FFA021030000000
1FFA021030143332
1FFA021032D00003
1FFA02107EE00203
1FFA0210CFE00303
1FFA021079800303
1FFA021000000303
1FFA013333333203
1FFA000000000003
1FFD666666666662
1FFFFFFFFFFFFE30
1DFFFFFFFFFFC200
ENDCHAR
STARTCHAR m
ENCODING 109
SWIDTH 949 0
DWIDTH 19 0
BBX 19 17 0 -2
BITMAP
00063333300034333410
01BA0000110480000110
0CFA0132025E20320110
1FFA030310C804030110
1FFA0300403131030110
1FFA0300040220030110
1FFA0300213202030110
1FFA0300900036030110
1FFA0300E300B6030110
1FFA0300EEACF6030110
1FFA0300EFDFF6030110
1FFA0300C86FF6030110
1FFA0200306FF6020110
1FFA0000306FF6000110
1FFD6665106FFB666600
1FFFFFC2006FFFFFB100
1DFFFA10004FFFF80000
ENDCHAR
STARTCHAR n
ENCODING 110
SWIDTH 853 0
DWIDTH 17 0
BBX 17 17 0 -2
BITMAP
000633340017333410
01BA000042D8000030
0CFA03400BF8030030
1FFA030301D8030030
1FFA03013027030030
1FFA03001200030030
1FFA03000220030030
1FFA03003021030030
1FFA0300C203130030
1FFA0300DD10330030
1FFA0300DFB0050030
1FFA0300DFF7030030
1FFA0300DFF8020030
1FFA0000AFF8000030
1FFD66666FFC666610
1FFFFFD24FFFFFC100
1DFFFB102EFFF90000
ENDCHAR
STARTCHAR o
ENCODING 111
SWIDTH 837 0
DWIDTH 17 0
BBX 17 17 0 -2
BITMAP
000003333333341000
000140033333103200
003A00400000320300
05F803002430030300
1EF70300EFF4030210
3FF70300FFF5030210
5FF70300CFF5030210
5FF703009FF5030210
5FF703009FF5030210
5FF703009FF5030210
5FF703009FE3030210
5FF800400000220300
4FFD00033333100400
3FFFA1000000005200
0CFFFFB87678AA1000
03DFFFFFFFFF900000
0017BEFFEC94000000
ENDCHAR
STARTCHAR p
ENCODING 112
SWIDTH 782 0
DWIDTH 16 0
BBX 16 17 0 -2
BITMAP
0006333333333300
01BA000000000050
0CFA014333331012
1FFA012011004003
1FFA0120CFB00303
1FFA0120CFE00303
1FFA0120CFB00303
1FFA012000004004
1FFA015333331022
1FFA012000000140
1FFA012045568500
1FFA0120CFFE5000
1FFA0120CEA20000
1FFA000030000000
1FFD666620000000
1FFFFFE300000000
1DFFFC2000000000
ENDCHAR
STARTCHAR q
ENCODING 113
SWIDTH 837 0
DWIDTH 17 0
BBX 17 20 0 -5
BITMAP
000003333333341000
000150000000004200
002A00033333100400
03E800400000320300
0DF70300BFE3030210
2FF70300FFF5030210
4FF70300DFF5030210
5FF703009FF5030210
5FF703009FF5030210
5FF703009FF5030210
5FF70300AFF5030210
5FF803003640030310
5FFA00400000220300
4FFF20133433100300
1FFFD5100300034000
09FFFFF50101E60000
01BFFFF80003400000
0004AFFFFFE4000000
00005FFFFD30000000
000016666100000000
ENDCHAR
STARTCHAR r
ENCODING 114
SWIDTH 843 0
DWIDTH 17 0
BBX 17 17 0 -2
BITMAP
000633333333340000
01BA00000000004000
0CFA01333333003000
1FFA02100000301200
1FFA0210CF60300300
1FFA0210CF80301100
1FFA02107930303000
1FFA02100000303300
1FFA02333335310120
1FFA02100000030030
1FFA0210CFF9012030
1FFA0210CFFC012030
1FFA02108FFC012030
1FFA00003FFC000030
1FFD66663FFE666630
1FFFFFD30FFFFFE400
1DFFFB100DFFFD2000
ENDCHAR
STARTCHAR s
ENCODING 115
SWIDTH 750 0
DWIDTH 15 0
BBX 15 17 0 -2
BITMAP
0000233333333500
0005200000000300
0088003333330300
0AF5030000000400
3FF50301FFFFE300
6FF50300368A5000
7FF6032000000400
7FFA001333310030
6FFF910000031030
3FFFFFDA85003030
07FFDDDDDB003030
0095000000022030
09F5033333320030
6FF5000000000410
7FFA666666688100
7FFFFFFFFFF80000
5FFFFFFFEB400000
ENDCHAR
STARTCHAR t
ENCODING 116
SWIDTH 756 0
DWIDTH 15 0
BBX 16 17 0 -2
BITMAP
0063333333333350
09D0000000000021
AFD0133343333021
EFE1000030000040
EFFFFF80300CFE50
EFFFFF80300CD300
4668FF8030061000
0004FF8030030000
0004FF8030030000
0004FF8030030000
0004FF8030030000
0004FF8030030000
0004FF8020030000
0004FF8000030000
0004FFC666620000
0004FFFFFD300000
0002EFFFB1000000
ENDCHAR
STARTCHAR u
ENCODING 117
SWIDTH 846 0
DWIDTH 17 0
BBX 17 17 0 -2
BITMAP
001733333016333410
02C9000033D7000120
1EF903006EF7030120
3FF903008FF7030120
3FF903008FF7030120
3FF903008FF7030120
3FF903008FF7030120
3FF903008FF7030120
3FF903008FF7030120
3FF903008FF7030120
3FF902104881030120
3FFA00400000220210
3FFE10033333200400
1FFFC2000000005200
0AFFFFC97677AB2000
01CFFFFFFFFF900000
0006BDEFEC94000000
ENDCHAR
STARTCHAR v
ENCODING 118
SWIDTH 830 0
DWIDTH 17 0
BBX 16 17 0 -2
BITMAP
0026333320353335
03E6000035E40003
3EF603008FF40303
6FF60300BFF40303
6FF60300BFF40303
6FF60300BFF40303
6FF60300BFF30303
6FF70310AFE00303
6FFC00305F902203
5FFF30400E403012
1FFF901202003030
0AFFE10400030030
04FFF60133320210
00DFFC0000000300
007FFF8666666200
001FFFFFFFFC2000
0008FFFFFFA10000
ENDCHAR
STARTCHAR w
ENCODING 119
SWIDTH 931 0
DWIDTH 19 0
BBX 18 17 0 -2
BITMAP
001633342000253335
02D800003002D40003
2EF80200302EF40203
4FF80300307FF40303
4FF80300307FF40303
4FF80300346AF40303
4FF80300C100940303
4FF803005132130303
4FF803000303000303
4FF803002100300303
4FFB012030A1300303
4FFE103212F5031203
2FFF502306F9023021
0DFFB0000AFD000030
08FFF7666EFF866620
02FFFFFD3FFFFFD300
009FFFB109FFFC1000
ENDCHAR
STARTCHAR x
ENCODING 120
SWIDTH 837 0
DWIDTH 17 0
BBX 17 17 0 -2
BITMAP
001633342026333400
02C8000033D5000210
1DF803006EF5030210
4FF803109FE1030300
4FFD00401D50210400
4FFF70120000302200
1EFFF3031003003000
06FFFA005333040000
00BFE2030003003000
002F50210300401200
00AB01304F90130300
07F80300EFF4030300
1EF80300FFF5030210
4FF80000BFF5000210
4FFC66667FFB666700
4FFFFFC26FFFFFB100
2FFFF9004FFFF80000
ENDCHAR
STARTCHAR y
ENCODING 121
SWIDTH 805 0
DWIDTH 16 0
BBX 16 17 0 -2
BITMAP
0035333500443334
05E3000306F10003
5FF303036FF10303
9FF30303BFF10303
9FF30303BFF10303
9FF40300CFA00303
9FF701304E203003
8FFE203100021030
6FFFC00400120220
0CFFF90034201300
02EFFF5003004000
005FFFE003031000
0009FFF002030000
0001DFF000030000
0000CFF866650000
0000CFFFFF900000
00009FFFE6000000
ENDCHAR
STARTCHAR z
ENCODING 122
SWIDTH 760 0
DWIDTH 15 0
BBX 15 17 0 -2
BITMAP
0017333333333330
02C9000000000030
1EF9023333330030
3FFA000000021030
3FFFFFFF30130130
3FFFFFF500400400
05666C8004004000
00005B0031031000
0003C10220220000
001C201201200000
00B6013004333330
09F3030000000030
5FF3023333332030
8FF3000000000030
8FFA666666666640
8FFFFFFFFFFFF600
6FFFFFFFFFFE4000
ENDCHAR
STARTCHAR braceleft
ENCODING 123
SWIDTH 555 0
DWIDTH 11 0
BBX 12 21 -1 -4
BITMAP
000000033333
000003300003
000066023203
0009F1030014
006FF00305C2
00BFF0030400
00CFE0030300
00CE20320300
01DB01228200
0BFB01202300
1FFF60130300
1FFFF0030300
09FFF0030300
00CFF0030233
00CFF1040003
00CFF5003203
00BFFC100003
008FFFC52003
003FFFFFFFA0
0004DFFFF800
000003565000
ENDCHAR
STARTCHAR bar
ENCODING 124
SWIDTH 447 0
DWIDTH 9 0
BBX 9 21 0 -4
BITMAP
0003333400
0079000120
0AF9030120
3FF9030120
3FF9030120
3FF9030120
3FF9030120
3FF9030120
3FF9030120
3FF9030120
3FF9030120
3FF9030120
3FF9030120
3FF9030120
3FF9030120
3FF9030120
3FF9010120
3FFA000320
3FFFFFF600
2FFFFE4000
0566620000
ENDCHAR
STARTCHAR braceright
ENCODING 125
SWIDTH 555 0
DWIDTH 11 0
BBX 12 21 0 -4
BITMAP
000433320000
02C300014100
3EF303410400
9FF400030300
9FFFE1030300
8FFFF2030300
26DFF2030300
009FF3032040
009FFA403003
009FFB503002
005FF3032030
002DF2030310
009FF2030300
009FE1030300
00B500130300
09F303300300
7FF300002200
9FF501252000
9FFFFFD20000
8FFFFA100000
266520000000
ENDCHAR
STARTCHAR asciitilde
ENCODING 126
SWIDTH 834 0
DWIDTH 17 0
BBX 16 8 0 2
BITMAP
0000133333200233
0005200000133103
009B023333200103
0AFB000000133203
1FFC157864200153
1FFFFFFFFFFFEE50
1FFFFFFFFFFFE300
0651013478850000
ENDCHAR
STARTCHAR uni00A0
ENCODING 160
SWIDTH 325 0
DWIDTH 7 0
BBX 1 1 0 0
BITMAP
00
ENDCHAR
STARTCHAR exclamdown
ENCODING 161
SWIDTH 523 0
DWIDTH 10 0
BBX 9 17 1 -2
BITMAP
0054333320
07F0000030
8FF0030030
CFF2000130
CFFFFFF800
CFF8333400
6CF4000210
2DF3020120
8FF2030120
8FF2030030
9FF1030030
AFF1030030
AFF0030030
BFF0000030
BFF7666620
CFFFFFD300
AFFFFC1000
ENDCHAR
STARTCHAR cent
ENCODING 162
SWIDTH 728 0
DWIDTH 15 0
BBX 15 19 0 -3
BITMAP
0000000333330000
0000006401023300
0000320003000130
0001202334330030
0038013000000030
04E7030000000210
0EF70300CFFFE300
3FF70300FFFD2000
5FF7030086610000
5FF7030030000000
5FF7030033333300
5FF9012000000130
4FFD002334330030
3FFF800003000030
0EFFFD8202015610
06FFFFF60004C200
005DFFFB66661000
00007FFFFF800000
00004EFFE6000000
ENDCHAR
STARTCHAR sterling
ENCODING 163
SWIDTH 795 0
DWIDTH 16 0
BBX 17 17 -1 -2
BITMAP
000000333333332000
000015000000003000
0002C1013333103000
003EB0040000013000
00BFA02108FFF80000
00FF702108CE500000
01FB00210023000000
06FB00210012333320
1FFB0021002A000030
1FFE602106AE000030
1FFFA0210CFE003030
09FFA0210000003030
01FFA0133333332030
01FFA0000000000030
01FFD6666666666520
01FFFFFFFFFFFFE300
01DFFFFFFFFFFC2000
ENDCHAR
STARTCHAR currency
ENCODING 164
SWIDTH 921 0
DWIDTH 18 0
BBX 18 19 0 -3
BITMAP
000001000000000200
000053400000006350
000710153333481015
00B502100000000203
0BFE30313333314012
7FFFE2061000070120
1DFFF5040CFD131300
01DFF5030FFF321300
006FF5030FFF321300
006FF5030FFF321300
006FF5030698030300
006FD2051000051140
006D20402333303113
00A502010000010204
09FD201DFDCDED2013
6FFFD4DFFFFFFFD430
2EFFE678876DFFE500
02ED30000002DD3000
001100000000110000
ENDCHAR
STARTCHAR yen
ENCODING 165
SWIDTH 803 0
DWIDTH 16 0
BBX 16 17 0 -2
BITMAP
0035333500443334
05E3000305F10003
5FF303036FF10303
9FF30303AFF10303
9FF40302BFE10303
9FF901109F702013
8FFF502015011040
5FFFE30200010300
0BFFC70001001420
01DF300003000030
01CF303335332030
08FF400003000030
09FFFDD10206DA10
08FFFFF10006A000
0266CFF866650000
0000AFFFFF700000
00008FFFE5000000
ENDCHAR
STARTCHAR brokenbar
ENCODING 166
SWIDTH 447 0
DWIDTH 9 0
BBX 9 21 0 -4
BITMAP
0003333400
0079000120
0AF9030120
3FF9030120
3FF9030120
3FF9030120
3FF9020120
3FF9000120
3FFFCCC500
3FFE996400
09C9000120
05E9000120
2FF9030120
3FF9030120
3FF9030120
3FF9030120
3FF9020120
3FFB000310
3FFFFFE500
3FFFFD3000
0566610000
ENDCHAR
STARTCHAR section
ENCODING 167
SWIDTH 750 0
DWIDTH 15 0
BBX 15 17 0 -2
BITMAP
0000133333333500
0003302333330300
0059022000000400
06F60302DEEED500
1FF5030122355100
5FF5043333320310
6FF6030010022030
7FF80303FE103030
6FFE213034103030
5FFFD52333335030
2FFFFFFEED103030
07FB222221003030
00A8000000013030
0AF8023333320400
3FFC666666696000
4FFFFFFFFFF60000
2EFFFFFFDA300000
ENDCHAR
STARTCHAR dieresis
ENCODING 168
SWIDTH 600 0
DWIDTH 12 0
BBX 14 7 -1 12
BITMAP
00033333233330
00790004B00021
0AF90304C03021
2FFB0006D00031
2FFFFFFFFFFF60
2FFFFCEFFFE300
05666146661000
ENDCHAR
STARTCHAR copyright
ENCODING 169
SWIDTH 967 0
DWIDTH 19 0
BBX 19 22 0 -4
BITMAP
00000013333333300000
00001330000000034100
00025000000000000400
003C006CFFFFFFC50130
03E916EFFDCCCCEE6030
0CF835AA3000006F5330
2FF833640333316F7330
4FF837F1302666BF7330
4FF838F130AFFCFF7330
4FF838F130AF65FF7330
4FF838F1303005FF7330
4FF838F1303005FF7330
4FF838F2303335CF7330
4FF838F60333316F7330
4FF837FE5100007F6330
4FFA33FFFFFFFFFF2330
3FFF414BEFFFE7A32410
1FFFC530012200035300
0AFFFEA8543345894000
01CFFFFFFFFFFFD30000
0007DFFFFFFFE8100000
00000245654200000000
ENDCHAR
STARTCHAR ordfeminine
ENCODING 170
SWIDTH 620 0
DWIDTH 12 0
BBX 13 17 0 -2
BITMAP
00005333332000
00096033303000
00BF1301121200
04FA031D030300
0AF5215F321300
1EF13012103120
5FF03333333030
9FF03023203030
BFF020BF902030
CFF000BFA00030
CFFBAAFFEAA700
CFFB9599998400
AFF10000000130
1CF01222221030
AFF86666666510
CFFFFFFFFFB100
9FFFFFFFF90000
ENDCHAR
STARTCHAR guillemotleft
ENCODING 171
SWIDTH 912 0
DWIDTH 18 0
BBX 18 14 0 -1
BITMAP
000000000100000000
000000333330023334
000043000033420003
001700231082013203
02D6041001B0220004
1DF50304AEB0303970
6FF40305AEB0303730
7FF6041001B0320003
7FFB003310D2013203
6FFFB40000DE610003
3FFFFFEA62EFFFC834
06EFFFFFFDFFFFFF90
00059DFE5037CFF600
000000320000012000
ENDCHAR
STARTCHAR logicalnot
ENCODING 172
SWIDTH 834 0
DWIDTH 17 0
BBX 16 12 0 -1
BITMAP
0002333333333333
005A000000000003
06FB013333333303
1FFB000000000303
1FFE666666640303
1FFFFFFFFFFA0303
0EFFFFFFFFFA0303
000000002FFA0203
000000002FFA0003
000000002FFD6663
000000002FFFFF60
000000001EFFE500
ENDCHAR
STARTCHAR uni00AD
ENCODING 173
SWIDTH 520 0
DWIDTH 10 0
BBX 11 7 0 3
BITMAP
001433333300
02C200000210
3EF103330110
AFF100000110
AFF866666600
AFFFFFFFB100
8FFFFFF90000
ENDCHAR
STARTCHAR registered
ENCODING 174
SWIDTH 660 0
DWIDTH 13 0
BBX 13 13 0 2
BITMAP
00005666667400
001759EFFE7520
02C8787667F530
1DF8863A42E630
4FF8863123E630
5FF88653527630
5FF88639936630
5FF7882CC28530
5FFA6EFFFFC540
5FFF8567766710
2FFFFFEDDEA100
07FFFFFFF70000
00279A97200000
ENDCHAR
STARTCHAR macron
ENCODING 175
SWIDTH 600 0
DWIDTH 12 0
BBX 12 7 0 12
BITMAP
001433333332
01C200000003
2DF103333203
AFF300000004
AFFFFFFFFFB1
AFFFFFFFF900
266666665000
ENDCHAR
STARTCHAR degree
ENCODING 176
SWIDTH 583 0
DWIDTH 12 0
BBX 12 12 0 3
BITMAP
000133333320
003603333131
05E430000303
3FF330BE1303
8FF330DF2303
9FF3309C1303
9FF330000303
9FF703333121
8FFF94334620
4FFFFFFFD200
06DFFFFA1000
000232000000
ENDCHAR
STARTCHAR plusminus
ENCODING 177
SWIDTH 834 0
DWIDTH 17 0
BBX 16 17 0 -2
BITMAP
0000000633340000
000001BA00030000
00000CFA03030000
00001FFA03030000
0003499603023333
006A000003000003
09FB023335333303
1FFB000003000003
1FFFCCC80305CC92
1FFFFFFA0306FA10
0457899601037333
005A000000000003
06FB023333333203
1FFB000000000003
1FFE666666666663
1FFFFFFFFFFFFF60
0EFFFFFFFFFFE500
ENDCHAR
STARTCHAR twosuperior
ENCODING 178
SWIDTH 585 0
DWIDTH 12 0
BBX 12 13 0 2
BITMAP
001733333320
02DA03334030
1EFC33320312
2FFFFFE70312
1FFFA4001330
014801331130
04E322159500
3FF130696330
8FF130000003
AFF123333203
AFF866666651
AFFFFFFFFC10
8FFFFFFFA100
ENDCHAR
STARTCHAR threesuperior
ENCODING 179
SWIDTH 584 0
DWIDTH 12 0
BBX 12 13 0 2
BITMAP
003633333300
05E413331120
4FF500003030
8FFFEED03030
7FFF92203320
27AF71333131
03EF80000303
05FFFFFE0303
04F733320303
06F413333131
6FF966666830
8FFFFFFFD200
6FFFFFE91000
ENDCHAR
STARTCHAR acute
ENCODING 180
SWIDTH 600 0
DWIDTH 12 0
BBX 12 8 0 12
BITMAP
000000002332
000433331003
01B200233203
2DF103100004
AFF42468ABA1
AFFFFFFFFA00
AFFFECA85000
242100000000
ENDCHAR
STARTCHAR mu
ENCODING 181
SWIDTH 813 0
DWIDTH 16 0
BBX 16 17 0 -4
BITMAP
0003333310133332
0078000033D00003
09F802008EE00203
4FF80300EFE00303
4FF80300EFE00303
4FF80300EFE00303
4FF80300EFE00303
4FF80300EFE00303
4FF804106A701203
4FF8034000004004
4FF8030333330023
4FF8030000000560
4FF80000BAABE600
4FF90001FFFE4000
4FFFEEEEEC820000
4FFFFF5000000000
0677730000000000
ENDCHAR
STARTCHAR paragraph
ENCODING 182
SWIDTH 782 0
DWIDTH 16 0
BBX 15 17 0 -2
BITMAP
0000233333333340
0006100000000030
01B5013333333030
1CF1040000003030
7FF0300000003030
BFF0300000003030
CFF0300000003030
CFF2040000003030
CFF6013433335030
BFFE300210003030
7FFFFC1212603030
1DFFFF1213C03030
018EFF1213C02030
000BFF1003C00030
000BFF8669E66640
000BFFFFFFFFF700
0009FFF7BFFE4000
ENDCHAR
STARTCHAR periodcentered
ENCODING 183
SWIDTH 464 0
DWIDTH 9 0
BBX 9 9 0 2
BITMAP
0004333330
01B3000030
1CF3000030
8FF3020030
9FF3020030
9FF3000030
9FF9666630
9FFFFFF700
6FFFFE5000
ENDCHAR
STARTCHAR cedilla
ENCODING 184
SWIDTH 600 0
DWIDTH 12 0
BBX 9 9 1 -5
BITMAP
0000032000
0000920330
001BB02030
009F503030
00EE103030
05F9000300
0BFB666400
1FFFFF6000
4FFFD40000
ENDCHAR
STARTCHAR onesuperior
ENCODING 185
SWIDTH 557 0
DWIDTH 11 0
BBX 11 13 0 2
BITMAP
001733334000
03D803313000
2FFB42023000
4FFFF6023000
3FFFF6023000
027FF6023000
006FF6023000
006C94022330
00A400020030
1BF413343130
7FFA66666640
8FFFFFFFF900
6FFFFFFF6000
ENDCHAR
STARTCHAR ordmasculine
ENCODING 186
SWIDTH 625 0
DWIDTH 13 0
BBX 13 17 0 -2
BITMAP
00013333333100
00250233330400
03E31200012120
3EF1307F803030
9FF1308FA03030
AFF1308FA03030
BFF1308FA03030
BFF1306F803030
BFF31200012210
BFFB1233330400
AFFFEA87897000
6FFB9999973410
08F10000000030
1AF11222221030
9FF86666666510
BFFFFFFFFFC100
8FFFFFFFFA0000
ENDCHAR
STARTCHAR guillemotright
ENCODING 187
SWIDTH 912 0
DWIDTH 18 0
BBX 18 13 0 0
BITMAP
000462000037300000
007A49A836C37A9500
0AF801038FB01016A1
4FF8023305B0033116
4FFA000030C0000304
4FFFD82030DE930303
1DFFD92030DEA40303
00AA003400C0024202
09F8020005B0210011
4FF800028FB0000310
4FFA48C7FFC26BA100
4FFFEA31FFFFC60000
2C840000CA61000000
ENDCHAR
STARTCHAR onequarter
ENCODING 188
SWIDTH 1303 0
DWIDTH 26 0
BBX 26 17 0 -2
BITMAP
00273333400035333100000000
04E803313006F1002100000000
2FFB4202306FE0303000000000
4FFFF60230AFB0303000000000
3FFFF60230DF80306433344332
016FF60231FF5030E130AF2303
006FF60234FF2121F130AF2303
006C940225CF0304F130AF2303
00A40002005C0307F130AF2303
1BF413343159030AF130361303
7FFA666666A6030CF303333503
8FFFFFFFFFF4030FFB30000303
6FFFFFFFAFF1213FFFFFFF2303
000000008FD0004EFFFFFF2003
00000000BFE66512566CFF8664
00000000DFFFE400000AFFFF60
00000000CFFE30000008FFE400
ENDCHAR
STARTCHAR onehalf
ENCODING 189
SWIDTH 1260 0
DWIDTH 25 0
BBX 25 17 0 -2
BITMAP
00173333400035333100000000
03D803313006F1002100000000
2EFB4202306FE0303000000000
4FFFF60230AFB0303000000000
3FFFF60230DF80305433333200
048FF60231FF5030E213332130
006FF60234FF2121F633303030
006C940225CF0304FFFFC13030
00A40002005C0307FE72004030
1BF4133431590307B203330310
7FFA666666A60309A041278200
8FFFFFFFFFF4030F9031993330
6FFFFFFFAFF1213F9030000030
000000008FD0006F9033333030
00000000BFE666CFC666666630
00000000DFFFF9FFFFFFFFF600
00000000CFFE42EFFFFFFE4000
ENDCHAR
STARTCHAR threequarters
ENCODING 190
SWIDTH 1313 0
DWIDTH 26 0
BBX 26 17 0 -2
BITMAP
00363333330016333200000000
06F413331122D4000300000000
5FF50000305EF2212100000000
8FFFEED0309FE0304000000000
7FFF922033BFB0305433335333
029F7143206F8030B4307F5213
04FF8000020E6030D4307F5213
05FFFFFE030D3121F4307F5213
04F73332030D0304F4307F5213
06F41333313C0307F421382213
6FF9666669E9030AF603333513
8FFFFFFFBFF7030CFD41000213
6FFFFFD83FF4020FFFFFFF5213
000000005FF1002DFFFFFF5003
000000008FF76621566AFFA665
00000000AFFFF7000007FFFF90
000000009FFF60000005FFF600
ENDCHAR
STARTCHAR questiondown
ENCODING 191
SWIDTH 756 0
DWIDTH 15 0
BBX 15 17 0 -2
BITMAP
0000000633334100
0000009C00001200
00000AFC00301200
00000EFC00001200
00000EFF98766000
00000A7531002000
0001000000003000
0056013333302000
06F4030000015100
3FF303019BDD3000
8FF3030199943330
9FF4030000000030
9FF8003333332030
8FFE400000000030
6FFFFB7666666630
1DFFFFFFFFFFF600
018DEFFFFFFE4000
ENDCHAR
STARTCHAR Agrave
ENCODING 192
SWIDTH 830 0
DWIDTH 17 0
BBX 16 22 0 -2
BITMAP
00002BCCB9753100
0003E70113579B00
003FF60133330300
006FF70000000300
006FFFDB98642100
004FFE2000001300
0002990000000300
0004F30233320120
000EC00300030030
005F70212F303030
00BF10307F804003
02FB0120CFC01303
08F8030066600303
0DF6030000000303
3FF6043333333503
5FF6030000000303
6FF60304FFF40303
6FF60204FFF40203
6FF60003AFF40003
6FFB66657FFA6665
6FFFFF907FFFFFA0
4EFFF7004EFFF700
ENDCHAR
STARTCHAR Aacute
ENCODING 193
SWIDTH 830 0
DWIDTH 17 0
BBX 16 22 0 -2
BITMAP
0000000246899900
0000199753200400
0002D60233330300
002EF60000000100
006FF824579B8000
006FFF5333333200
005FFA0000000300
0008F40233320120
000ED00300030030
005F80212F303030
00BF20307F804003
02FC0120CFC01303
08F8030066600303
0DF6030000000303
3FF6043333333503
5FF6030000000303
6FF60304FFF40303
6FF60204FFF40203
6FF60003AFF40003
6FFB66657FFA6666
6FFFFF907FFFFFA1
4EFFF7004EFFF700
ENDCHAR
STARTCHAR Acircumflex
ENCODING 194
SWIDTH 830 0
DWIDTH 17 0
BBX 16 23 0 -2
BITMAP
0000000033310000
0000013200023200
0000250133310300
0003E60200020300
002EF60269720300
005FFDDFFFFFD700
006FFE2000001300
005FF90000000300
0016E30233320120
000EC00300030030
005F70212F303030
00BF10307F804003
02FB0120CFC01303
08F8030066600303
0DF6030000000303
3FF6043333333503
5FF6030000000303
6FF60304FFF40303
6FF60204FFF40203
6FF60003AFF40003
6FFB66657FFA6665
6FFFFF907FFFFFA0
4EFFF7004EFFF700
ENDCHAR
STARTCHAR Atilde
ENCODING 195
SWIDTH 830 0
DWIDTH 17 0
BBX 16 22 0 -2
BITMAP
0000013333324400
0000260000010300
0003E60343200300
002EF60000130300
006FF84764202500
006FFFCAAAAAA100
005FFD0000000300
0017E60233320310
000EF10300030030
005FA0212F303030
00BF40307F804012
02FD0120CFC01303
08F9030066600303
0DF6030000000303
3FF6043333333503
5FF6030000000303
6FF60304FFF40303
6FF60204FFF40203
6FF60003AFF40003
6FFB66657FFA6666
6FFFFF907FFFFFA1
4EFFF7004EFFF800
ENDCHAR
STARTCHAR Adieresis
ENCODING 196
SWIDTH 830 0
DWIDTH 17 0
BBX 16 22 0 -2
BITMAP
0000243331433310
0002C0000D200030
003EE0210F103030
00CFE0000F100030
00DFF1002F300130
00DFFFECCCCCD800
00CFFD1000000400
0017F70233320300
000EF10300030030
005FA0212F303030
00BF40307F804012
02FE0120CFC01303
08F9030066600303
0DF6030000000303
3FF6043333333503
5FF6030000000303
6FF60304FFF40303
6FF60204FFF40203
6FF60003AFF40003
6FFB66657FFA6666
6FFFFF907FFFFFB1
4EFFF7004EFFF800
ENDCHAR
STARTCHAR Aring
ENCODING 197
SWIDTH 830 0
DWIDTH 17 0
BBX 16 23 0 -2
BITMAP
0000001333332000
0000033000002300
0000570133330300
0006F51315212210
003FF4307FB03120
007FF5306F903210
008FF81300012300
007FFA0133330300
005FF50233320210
001FE00300030030
006F80212F303030
00CF20307F804003
02FC0120CFC01303
08F8030066600303
0EF6030000000303
3FF6043333333503
5FF6030000000303
6FF60304FFF40303
6FF60204FFF40203
6FF60003AFF40003
6FFB66657FFA6666
6FFFFF907FFFFFA1
4EFFF7004EFFF700
ENDCHAR
STARTCHAR AE
ENCODING 198
SWIDTH 1105 0
DWIDTH 22 0
BBX 22 17 0 -2
BITMAP
0000043333333333333334
0000780000000000000003
0009F20233333433333203
003FC00300000300000004
008F60401FF10305FFFFB1
00EF10406FF10303888900
04FB0230BFF10300000300
0AF8040077710411110300
0EF6030000000300000200
4FF6043333333403AA8000
5FF6030000000303994332
6FF60304FFF10300000003
6FF60204FFF10333333203
6FF60003CFF10000000003
6FFB6665AFF86666666663
6FFFFF90AFFFFFFFFFFE40
4EFFF6007FFFFFFFFFD300
ENDCHAR
STARTCHAR Ccedilla
ENCODING 199
SWIDTH 728 0
DWIDTH 15 0
BBX 15 20 0 -5
BITMAP
0000133333333410
0002300000000030
004B002333330030
05F8012000000220
0EF70300CFFFF600
3FF70300FFFE4000
5FF7030086620000
5FF7030030000000
5FF7030030000000
5FF7030030000000
5FF7030033333300
5FF9012000000030
4FFE102333430030
2FFFB10002100030
0BFFFFB503038600
02EFFFF3000AA000
0018CFE000270000
00007FFFFE500000
0000CFFFD3000000
0000466610000000
ENDCHAR
STARTCHAR Egrave
ENCODING 200
SWIDTH 754 0
DWIDTH 15 0
BBX 15 22 0 -2
BITMAP
0000799875310000
000AA0013468A100
00CFA02333310300
02FFB00000000300
02FFFECA86420100
01FD333333333330
00AA000000000030
0BFA013333332030
1FFA021000000030
1FFA0210DFFFFA10
1FFA021078889000
1FFA021000003000
1FFA024333303000
1FFA021000003000
1FFA0210CEEC2000
1FFA021089943320
1FFA021000000030
1FFA013333332030
1FFA000000000030
1FFD666666666620
1FFFFFFFFFFFE400
0DFFFFFFFFFD3000
ENDCHAR
STARTCHAR Eacute
ENCODING 201
SWIDTH 754 0
DWIDTH 15 0
BBX 15 22 0 -2
BITMAP
0000001246899700
00002A9753100300
0004E40333320300
004FF40000000100
008FF624689B6000
008D333333333330
01CA000000000030
0CFA013333332030
1FFA021000000030
1FFA0210DFFFFA10
1FFA021078889000
1FFA021000003000
1FFA024333303000
1FFA021000003000
1FFA0210CEEC2000
1FFA021089943320
1FFA021000000030
1FFA013333332030
1FFA000000000030
1FFD666666666620
1FFFFFFFFFFFE400
1DFFFFFFFFFD3000
ENDCHAR
STARTCHAR Ecircumflex
ENCODING 202
SWIDTH 754 0
DWIDTH 15 0
BBX 15 23 0 -2
BITMAP
0000000233200000
0000044100133000
0001A00233200300
002CD01100110300
00CFD00377300300
00EFFAEFFFFEA300
00ED333333333330
04FA000000000030
1EFA013333332030
1FFA021000000030
1FFA0210DFFFFA10
1FFA021078889000
1FFA021000003000
1FFA024333303000
1FFA021000003000
1FFA0210CEEC2000
1FFA021089943320
1FFA021000000030
1FFA013333332030
1FFA000000000030
1FFD666666666620
1FFFFFFFFFFFE400
0DFFFFFFFFFD3000
ENDCHAR
STARTCHAR Edieresis
ENCODING 203
SWIDTH 754 0
DWIDTH 15 0
BBX 15 22 0 -2
BITMAP
0000333332333300
000690005B000300
007F80305B030300
03FF80005B000300
03FFA0007C000100
03FFDCCCCCCCCC60
03FB000000000030
07FA013333332030
1FFA021000000030
1FFA0210DFFFFA10
1FFA021078889000
1FFA021000003000
1FFA024333303000
1FFA021000003000
1FFA0210CEEC2000
1FFA021089943320
1FFA021000000030
1FFA013333332030
1FFA000000000030
1FFD666666666620
1FFFFFFFFFFFE400
0DFFFFFFFFFD3000
ENDCHAR
STARTCHAR Igrave
ENCODING 204
SWIDTH 705 0
DWIDTH 14 0
BBX 14 22 0 -2
BITMAP
00029997642000
004E3002457960
05FF2033332030
0AFF3000000030
0AFFFDB9753210
09F93333333333
02E50000000003
3EF50233433103
6FF93300301334
6FFFFF10305F80
5FFFFF10305500
033CFF10303000
000BFF10303000
000BFF10303000
000BFF10303000
00099910302332
00960000300003
1BF50333433203
6FF50000000003
6FFB6666666662
6FFFFFFFFFFE30
4FFFFFFFFFC200
ENDCHAR
STARTCHAR Iacute
ENCODING 205
SWIDTH 705 0
DWIDTH 14 0
BBX 14 22 0 -2
BITMAP
00000134689960
0003A875310040
005E2033332030
05FF2000000010
0AFF42468AB500
0AF93333333333
09F50000000003
2DF50233433103
6FF93300301334
6FFFFF10305F80
5FFFFF10305500
033CFF10303000
000BFF10303000
000BFF10303000
000BFF10303000
00099910302332
00960000300003
1BF50333433203
6FF50000000003
6FFB6666666662
6FFFFFFFFFFE30
4FFFFFFFFFC200
ENDCHAR
STARTCHAR Icircumflex
ENCODING 206
SWIDTH 705 0
DWIDTH 14 0
BBX 14 23 0 -2
BITMAP
00000013330000
00001320003310
00043013330030
005F2020002030
05FF2026851030
09FFBDFFFFFB50
0AF93333333333
09F50000000003
2DF50233433103
6FF93300301334
6FFFFF10305F80
5FFFFF10305500
033CFF10303000
000BFF10303000
000BFF10303000
000BFF10303000
00099910302332
00960000300003
1BF50333433203
6FF50000000003
6FFB6666666662
6FFFFFFFFFFE30
4FFFFFFFFFC200
ENDCHAR
STARTCHAR Idieresis
ENCODING 207
SWIDTH 705 0
DWIDTH 14 0
BBX 14 22 0 -2
BITMAP
00033333233340
005A0003C00012
06FA0304D03012
1FFA0004D00012
2FFC0005E10010
2FFECCCCCCCCC6
1FF60000000003
1CF50233433103
6FF93300301334
6FFFFF10305F80
5FFFFF10305500
033CFF10303000
000BFF10303000
000BFF10303000
000BFF10303000
00099910302332
00960000300003
1BF50333433203
6FF50000000003
6FFB6666666662
6FFFFFFFFFFE30
4FFFFFFFFFC200
ENDCHAR
STARTCHAR Eth
ENCODING 208
SWIDTH 856 0
DWIDTH 17 0
BBX 18 17 -1 -2
BITMAP
000063333333333300
0009D0000000000040
00AFD0043333330012
00EFD0030000004002
00EFD0030AFF802003
00EFA00307CFB01103
00EB0003002FB01103
06FB0235301FB01103
1FFB0003002FB01103
1FFE700305AFB01103
1FFFD00307FF802103
08FFD0030000004003
00EFD0043333331021
00EFD0000000000130
00EFF6666666679400
00EFFFFFFFFFFE3000
00BFFFFFFFED810000
ENDCHAR
STARTCHAR Ntilde
ENCODING 209
SWIDTH 853 0
DWIDTH 17 0
BBX 17 22 0 -2
BITMAP
000000333332450000
000018000001103000
0002D9024321003000
001EF9000013102000
002FFB377520200000
002D3339FFFB333410
01BA0000AEF8000030
0DFA03400BF8030030
1FFA030301D8030030
1FFA03013027030030
1FFA03001200030030
1FFA03000220030030
1FFA03003021030030
1FFA0300C203130030
1FFA0300DD10330030
1FFA0300DFB0050030
1FFA0300DFF7030030
1FFA0300DFF8020030
1FFA0000AFF8000030
1FFD66666FFC666610
1FFFFFD24FFFFFC100
1DFFFB102EFFF90000
ENDCHAR
STARTCHAR Ograve
ENCODING 210
SWIDTH 837 0
DWIDTH 17 0
BBX 17 23 0 -2
BITMAP
000001310000000000
00003DCEECA8730000
0005F70244579C0000
003FF7000233031000
005FF8000000020000
005FFFB63012120000
001AC3000000015100
000810033333100300
01B900400000320300
0BF703002430030210
2FF70300EFF4030210
4FF70300FFF5030210
5FF70300CFF5030210
5FF703009FF5030210
5FF703009FF5030210
5FF703009FF5030210
5FF703009FE3030210
5FF800400000220300
4FFD00033333100400
2FFFB2000000005100
0CFFFFB87678AA1000
02DFFFFFFFFF800000
0016BEFFEC93000000
ENDCHAR
STARTCHAR Oacute
ENCODING 211
SWIDTH 837 0
DWIDTH 17 0
BBX 17 23 0 -2
BITMAP
000000000000220000
00000268ACDFDD0000
00004D975443031000
0006F7023210020000
004FF7000000040000
005FF9021025520000
005FC3000000014100
001D10033333100300
01B900400000320300
0BF703002430030210
2FF70300EFF4030210
4FF70300FFF5030210
5FF70300CFF5030210
5FF703009FF5030210
5FF703009FF5030210
5FF703009FF5030210
5FF703009FE3030210
5FF800400000220300
4FFD00033333100400
2FFFB2000000005100
0CFFFFB87678AA1000
02DFFFFFFFFF800000
0016BEFFEC93000000
ENDCHAR
STARTCHAR Ocircumflex
ENCODING 212
SWIDTH 837 0
DWIDTH 17 0
BBX 17 23 0 -2
BITMAP
000000003331000000
000001220002320000
000046013332030000
0006F7010101021000
003FF848DFEA540000
005FFE965445871000
005F91000000003200
002C00033333100300
01B800400000320300
0BF703002430030210
2FF70300EFF4030210
4FF70300FFF5030210
5FF70300CFF5030210
5FF703009FF5030210
5FF703009FF5030210
5FF703009FF5030210
5FF703009FE3030210
5FF900400000220300
4FFD10033333100400
2FFFB2000000004100
0CFFFFB87678A91000
02DFFFFFFFFF800000
0016BEFFEC93000000
ENDCHAR
STARTCHAR Otilde
ENCODING 213
SWIDTH 837 0
DWIDTH 17 0
BBX 17 22 0 -2
BITMAP
000001333332450000
000037000001030000
0005E7034320030000
003FF7000013030000
005FF9477420230000
005FFD864345741000
001E80033333103200
01BC00400000320300
0BF803002430030200
2FF70300EFF4030210
4FF70300FFF5030210
5FF70300CFF5030210
5FF703009FF5030210
5FF703009FF5030210
5FF703009FF5030210
5FF703009FE3030210
5FF800400000220300
4FFD00033333100400
2FFFA1000000005200
0CFFFFB87678AA1000
02DFFFFFFFFF900000
0016BEFFEC94000000
ENDCHAR
STARTCHAR Odieresis
ENCODING 214
SWIDTH 837 0
DWIDTH 17 0
BBX 17 22 0 -2
BITMAP
000014333143332000
0003D0000D30003000
005FF0120E20303000
00CFF0000E20003000
00CFF2001F40002000
00CFFFDA9889BA0000
003DB3033333115200
01BD00400000320400
0BF803002430030300
2FF70300EFF4030210
4FF70300FFF5030210
5FF70300CFF5030210
5FF703009FF5030210
5FF703009FF5030210
5FF703009FF5030210
5FF703009FE3030210
5FF800400000220300
4FFC00033333100400
2FFFA1000000005200
0CFFFFB87678AB2000
02DFFFFFFFFF900000
0016BEFFEC94000000
ENDCHAR
STARTCHAR multiply
ENCODING 215
SWIDTH 834 0
DWIDTH 17 0
BBX 15 15 1 -1
BITMAP
0000010000000000
0000312000222100
0016001303300210
01D2010164010040
1DFC114000220410
AFFFB11402204100
4FFFFB0152041000
04FFF50224023000
005E502201402300
0055012050120220
05F30006FA000130
5FFE306FFFA01400
AFFFE66FFFFB5000
1CFFA106FFF60000
01B700006D400000
ENDCHAR
STARTCHAR Oslash
ENCODING 216
SWIDTH 837 0
DWIDTH 17 0
BBX 17 21 0 -4
BITMAP
000000000003334100
000000000043002100
000003444440104000
000140143334301300
003A02300002120300
05F803018802030210
1EF70306F620030210
3FF70306E121030210
5FF703068217030210
5FF70306232B030210
5FF70302118C030210
5FF7030031EB030210
5FF7030026E7030210
5FF801230000240300
4FFD10153333200400
3FFFB0210000005200
0DFFA0004678AA1000
04FF9446FFFF900000
01FFFFFFEC94000000
05FFFB100000000000
001220000000000000
ENDCHAR
STARTCHAR Ugrave
ENCODING 217
SWIDTH 846 0
DWIDTH 17 0
BBX 17 22 0 -2
BITMAP
000019998642100000
0002D6001357980000
002EF5033333030000
006FF7000000030000
006FFFDB9764210000
005C3334EFFA333410
02C900009DF7000120
1EF903006EF7030120
3FF903008FF7030120
3FF903008FF7030120
3FF903008FF7030120
3FF903008FF7030120
3FF903008FF7030120
3FF903008FF7030120
3FF903008FF7030120
3FF902104881030120
3FFA00400000220210
3FFE10033333200400
1FFFC2000000005200
0AFFFFC97677AB2000
01CFFFFFFFFF900000
0006BDEFEC94000000
ENDCHAR
STARTCHAR Uacute
ENCODING 218
SWIDTH 846 0
DWIDTH 17 0
BBX 17 22 0 -2
BITMAP
0000000135799A2000
000007986420004000
00009C013333103000
000BFC000000001000
000FFD23578AA20000
001C3334EFFA333410
02C9000066E7000120
1EF903006EF7030120
3FF903008FF7030120
3FF903008FF7030120
3FF903008FF7030120
3FF903008FF7030120
3FF903008FF7030120
3FF903008FF7030120
3FF903008FF7030120
3FF902104881030120
3FFA00400000220210
3FFE10033333200400
1FFFC2000000005200
0AFFFFC97677AB2000
01CFFFFFFFFF900000
0006BDEFEC94000000
ENDCHAR
STARTCHAR Ucircumflex
ENCODING 219
SWIDTH 846 0
DWIDTH 17 0
BBX 17 23 0 -2
BITMAP
000000002331000000
000000120001110000
000026013332011000
0003D8010001012000
001EF927BED9422000
003FFFFFFFFFFD0000
003C3334EFFA333410
02D900005AF7000120
1EF903005EF7030120
3FF903008FF7030120
3FF903008FF7030120
3FF903008FF7030120
3FF903008FF7030120
3FF903008FF7030120
3FF903008FF7030120
3FF903008FF7030120
3FF902103761030120
3FFA00400000220210
3FFE10033333200400
1FFFC2000000005200
0AFFFFC97677AB2000
01CFFFFFFFFF900000
0006BDEFEC94000000
ENDCHAR
STARTCHAR Udieresis
ENCODING 220
SWIDTH 846 0
DWIDTH 17 0
BBX 17 22 0 -2
BITMAP
000014333143332000
0002D1000B40003000
003EF1030C40303000
00AFF1000C40003000
00BFF3001E60010000
00BFCCCDFFFFCCCC10
03E90000DFF7000220
1EF902006DF7020120
3FF903007FF7030120
3FF903008FF7030120
3FF903008FF7030120
3FF903008FF7030120
3FF903008FF7030120
3FF903008FF7030120
3FF903008FF7030120
3FF902104A92030120
3FFA00400000230210
3FFE10033333200300
1FFFB2000000004200
0AFFFFB87677AA2000
01CFFFFFFFFF900000
0006BDEFEC94000000
ENDCHAR
STARTCHAR Yacute
ENCODING 221
SWIDTH 805 0
DWIDTH 16 0
BBX 16 22 0 -2
BITMAP
0000000246899800
0000199753100400
0003D50333330300
003EF50000000100
007FF724679B7000
00773338FFF63334
04E3000359F10003
5FF303036FF10303
9FF30303BFF10303
9FF30303BFF10303
9FF40300CFA00303
9FF701304E203003
8FFE203100021030
6FFFC00400120220
0CFFF90034201300
02EFFF5003004000
005FFFE003031000
0009FFF002030000
0001DFF000030000
0000CFF866650000
0000CFFFFF900000
00009FFFE6000000
ENDCHAR
STARTCHAR Thorn
ENCODING 222
SWIDTH 792 0
DWIDTH 16 0
BBX 16 17 0 -2
BITMAP
0006333330000000
01BA000030000000
0CFA021023333300
1FFA021000000050
1FFA024333331013
1FFA021011004003
1FFA0210CFB01203
1FFA0210CFE01203
1FFA0210CFB01203
1FFA021000004004
1FFA024333331022
1FFA021000000140
1FFA021046669500
1FFA0000CFFE4000
1FFD6666ED920000
1FFFFFE400000000
1DFFFC2000000000
ENDCHAR
STARTCHAR germandbls
ENCODING 223
SWIDTH 859 0
DWIDTH 17 0
BBX 17 17 0 -2
BITMAP
000633333333331000
01BA00000000004000
0CFA00433333103100
1FFA01200000303100
1FFA01208A10303000
1FFA0120CF11204000
1FFA0120CC03001410
1FFA0120C903330030
1FFA0120C900003030
1FFA0120CFFF303030
1FFA0120CFEE203030
1FFA0120C700003030
1FFA0010C602330030
1FFA0000C600000230
1FFD6666EB66679400
1FFFFFFFFFFFFD2000
1DFFFC5FFFFD810000
ENDCHAR
STARTCHAR agrave
ENCODING 224
SWIDTH 830 0
DWIDTH 17 0
BBX 16 22 0 -2
BITMAP
00002BCCB9753100
0003E70113579B00
003FF60133330300
006FF70000000300
006FFFDB98642100
004FFE2000001300
0002990000000300
0004F30233320120
000EC00300030030
005F70212F303030
00BF10307F804003
02FB0120CFC01303
08F8030066600303
0DF6030000000303
3FF6043333333503
5FF6030000000303
6FF60304FFF40303
6FF60204FFF40203
6FF60003AFF40003
6FFB66657FFA6665
6FFFFF907FFFFFA0
4EFFF7004EFFF700
ENDCHAR
STARTCHAR aacute
ENCODING 225
SWIDTH 830 0
DWIDTH 17 0
BBX 16 22 0 -2
BITMAP
0000000246899900
0000199753200400
0002D60233330300
002EF60000000100
006FF824579B8000
006FFF5333333200
005FFA0000000300
0008F40233320120
000ED00300030030
005F80212F303030
00BF20307F804003
02FC0120CFC01303
08F8030066600303
0DF6030000000303
3FF6043333333503
5FF6030000000303
6FF60304FFF40303
6FF60204FFF40203
6FF60003AFF40003
6FFB66657FFA6666
6FFFFF907FFFFFA1
4EFFF7004EFFF700
ENDCHAR
STARTCHAR acircumflex
ENCODING 226
SWIDTH 830 0
DWIDTH 17 0
BBX 16 23 0 -2
BITMAP
0000000033310000
0000013200023200
0000250133310300
0003E60200020300
002EF60269720300
005FFDDFFFFFD700
006FFE2000001300
005FF90000000300
0016E30233320120
000EC00300030030
005F70212F303030
00BF10307F804003
02FB0120CFC01303
08F8030066600303
0DF6030000000303
3FF6043333333503
5FF6030000000303
6FF60304FFF40303
6FF60204FFF40203
6FF60003AFF40003
6FFB66657FFA6665
6FFFFF907FFFFFA0
4EFFF7004EFFF700
ENDCHAR
STARTCHAR atilde
ENCODING 227
SWIDTH 830 0
DWIDTH 17 0
BBX 16 22 0 -2
BITMAP
0000013333324400
0000260000010300
0003E60343200300
002EF60000130300
006FF84764202500
006FFFCAAAAAA100
005FFD0000000300
0017E60233320310
000EF10300030030
005FA0212F303030
00BF40307F804012
02FD0120CFC01303
08F9030066600303
0DF6030000000303
3FF6043333333503
5FF6030000000303
6FF60304FFF40303
6FF60204FFF40203
6FF60003AFF40003
6FFB66657FFA6666
6FFFFF907FFFFFA1
4EFFF7004EFFF800
ENDCHAR
STARTCHAR adieresis
ENCODING 228
SWIDTH 830 0
DWIDTH 17 0
BBX 16 22 0 -2
BITMAP
0000243331433310
0002C0000D200030
003EE0210F103030
00CFE0000F100030
00DFF1002F300130
00DFFFECCCCCD800
00CFFD1000000400
0017F70233320300
000EF10300030030
005FA0212F303030
00BF40307F804012
02FE0120CFC01303
08F9030066600303
0DF6030000000303
3FF6043333333503
5FF6030000000303
6FF60304FFF40303
6FF60204FFF40203
6FF60003AFF40003
6FFB66657FFA6666
6FFFFF907FFFFFB1
4EFFF7004EFFF800
ENDCHAR
STARTCHAR aring
ENCODING 229
SWIDTH 830 0
DWIDTH 17 0
BBX 16 23 0 -2
BITMAP
0000001333332000
0000033000002300
0000570133330300
0006F51315212210
003FF4307FB03120
007FF5306F903210
008FF81300012300
007FFA0133330300
005FF50233320210
001FE00300030030
006F80212F303030
00CF20307F804003
02FC0120CFC01303
08F8030066600303
0EF6030000000303
3FF6043333333503
5FF6030000000303
6FF60304FFF40303
6FF60204FFF40203
6FF60003AFF40003
6FFB66657FFA6666
6FFFFF907FFFFFA1
4EFFF7004EFFF700
ENDCHAR
STARTCHAR ae
ENCODING 230
SWIDTH 1105 0
DWIDTH 22 0
BBX 22 17 0 -2
BITMAP
0000043333333333333334
0000780000000000000003
0009F20233333433333203
003FC00300000300000004
008F60401FF10305FFFFB1
00EF10406FF10303888900
04FB0230BFF10300000300
0AF8040077710411110300
0EF6030000000300000200
4FF6043333333403AA8000
5FF6030000000303994332
6FF60304FFF10300000003
6FF60204FFF10333333203
6FF60003CFF10000000003
6FFB6665AFF86666666663
6FFFFF90AFFFFFFFFFFE40
4EFFF6007FFFFFFFFFD300
ENDCHAR
STARTCHAR ccedilla
ENCODING 231
SWIDTH 728 0
DWIDTH 15 0
BBX 15 20 0 -5
BITMAP
0000133333333410
0002300000000030
004B002333330030
05F8012000000220
0EF70300CFFFF600
3FF70300FFFE4000
5FF7030086620000
5FF7030030000000
5FF7030030000000
5FF7030030000000
5FF7030033333300
5FF9012000000030
4FFE102333430030
2FFFB10002100030
0BFFFFB503038600
02EFFFF3000AA000
0018CFE000270000
00007FFFFE500000
0000CFFFD3000000
0000466610000000
ENDCHAR
STARTCHAR egrave
ENCODING 232
SWIDTH 754 0
DWIDTH 15 0
BBX 15 22 0 -2
BITMAP
0000799875310000
000AA0013468A100
00CFA02333310300
02FFB00000000300
02FFFECA86420100
01FD333333333330
00AA000000000030
0BFA013333332030
1FFA021000000030
1FFA0210DFFFFA10
1FFA021078889000
1FFA021000003000
1FFA024333303000
1FFA021000003000
1FFA0210CEEC2000
1FFA021089943320
1FFA021000000030
1FFA013333332030
1FFA000000000030
1FFD666666666620
1FFFFFFFFFFFE400
0DFFFFFFFFFD3000
ENDCHAR
STARTCHAR eacute
ENCODING 233
SWIDTH 754 0
DWIDTH 15 0
BBX 15 22 0 -2
BITMAP
0000001246899700
00002A9753100300
0004E40333320300
004FF40000000100
008FF624689B6000
008D333333333330
01CA000000000030
0CFA013333332030
1FFA021000000030
1FFA0210DFFFFA10
1FFA021078889000
1FFA021000003000
1FFA024333303000
1FFA021000003000
1FFA0210CEEC2000
1FFA021089943320
1FFA021000000030
1FFA013333332030
1FFA000000000030
1FFD666666666620
1FFFFFFFFFFFE400
1DFFFFFFFFFD3000
ENDCHAR
STARTCHAR ecircumflex
ENCODING 234
SWIDTH 754 0
DWIDTH 15 0
BBX 15 23 0 -2
BITMAP
0000000233200000
0000044100133000
0001A00233200300
002CD01100110300
00CFD00377300300
00EFFAEFFFFEA300
00ED333333333330
04FA000000000030
1EFA013333332030
1FFA021000000030
1FFA0210DFFFFA10
1FFA021078889000
1FFA021000003000
1FFA024333303000
1FFA021000003000
1FFA0210CEEC2000
1FFA021089943320
1FFA021000000030
1FFA013333332030
1FFA000000000030
1FFD666666666620
1FFFFFFFFFFFE400
0DFFFFFFFFFD3000
ENDCHAR
STARTCHAR edieresis
ENCODING 235
SWIDTH 754 0
DWIDTH 15 0
BBX 15 22 0 -2
BITMAP
0000333332333300
000690005B000300
007F80305B030300
03FF80005B000300
03FFA0007C000100
03FFDCCCCCCCCC60
03FB000000000030
07FA013333332030
1FFA021000000030
1FFA0210DFFFFA10
1FFA021078889000
1FFA021000003000
1FFA024333303000
1FFA021000003000
1FFA0210CEEC2000
1FFA021089943320
1FFA021000000030
1FFA013333332030
1FFA000000000030
1FFD666666666620
1FFFFFFFFFFFE400
0DFFFFFFFFFD3000
ENDCHAR
STARTCHAR igrave
ENCODING 236
SWIDTH 705 0
DWIDTH 14 0
BBX 14 22 0 -2
BITMAP
00029997642000
004E3002457960
05FF2033332030
0AFF3000000030
0AFFFDB9753210
09F93333333333
02E50000000003
3EF50233433103
6FF93300301334
6FFFFF10305F80
5FFFFF10305500
033CFF10303000
000BFF10303000
000BFF10303000
000BFF10303000
00099910302332
00960000300003
1BF50333433203
6FF50000000003
6FFB6666666662
6FFFFFFFFFFE30
4FFFFFFFFFC200
ENDCHAR
STARTCHAR iacute
ENCODING 237
SWIDTH 705 0
DWIDTH 14 0
BBX 14 22 0 -2
BITMAP
00000134689960
0003A875310040
005E2033332030
05FF2000000010
0AFF42468AB500
0AF93333333333
09F50000000003
2DF50233433103
6FF93300301334
6FFFFF10305F80
5FFFFF10305500
033CFF10303000
000BFF10303000
000BFF10303000
000BFF10303000
00099910302332
00960000300003
1BF50333433203
6FF50000000003
6FFB6666666662
6FFFFFFFFFFE30
4FFFFFFFFFC200
ENDCHAR
STARTCHAR icircumflex
ENCODING 238
SWIDTH 705 0
DWIDTH 14 0
BBX 14 23 0 -2
BITMAP
00000013330000
00001320003310
00043013330030
005F2020002030
05FF2026851030
09FFBDFFFFFB50
0AF93333333333
09F50000000003
2DF50233433103
6FF93300301334
6FFFFF10305F80
5FFFFF10305500
033CFF10303000
000BFF10303000
000BFF10303000
000BFF10303000
00099910302332
00960000300003
1BF50333433203
6FF50000000003
6FFB6666666662
6FFFFFFFFFFE30
4FFFFFFFFFC200
ENDCHAR
STARTCHAR idieresis
ENCODING 239
SWIDTH 705 0
DWIDTH 14 0
BBX 14 22 0 -2
BITMAP
00033333233340
005A0003C00012
06FA0304D03012
1FFA0004D00012
2FFC0005E10010
2FFECCCCCCCCC6
1FF60000000003
1CF50233433103
6FF93300301334
6FFFFF10305F80
5FFFFF10305500
033CFF10303000
000BFF10303000
000BFF10303000
000BFF10303000
00099910302332
00960000300003
1BF50333433203
6FF50000000003
6FFB6666666662
6FFFFFFFFFFE30
4FFFFFFFFFC200
ENDCHAR
STARTCHAR eth
ENCODING 240
SWIDTH 856 0
DWIDTH 17 0
BBX 18 17 -1 -2
BITMAP
000063333333333300
0009D0000000000040
00AFD0043333330012
00EFD0030000004002
00EFD0030AFF802003
00EFA00307CFB01103
00EB0003002FB01103
06FB0235301FB01103
1FFB0003002FB01103
1FFE700305AFB01103
1FFFD00307FF802103
08FFD0030000004003
00EFD0043333331021
00EFD0000000000130
00EFF6666666679400
00EFFFFFFFFFFE3000
00BFFFFFFFED810000
ENDCHAR
STARTCHAR ntilde
ENCODING 241
SWIDTH 853 0
DWIDTH 17 0
BBX 17 22 0 -2
BITMAP
000000333332450000
000018000001103000
0002D9024321003000
001EF9000013102000
002FFB377520200000
002D3339FFFB333410
01BA0000AEF8000030
0DFA03400BF8030030
1FFA030301D8030030
1FFA03013027030030
1FFA03001200030030
1FFA03000220030030
1FFA03003021030030
1FFA0300C203130030
1FFA0300DD10330030
1FFA0300DFB0050030
1FFA0300DFF7030030
1FFA0300DFF8020030
1FFA0000AFF8000030
1FFD66666FFC666610
1FFFFFD24FFFFFC100
1DFFFB102EFFF90000
ENDCHAR
STARTCHAR ograve
ENCODING 242
SWIDTH 837 0
DWIDTH 17 0
BBX 17 23 0 -2
BITMAP
000001310000000000
00003DCEECA8730000
0005F70244579C0000
003FF7000233031000
005FF8000000020000
005FFFB63012120000
001AC3000000015100
000810033333100300
01B900400000320300
0BF703002430030210
2FF70300EFF4030210
4FF70300FFF5030210
5FF70300CFF5030210
5FF703009FF5030210
5FF703009FF5030210
5FF703009FF5030210
5FF703009FE3030210
5FF800400000220300
4FFD00033333100400
2FFFB2000000005100
0CFFFFB87678AA1000
02DFFFFFFFFF800000
0016BEFFEC93000000
ENDCHAR
STARTCHAR oacute
ENCODING 243
SWIDTH 837 0
DWIDTH 17 0
BBX 17 23 0 -2
BITMAP
000000000000220000
00000268ACDFDD0000
00004D975443031000
0006F7023210020000
004FF7000000040000
005FF9021025520000
005FC3000000014100
001D10033333100300
01B900400000320300
0BF703002430030210
2FF70300EFF4030210
4FF70300FFF5030210
5FF70300CFF5030210
5FF703009FF5030210
5FF703009FF5030210
5FF703009FF5030210
5FF703009FE3030210
5FF800400000220300
4FFD00033333100400
2FFFB2000000005100
0CFFFFB87678AA1000
02DFFFFFFFFF800000
0016BEFFEC93000000
ENDCHAR
STARTCHAR ocircumflex
ENCODING 244
SWIDTH 837 0
DWIDTH 17 0
BBX 17 23 0 -2
BITMAP
000000003331000000
000001220002320000
000046013332030000
0006F7010101021000
003FF848DFEA540000
005FFE965445871000
005F91000000003200
002C00033333100300
01B800400000320300
0BF703002430030210
2FF70300EFF4030210
4FF70300FFF5030210
5FF70300CFF5030210
5FF703009FF5030210
5FF703009FF5030210
5FF703009FF5030210
5FF703009FE3030210
5FF900400000220300
4FFD10033333100400
2FFFB2000000004100
0CFFFFB87678A91000
02DFFFFFFFFF800000
0016BEFFEC93000000
ENDCHAR
STARTCHAR otilde
ENCODING 245
SWIDTH 837 0
DWIDTH 17 0
BBX 17 22 0 -2
BITMAP
000001333332450000
000037000001030000
0005E7034320030000
003FF7000013030000
005FF9477420230000
005FFD864345741000
001E80033333103200
01BC00400000320300
0BF803002430030200
2FF70300EFF4030210
4FF70300FFF5030210
5FF70300CFF5030210
5FF703009FF5030210
5FF703009FF5030210
5FF703009FF5030210
5FF703009FE3030210
5FF800400000220300
4FFD00033333100400
2FFFA1000000005200
0CFFFFB87678AA1000
02DFFFFFFFFF900000
0016BEFFEC94000000
ENDCHAR
STARTCHAR odieresis
ENCODING 246
SWIDTH 837 0
DWIDTH 17 0
BBX 17 22 0 -2
BITMAP
000014333143332000
0003D0000D30003000
005FF0120E20303000
00CFF0000E20003000
00CFF2001F40002000
00CFFFDA9889BA0000
003DB3033333115200
01BD00400000320400
0BF803002430030300
2FF70300EFF4030210
4FF70300FFF5030210
5FF70300CFF5030210
5FF703009FF5030210
5FF703009FF5030210
5FF703009FF5030210
5FF703009FE3030210
5FF800400000220300
4FFC00033333100400
2FFFA1000000005200
0CFFFFB87678AB2000
02DFFFFFFFFF900000
0016BEFFEC94000000
ENDCHAR
STARTCHAR divide
ENCODING 247
SWIDTH 834 0
DWIDTH 17 0
BBX 16 16 0 -2
BITMAP
0000000433330000
000000A500013000
00001BF403003000
00007FF400003000
00007FF933341000
0003699999963333
006A000000000003
08FB023333333203
1FFC000000000002
1FFFEEEDCCCDEE80
1FFFFFF50001F700
01223DF402004000
00007FF400003000
00007FFA66651000
00007FFFFFB10000
00005FFFF9000000
ENDCHAR
STARTCHAR oslash
ENCODING 248
SWIDTH 837 0
DWIDTH 17 0
BBX 17 21 0 -4
BITMAP
000000000003334100
000000000043002100
000003444440104000
000140143334301300
003A02300002120300
05F803018802030210
1EF70306F620030210
3FF70306E121030210
5FF703068217030210
5FF70306232B030210
5FF70302118C030210
5FF7030031EB030210
5FF7030026E7030210
5FF801230000240300
4FFD10153333200400
3FFFB0210000005200
0DFFA0004678AA1000
04FF9446FFFF900000
01FFFFFFEC94000000
05FFFB100000000000
001220000000000000
ENDCHAR
STARTCHAR ugrave
ENCODING 249
SWIDTH 846 0
DWIDTH 17 0
BBX 17 22 0 -2
BITMAP
000019998642100000
0002D6001357980000
002EF5033333030000
006FF7000000030000
006FFFDB9764210000
005C3334EFFA333410
02C900009DF7000120
1EF903006EF7030120
3FF903008FF7030120
3FF903008FF7030120
3FF903008FF7030120
3FF903008FF7030120
3FF903008FF7030120
3FF903008FF7030120
3FF903008FF7030120
3FF902104881030120
3FFA00400000220210
3FFE10033333200400
1FFFC2000000005200
0AFFFFC97677AB2000
01CFFFFFFFFF900000
0006BDEFEC94000000
ENDCHAR
STARTCHAR uacute
ENCODING 250
SWIDTH 846 0
DWIDTH 17 0
BBX 17 22 0 -2
BITMAP
0000000135799A2000
000007986420004000
00009C013333103000
000BFC000000001000
000FFD23578AA20000
001C3334EFFA333410
02C9000066E7000120
1EF903006EF7030120
3FF903008FF7030120
3FF903008FF7030120
3FF903008FF7030120
3FF903008FF7030120
3FF903008FF7030120
3FF903008FF7030120
3FF903008FF7030120
3FF902104881030120
3FFA00400000220210
3FFE10033333200400
1FFFC2000000005200
0AFFFFC97677AB2000
01CFFFFFFFFF900000
0006BDEFEC94000000
ENDCHAR
STARTCHAR ucircumflex
ENCODING 251
SWIDTH 846 0
DWIDTH 17 0
BBX 17 23 0 -2
BITMAP
000000002331000000
000000120001110000
000026013332011000
0003D8010001012000
001EF927BED9422000
003FFFFFFFFFFD0000
003C3334EFFA333410
02D900005AF7000120
1EF903005EF7030120
3FF903008FF7030120
3FF903008FF7030120
3FF903008FF7030120
3FF903008FF7030120
3FF903008FF7030120
3FF903008FF7030120
3FF903008FF7030120
3FF902103761030120
3FFA00400000220210
3FFE10033333200400
1FFFC2000000005200
0AFFFFC97677AB2000
01CFFFFFFFFF900000
0006BDEFEC94000000
ENDCHAR
STARTCHAR udieresis
ENCODING 252
SWIDTH 846 0
DWIDTH 17 0
BBX 17 22 0 -2
BITMAP
000014333143332000
0002D1000B40003000
003EF1030C40303000
00AFF1000C40003000
00BFF3001E60010000
00BFCCCDFFFFCCCC10
03E90000DFF7000220
1EF902006DF7020120
3FF903007FF7030120
3FF903008FF7030120
3FF903008FF7030120
3FF903008FF7030120
3FF903008FF7030120
3FF903008FF7030120
3FF903008FF7030120
3FF902104A92030120
3FFA00400000230210
3FFE10033333200300
1FFFB2000000004200
0AFFFFB87677AA2000
01CFFFFFFFFF900000
0006BDEFEC94000000
ENDCHAR
STARTCHAR yacute
ENCODING 253
SWIDTH 805 0
DWIDTH 16 0
BBX 16 22 0 -2
BITMAP
0000000246899800
0000199753100400
0003D50333330300
003EF50000000100
007FF724679B7000
00773338FFF63334
04E3000359F10003
5FF303036FF10303
9FF30303BFF10303
9FF30303BFF10303
9FF40300CFA00303
9FF701304E203003
8FFE203100021030
6FFFC00400120220
0CFFF90034201300
02EFFF5003004000
005FFFE003031000
0009FFF002030000
0001DFF000030000
0000CFF866650000
0000CFFFFF900000
00009FFFE6000000
ENDCHAR
STARTCHAR thorn
ENCODING 254
SWIDTH 792 0
DWIDTH 16 0
BBX 16 17 0 -2
BITMAP
0006333330000000
01BA000030000000
0CFA021023333300
1FFA021000000050
1FFA024333331013
1FFA021011004003
1FFA0210CFB01203
1FFA0210CFE01203
1FFA0210CFB01203
1FFA021000004004
1FFA024333331022
1FFA021000000140
1FFA021046669500
1FFA0000CFFE4000
1FFD6666ED920000
1FFFFFE400000000
1DFFFC2000000000
ENDCHAR
STARTCHAR ydieresis
ENCODING 255
SWIDTH 805 0
DWIDTH 16 0
BBX 16 22 0 -2
BITMAP
0000333332333400
0006A0003C000120
008FA0304D030120
02FFA0004D000120
02FFC0005E100100
02FECCCEFFFECCC8
05F40005FFF20004
5FF301037FF10103
9FF30303AFF10303
9FF30303BFF10303
9FF30301CFC00303
9FF602206F303002
8FFD103101022010
5FFFB00400130110
0CFFF70034200200
02EFFF4003003000
005FFFE003021000
0009FFF002030000
0001DFF000030000
0000CFF866650000
0000CFFFFF900000
00009FFFE6000000
ENDCHAR
STARTCHAR Amacron
ENCODING 256
SWIDTH 830 0
DWIDTH 17 0
BBX 16 22 0 -2
BITMAP
0000033333333400
0000760000000300
0007F60233330300
004FF60000000300
006FF80000000300
006FFFECCCCCD300
004FFD1000000400
0006F70233320300
000EF10300030030
005FA0212F303030
00BF40307F804012
02FE0120CFC01303
08F9030066600303
0DF6030000000303
3FF6043333333503
5FF6030000000303
6FF60304FFF40303
6FF60204FFF40203
6FF60003AFF40003
6FFB66657FFA6666
6FFFFF907FFFFFB1
4EFFF7004EFFF800
ENDCHAR
STARTCHAR amacron
ENCODING 257
SWIDTH 830 0
DWIDTH 17 0
BBX 16 22 0 -2
BITMAP
0000033333333400
0000760000000300
0007F60233330300
004FF60000000300
006FF80000000300
006FFFECCCCCD300
004FFD1000000400
0006F70233320300
000EF10300030030
005FA0212F303030
00BF40307F804012
02FE0120CFC01303
08F9030066600303
0DF6030000000303
3FF6043333333503
5FF6030000000303
6FF60304FFF40303
6FF60204FFF40203
6FF60003AFF40003
6FFB66657FFA6666
6FFFFF907FFFFFB1
4EFFF7004EFFF800
ENDCHAR
STARTCHAR Abreve
ENCODING 258
SWIDTH 830 0
DWIDTH 17 0
BBX 16 23 0 -2
BITMAP
0000033330333400
0000940045B00120
0009F4204B602120
006FF61300023200
008FFB0133320000
007FFFB410130000
003FFFCAAAAAA400
0007ED0000000600
0004E70233320420
000EF10300030050
005FA0212F303050
00BF40307F804014
02FD0120CFC01305
08F9030066600304
0DF6030000000303
3FF6043333333503
5FF6030000000303
6FF60304FFF40303
6FF60204FFF40203
6FF60003AFF40003
6FFB66657FFA6666
6FFFFF907FFFFFA1
4EFFF7004EFFF700
ENDCHAR
STARTCHAR abreve
ENCODING 259
SWIDTH 830 0
DWIDTH 17 0
BBX 16 23 0 -2
BITMAP
0000033330333400
0000940045B00120
0009F4204B602120
006FF61300023200
008FFB0133320000
007FFFB410130000
003FFFCAAAAAA400
0007ED0000000600
0004E70233320420
000EF10300030050
005FA0212F303050
00BF40307F804014
02FD0120CFC01305
08F9030066600304
0DF6030000000303
3FF6043333333503
5FF6030000000303
6FF60304FFF40303
6FF60204FFF40203
6FF60003AFF40003
6FFB66657FFA6666
6FFFFF907FFFFFA1
4EFFF7004EFFF700
ENDCHAR
STARTCHAR Aogonek
ENCODING 260
SWIDTH 830 0
DWIDTH 17 0
BBX 16 21 0 -6
BITMAP
0000033333333200
0000490000000300
0004E40233320120
000ED00300030030
005F80212F303030
00BF20307F804003
02FC0120CFC01303
08F8030066600303
0DF6030000000303
3FF6043333333503
5FF6030000000303
6FF60304FFF40303
6FF60204FFF40403
6FF60003AFF42103
6FFB66657FF23024
6FFFFF907FE03034
4EFFF7009FD03303
00000000CFF10003
00000000DFFC7665
00000000BFFFFFA1
000000003CFFF800
ENDCHAR
STARTCHAR aogonek
ENCODING 261
SWIDTH 830 0
DWIDTH 17 0
BBX 16 21 0 -6
BITMAP
0000033333333200
0000490000000300
0004E40233320120
000ED00300030030
005F80212F303030
00BF20307F804003
02FC0120CFC01303
08F8030066600303
0DF6030000000303
3FF6043333333503
5FF6030000000303
6FF60304FFF40303
6FF60204FFF40403
6FF60003AFF42103
6FFB66657FF23024
6FFFFF907FE03034
4EFFF7009FD03303
00000000CFF10003
00000000DFFC7665
00000000BFFFFFA1
000000003CFFF800
ENDCHAR
STARTCHAR Cacute
ENCODING 262
SWIDTH 728 0
DWIDTH 15 0
BBX 15 22 0 -2
BITMAP
0000000245799A10
0000089764200130
0001B90233331030
001DF90000000010
003FFB23579B9100
003FFB6433333410
002F600000000030
001A002333330030
02D8012000000220
0CF70300BFFFF600
2FF70300FFFE4000
4FF7030086620000
5FF7030030000000
5FF7030030000000
5FF7030030000000
5FF7030033333300
5FF8012000000130
4FFD002333330030
2FFF800000000030
0CFFFD9666666510
03EFFFFFFFFFB100
0029DFFFFFF90000
ENDCHAR
STARTCHAR cacute
ENCODING 263
SWIDTH 728 0
DWIDTH 15 0
BBX 15 22 0 -2
BITMAP
0000000245799A10
0000089764200130
0001B90233331030
001DF90000000010
003FFB23579B9100
003FFB6433333410
002F600000000030
001A002333330030
02D8012000000220
0CF70300BFFFF600
2FF70300FFFE4000
4FF7030086620000
5FF7030030000000
5FF7030030000000
5FF7030030000000
5FF7030033333300
5FF8012000000130
4FFD002333330030
2FFF800000000030
0CFFFD9666666510
03EFFFFFFFFFB100
0029DFFFFFF90000
ENDCHAR
STARTCHAR Ccircumflex
ENCODING 264
SWIDTH 728 0
DWIDTH 15 0
BBX 15 23 0 -2
BITMAP
0000000133200000
0000023200133000
0000610233300300
0007F01200120300
007FF00378400300
00CFFADFFFFEB400
00CFFB6433333410
00BF600000000030
004A002333330030
02D8012000000220
0CF70300BFFFF600
3FF70300FFFE4000
4FF7030086620000
5FF7030030000000
5FF7030030000000
5FF7030030000000
5FF7030033333300
5FF8012000000130
4FFD002333330030
2FFF800000000030
0CFFFD9666666510
03EFFFFFFFFFB100
0029DFFFFFF90000
ENDCHAR
STARTCHAR ccircumflex
ENCODING 265
SWIDTH 728 0
DWIDTH 15 0
BBX 15 23 0 -2
BITMAP
0000000133200000
0000023200133000
0000610233300300
0007F01200120300
007FF00378400300
00CFFADFFFFEB400
00CFFB6433333410
00BF600000000030
004A002333330030
02D8012000000220
0CF70300BFFFF600
3FF70300FFFE4000
4FF7030086620000
5FF7030030000000
5FF7030030000000
5FF7030030000000
5FF7030033333300
5FF8012000000130
4FFD002333330030
2FFF800000000030
0CFFFD9666666510
03EFFFFFFFFFB100
0029DFFFFFF90000
ENDCHAR
STARTCHAR Cdotaccent
ENCODING 266
SWIDTH 728 0
DWIDTH 15 0
BBX 15 22 0 -2
BITMAP
0000001433330000
000001C200030000
00003DF203030000
0000AFF201030000
0000AFF400010000
0000AB6433333410
0001400000000030
003A002333330030
04E8012000000220
0DF70300BFFFF600
3FF70300FFFE4000
4FF7030086620000
5FF7030030000000
5FF7030030000000
5FF7030030000000
5FF7030033333300
5FF8012000000130
4FFD002333330030
2FFF800000000030
0CFFFD9666666510
03EFFFFFFFFFB100
0029DFFFFFF90000
ENDCHAR
STARTCHAR cdotaccent
ENCODING 267
SWIDTH 728 0
DWIDTH 15 0
BBX 15 22 0 -2
BITMAP
0000001433330000
000001C200030000
00003DF203030000
0000AFF201030000
0000AFF400010000
0000AB6433333410
0001400000000030
003A002333330030
04E8012000000220
0DF70300BFFFF600
3FF70300FFFE4000
4FF7030086620000
5FF7030030000000
5FF7030030000000
5FF7030030000000
5FF7030033333300
5FF8012000000130
4FFD002333330030
2FFF800000000030
0CFFFD9666666510
03EFFFFFFFFFB100
0029DFFFFFF90000
ENDCHAR
STARTCHAR Ccaron
ENCODING 268
SWIDTH 728 0
DWIDTH 15 0
BBX 15 23 0 -2
BITMAP
0000041000023300
0000702023310300
0009F01200020300
009FF00233300200
00CFF91000002000
00CFFFF9317A1000
008FFB6433333410
0003500000000030
0029002333330030
03E8012000000220
0DF70300BFFFF600
3FF70300FFFE4000
4FF7030086620000
5FF7030030000000
5FF7030030000000
5FF7030030000000
5FF7030033333300
5FF8012000000130
4FFD002333330030
2FFF800000000030
0CFFFD9666666510
03EFFFFFFFFFB100
0029DFFFFFF90000
ENDCHAR
STARTCHAR ccaron
ENCODING 269
SWIDTH 728 0
DWIDTH 15 0
BBX 15 23 0 -2
BITMAP
0000041000023300
0000702023310300
0009F01200020300
009FF00233300200
00CFF91000002000
00CFFFF9317A1000
008FFB6433333410
0003500000000030
0029002333330030
03E8012000000220
0DF70300BFFFF600
3FF70300FFFE4000
4FF7030086620000
5FF7030030000000
5FF7030030000000
5FF7030030000000
5FF7030033333300
5FF8012000000130
4FFD002333330030
2FFF800000000030
0CFFFD9666666510
03EFFFFFFFFFB100
0029DFFFFFF90000
ENDCHAR
STARTCHAR Dcaron
ENCODING 270
SWIDTH 846 0
DWIDTH 17 0
BBX 17 23 0 -2
BITMAP
000002400001340000
000026121333012000
0003E8020002012000
002FF9003332011000
003FFE500000210000
003FFFFD6139500000
001B22222222334000
01BA00000000001400
0CFA01333333300310
1FFA02100000040030
1FFA02108BA4030030
1FFA0210CFF8030030
1FFA0210BFF8030030
1FFA02107FF8030030
1FFA02107FF8030030
1FFA02107FF8030030
1FFA02105992030030
1FFA02100000040120
1FFA01333333300300
1FFA00000000002200
1FFD66666666793000
1FFFFFFFFFFFC20000
1DFFFFFFFEC7000000
ENDCHAR
STARTCHAR dcaron
ENCODING 271
SWIDTH 846 0
DWIDTH 17 0
BBX 17 23 0 -2
BITMAP
000002400001340000
000026121333012000
0003E8020002012000
002FF9003332011000
003FFE500000210000
003FFFFD6139500000
001B22222222334000
01BA00000000001400
0CFA01333333300310
1FFA02100000040030
1FFA02108BA4030030
1FFA0210CFF8030030
1FFA0210BFF8030030
1FFA02107FF8030030
1FFA02107FF8030030
1FFA02107FF8030030
1FFA02105992030030
1FFA02100000040120
1FFA01333333300300
1FFA00000000002200
1FFD66666666793000
1FFFFFFFFFFFC20000
1DFFFFFFFEC7000000
ENDCHAR
STARTCHAR Dcroat
ENCODING 272
SWIDTH 856 0
DWIDTH 17 0
BBX 18 17 -1 -2
BITMAP
000063333333333300
0009D0000000000040
00AFD0043333330012
00EFD0030000004002
00EFD0030AFF802003
00EFA00307CFB01103
00EB0003002FB01103
06FB0235301FB01103
1FFB0003002FB01103
1FFE700305AFB01103
1FFFD00307FF802103
08FFD0030000004003
00EFD0043333331021
00EFD0000000000130
00EFF6666666679400
00EFFFFFFFFFFE3000
00BFFFFFFFED810000
ENDCHAR
STARTCHAR dcroat
ENCODING 273
SWIDTH 856 0
DWIDTH 17 0
BBX 18 17 -1 -2
BITMAP
000063333333333300
0009D0000000000040
00AFD0043333330012
00EFD0030000004002
00EFD0030AFF802003
00EFA00307CFB01103
00EB0003002FB01103
06FB0235301FB01103
1FFB0003002FB01103
1FFE700305AFB01103
1FFFD00307FF802103
08FFD0030000004003
00EFD0043333331021
00EFD0000000000130
00EFF6666666679400
00EFFFFFFFFFFE3000
00BFFFFFFFED810000
ENDCHAR
STARTCHAR Emacron
ENCODING 274
SWIDTH 754 0
DWIDTH 15 0
BBX 15 22 0 -2
BITMAP
0000243333334200
0002B00000000300
002DD01333310300
00DFD00000000300
00EFE10000001000
00ED333333333330
00EA000000000030
0AFA013333332030
1FFA021000000030
1FFA0210DFFFFA10
1FFA021078889000
1FFA021000003000
1FFA024333303000
1FFA021000003000
1FFA0210CEEC2000
1FFA021089943320
1FFA021000000030
1FFA013333332030
1FFA000000000030
1FFD666666666620
1FFFFFFFFFFFE400
0DFFFFFFFFFD3000
ENDCHAR
STARTCHAR emacron
ENCODING 275
SWIDTH 754 0
DWIDTH 15 0
BBX 15 22 0 -2
BITMAP
0000243333334200
0002B00000000300
002DD01333310300
00DFD00000000300
00EFE10000001000
00ED333333333330
00EA000000000030
0AFA013333332030
1FFA021000000030
1FFA0210DFFFFA10
1FFA021078889000
1FFA021000003000
1FFA024333303000
1FFA021000003000
1FFA0210CEEC2000
1FFA021089943320
1FFA021000000030
1FFA013333332030
1FFA000000000030
1FFD666666666620
1FFFFFFFFFFFE400
0DFFFFFFFFFD3000
ENDCHAR
STARTCHAR Ebreve
ENCODING 276
SWIDTH 754 0
DWIDTH 15 0
BBX 15 23 0 -2
BITMAP
0000133310433300
0002C00049700300
002DE0208B311300
00CFF14100040200
00DFF60333310000
00CFFF8310130000
008D333333333330
009A000000000030
0BFA013333332030
1FFA021000000030
1FFA0210DFFFFA10
1FFA021078889000
1FFA021000003000
1FFA024333303000
1FFA021000003000
1FFA0210CEEC2000
1FFA021089943320
1FFA021000000030
1FFA013333332030
1FFA000000000030
1FFD666666666620
1FFFFFFFFFFFE400
0DFFFFFFFFFD3000
ENDCHAR
STARTCHAR ebreve
ENCODING 277
SWIDTH 754 0
DWIDTH 15 0
BBX 15 23 0 -2
BITMAP
0000133310433300
0002C00049700300
002DE0208B311300
00CFF14100040200
00DFF60333310000
00CFFF8310130000
008D333333333330
009A000000000030
0BFA013333332030
1FFA021000000030
1FFA0210DFFFFA10
1FFA021078889000
1FFA021000003000
1FFA024333303000
1FFA021000003000
1FFA0210CEEC2000
1FFA021089943320
1FFA021000000030
1FFA013333332030
1FFA000000000030
1FFD666666666620
1FFFFFFFFFFFE400
0DFFFFFFFFFD3000
ENDCHAR
STARTCHAR Edotaccent
ENCODING 278
SWIDTH 754 0
DWIDTH 15 0
BBX 15 22 0 -2
BITMAP
0000003333310000
0000088000030000
0000BF8030030000
0004FF8010030000
0004FFA000200000
0007333333333330
01BA000000000030
0DFA013333332030
1FFA021000000030
1FFA0210DFFFFA10
1FFA021078889000
1FFA021000003000
1FFA024333303000
1FFA021000003000
1FFA0210CEEC2000
1FFA021089943320
1FFA021000000030
1FFA013333332030
1FFA000000000030
1FFD666666666620
1FFFFFFFFFFFE400
1DFFFFFFFFFD3000
ENDCHAR
STARTCHAR edotaccent
ENCODING 279
SWIDTH 754 0
DWIDTH 15 0
BBX 15 22 0 -2
BITMAP
0000003333310000
0000088000030000
0000BF8030030000
0004FF8010030000
0004FFA000200000
0007333333333330
01BA000000000030
0DFA013333332030
1FFA021000000030
1FFA0210DFFFFA10
1FFA021078889000
1FFA021000003000
1FFA024333303000
1FFA021000003000
1FFA0210CEEC2000
1FFA021089943320
1FFA021000000030
1FFA013333332030
1FFA000000000030
1FFD666666666620
1FFFFFFFFFFFE400
1DFFFFFFFFFD3000
ENDCHAR
STARTCHAR Eogonek
ENCODING 280
SWIDTH 754 0
DWIDTH 15 0
BBX 15 21 0 -6
BITMAP
0006333333333330
01BA000000000030
0CFA013333332030
1FFA021000000030
1FFA0210DFFFFA10
1FFA021078889000
1FFA021000003000
1FFA024333303000
1FFA021000003000
1FFA0210CEEC2000
1FFA021089943320
1FFA021000000030
1FFA013333342030
1FFA000000030030
1FFD666664030630
1FFFFFFFF8031730
1DFFFFFFF7042030
0000003FFA000030
0000004FFF966620
0000003FFFFFE500
00000009EFFE3000
ENDCHAR
STARTCHAR eogonek
ENCODING 281
SWIDTH 754 0
DWIDTH 15 0
BBX 15 21 0 -6
BITMAP
0006333333333330
01BA000000000030
0CFA013333332030
1FFA021000000030
1FFA0210DFFFFA10
1FFA021078889000
1FFA021000003000
1FFA024333303000
1FFA021000003000
1FFA0210CEEC2000
1FFA021089943320
1FFA021000000030
1FFA013333342030
1FFA000000030030
1FFD666664030630
1FFFFFFFF8031730
1DFFFFFFF7042030
0000003FFA000030
0000004FFF966620
0000003FFFFFE500
00000009EFFE3000
ENDCHAR
STARTCHAR Ecaron
ENCODING 282
SWIDTH 754 0
DWIDTH 15 0
BBX 15 23 0 -2
BITMAP
0000041000033300
0000702023310300
000AF01100020300
00AFF00233300200
00CFF91000002000
00CFFFF921791000
008D333333333330
009A000000000030
0BFA013333332030
1FFA021000000030
1FFA0210DFFFFA10
1FFA021078889000
1FFA021000003000
1FFA024333303000
1FFA021000003000
1FFA0210CEEC2000
1FFA021089943320
1FFA021000000030
1FFA013333332030
1FFA000000000030
1FFD666666666620
1FFFFFFFFFFFE400
0DFFFFFFFFFD3000
ENDCHAR
STARTCHAR ecaron
ENCODING 283
SWIDTH 754 0
DWIDTH 15 0
BBX 15 23 0 -2
BITMAP
0000041000033300
0000702023310300
000AF01100020300
00AFF00233300200
00CFF91000002000
00CFFFF921791000
008D333333333330
009A000000000030
0BFA013333332030
1FFA021000000030
1FFA0210DFFFFA10
1FFA021078889000
1FFA021000003000
1FFA024333303000
1FFA021000003000
1FFA0210CEEC2000
1FFA021089943320
1FFA021000000030
1FFA013333332030
1FFA000000000030
1FFD666666666620
1FFFFFFFFFFFE400
0DFFFFFFFFFD3000
ENDCHAR
STARTCHAR Gcircumflex
ENCODING 284
SWIDTH 808 0
DWIDTH 16 0
BBX 16 23 0 -2
BITMAP
0000000023320000
0000002210013300
0000070033320130
0001BB0210011030
000BFB0158840030
001FFEBFFFFFEA10
001FF83100000130
001F400000000030
0019002333331030
02D8012000000130
0CF70300CFFFF600
2FF70300FFFE4000
4FF7030086853332
5FF7030033C00003
5FF703008ED00203
5FF70300FFD00303
5FF7030068700303
5FF8023000000303
4FFD002333333203
2FFF900000000003
0CFFFD9666666662
03EFFFFFFFFFFE40
0029DFFFFFFFD300
ENDCHAR
STARTCHAR gcircumflex
ENCODING 285
SWIDTH 808 0
DWIDTH 16 0
BBX 16 23 0 -2
BITMAP
0000000023320000
0000002210013300
0000070033320130
0001BB0210011030
000BFB0158840030
001FFEBFFFFFEA10
001FF83100000130
001F400000000030
0019002333331030
02D8012000000130
0CF70300CFFFF600
2FF70300FFFE4000
4FF7030086853332
5FF7030033C00003
5FF703008ED00203
5FF70300FFD00303
5FF7030068700303
5FF8023000000303
4FFD002333333203
2FFF900000000003
0CFFFD9666666662
03EFFFFFFFFFFE40
0029DFFFFFFFD300
ENDCHAR
STARTCHAR Gbreve
ENCODING 286
SWIDTH 808 0
DWIDTH 16 0
BBX 16 23 0 -2
BITMAP
0000033330233310
0000770033D00030
0007F7022B902030
004FF80400014020
005FFD1133330000
004FFFC510121000
001EFB6433333320
0004600000000030
0029002333331030
03E8012000000130
0DF70300CFFFF700
3FF70300FFFE5000
4FF7030086853332
5FF7030033C00003
5FF703008ED00203
5FF70300FFD00303
5FF7030068700303
5FF8023000000303
4FFD002333333203
2FFF800000000003
0CFFFD9666666662
03EFFFFFFFFFFE40
0029DFFFFFFFD300
ENDCHAR
STARTCHAR gbreve
ENCODING 287
SWIDTH 808 0
DWIDTH 16 0
BBX 16 23 0 -2
BITMAP
0000033330233310
0000770033D00030
0007F7022B902030
004FF80400014020
005FFD1133330000
004FFFC510121000
001EFB6433333320
0004600000000030
0029002333331030
03E8012000000130
0DF70300CFFFF700
3FF70300FFFE5000
4FF7030086853332
5FF7030033C00003
5FF703008ED00203
5FF70300FFD00303
5FF7030068700303
5FF8023000000303
4FFD002333333203
2FFF800000000003
0CFFFD9666666662
03EFFFFFFFFFFE40
0029DFFFFFFFD300
ENDCHAR
STARTCHAR Gdotaccent
ENCODING 288
SWIDTH 808 0
DWIDTH 16 0
BBX 16 22 0 -2
BITMAP
0000000333331000
0000008800003000
00000AF803003000
00004FF801003000
00004FF900020000
00004B6433333320
0001200000000030
003A002333331030
03E8012000000130
0DF70300CFFFF700
3FF70300FFFE5000
4FF7030086853332
5FF7030033C00003
5FF703008ED00203
5FF70300FFD00303
5FF7030068700303
5FF8023000000303
4FFD002333333203
2FFF800000000003
0CFFFD9666666662
03EFFFFFFFFFFE40
0029DFFFFFFFD300
ENDCHAR
STARTCHAR gdotaccent
ENCODING 289
SWIDTH 808 0
DWIDTH 16 0
BBX 16 22 0 -2
BITMAP
0000000333331000
0000008800003000
00000AF803003000
00004FF801003000
00004FF900020000
00004B6433333320
0001200000000030
003A002333331030
03E8012000000130
0DF70300CFFFF700
3FF70300FFFE5000
4FF7030086853332
5FF7030033C00003
5FF703008ED00203
5FF70300FFD00303
5FF7030068700303
5FF8023000000303
4FFD002333333203
2FFF800000000003
0CFFFD9666666662
03EFFFFFFFFFFE40
0029DFFFFFFFD300
ENDCHAR
STARTCHAR Gcommaaccent
ENCODING 290
SWIDTH 808 0
DWIDTH 16 0
BBX 16 24 0 -9
BITMAP
0000133333333320
0002302333331030
004A013000000030
05F8030036666720
0EF70300EFFFD300
3FF70300FFFB1000
5FF7030030233332
5FF7030033C00003
5FF703008ED00203
5FF70300FFD00303
5FF7030068700303
5FFA014000000303
4FFF202333333203
2FFFE62000000004
0CFFFFFFDDDDEEE5
03EFFFF80000EE40
0029DFF71330C300
00001CF700303000
00005FF800303000
00005FFFC9303000
00004FFB13241000
00000BFD77840000
00001FFFFD200000
00000DFE91000000
ENDCHAR
STARTCHAR gcommaaccent
ENCODING 291
SWIDTH 808 0
DWIDTH 16 0
BBX 16 24 0 -9
BITMAP
0000133333333320
0002302333331030
004A013000000030
05F8030036666720
0EF70300EFFFD300
3FF70300FFFB1000
5FF7030030233332
5FF7030033C00003
5FF703008ED00203
5FF70300FFD00303
5FF7030068700303
5FFA014000000303
4FFF202333333203
2FFFE62000000004
0CFFFFFFDDDDEEE5
03EFFFF80000EE40
0029DFF71330C300
00001CF700303000
00005FF800303000
00005FFFC9303000
00004FFB13241000
00000BFD77840000
00001FFFFD200000
00000DFE91000000
ENDCHAR
STARTCHAR Hcircumflex
ENCODING 292
SWIDTH 859 0
DWIDTH 17 0
BBX 17 23 0 -2
BITMAP
000000002331000000
000000331002330000
000018003332013000
0002CA021002103000
000DFA004873003000
001FFEAEFFFFD92000
001D3333EFFB333320
01BA000059F8000030
0DFA02104DF8030030
1FFA02106FF8030030
1FFA02106FF8030030
1FFA02105995030030
1FFA02100000030030
1FFA02433333350030
1FFA02100000030030
1FFA02105663030030
1FFA0210CFF8030030
1FFA0210CFF8030030
1FFA02106FF8030030
1FFA00006FF8000030
1FFD66666FFC666620
1FFFFFE43FFFFFD200
1DFFFC201EFFFB1000
ENDCHAR
STARTCHAR hcircumflex
ENCODING 293
SWIDTH 859 0
DWIDTH 17 0
BBX 17 23 0 -2
BITMAP
000000002331000000
000000331002330000
000018003332013000
0002CA021002103000
000DFA004873003000
001FFEAEFFFFD92000
001D3333EFFB333320
01BA000059F8000030
0DFA02104DF8030030
1FFA02106FF8030030
1FFA02106FF8030030
1FFA02105995030030
1FFA02100000030030
1FFA02433333350030
1FFA02100000030030
1FFA02105663030030
1FFA0210CFF8030030
1FFA0210CFF8030030
1FFA02106FF8030030
1FFA00006FF8000030
1FFD66666FFC666620
1FFFFFE43FFFFFD200
1DFFFC201EFFFB1000
ENDCHAR
STARTCHAR Hbar
ENCODING 294
SWIDTH 879 0
DWIDTH 18 0
BBX 18 17 0 -2
BITMAP
000633333006333330
008D000031BC000030
09F900303797012042
0EE000300000012003
3EE013533333345103
CFE100300000012003
DFFD0030AFFC012060
DFFD00305887012030
3EFD00300000012030
0EFD00533333342030
0EFD00300000012030
0EFD00304665012030
0EFD0030AFFC012030
0EFD0000AFFC000030
0EFF66663EFE666620
0EFFFFE40EFFFFE400
0BFFFD300BFFFC2000
ENDCHAR
STARTCHAR hbar
ENCODING 295
SWIDTH 879 0
DWIDTH 18 0
BBX 18 17 0 -2
BITMAP
000633333006333330
008D000031BC000030
09F900303797012042
0EE000300000012003
3EE013533333345103
CFE100300000012003
DFFD0030AFFC012060
DFFD00305887012030
3EFD00300000012030
0EFD00533333342030
0EFD00300000012030
0EFD00304665012030
0EFD0030AFFC012030
0EFD0000AFFC000030
0EFF66663EFE666620
0EFFFFE40EFFFFE400
0BFFFD300BFFFC2000
ENDCHAR
STARTCHAR Itilde
ENCODING 296
SWIDTH 705 0
DWIDTH 14 0
BBX 14 22 0 -2
BITMAP
00002333333530
00054000001030
006F2044310030
06FF2000022030
0AFF5576410100
0AF93333333333
09F50000000003
2DF50233433103
6FF93300301334
6FFFFF10305F80
5FFFFF10305500
033CFF10303000
000BFF10303000
000BFF10303000
000BFF10303000
00099910302332
00960000300003
1BF50333433203
6FF50000000003
6FFB6666666662
6FFFFFFFFFFE30
4FFFFFFFFFC200
ENDCHAR
STARTCHAR itilde
ENCODING 297
SWIDTH 705 0
DWIDTH 14 0
BBX 14 22 0 -2
BITMAP
00002333333530
00054000001030
006F2044310030
06FF2000022030
0AFF5576410100
0AF93333333333
09F50000000003
2DF50233433103
6FF93300301334
6FFFFF10305F80
5FFFFF10305500
033CFF10303000
000BFF10303000
000BFF10303000
000BFF10303000
00099910302332
00960000300003
1BF50333433203
6FF50000000003
6FFB6666666662
6FFFFFFFFFFE30
4FFFFFFFFFC200
ENDCHAR
STARTCHAR Imacron
ENCODING 298
SWIDTH 705 0
DWIDTH 14 0
BBX 14 22 0 -2
BITMAP
00004333333330
000A2000000030
00AF2033332030
08FF2000000030
0AFF4000000020
0AFECCCCCCCCC6
09F60000000003
1BF50233433103
6FF93300301334
6FFFFF10305F80
5FFFFF10305500
033CFF10303000
000BFF10303000
000BFF10303000
000BFF10303000
00099910302332
00960000300003
1BF50333433203
6FF50000000003
6FFB6666666662
6FFFFFFFFFFE30
4FFFFFFFFFC200
ENDCHAR
STARTCHAR imacron
ENCODING 299
SWIDTH 705 0
DWIDTH 14 0
BBX 14 22 0 -2
BITMAP
00004333333330
000A2000000030
00AF2033332030
08FF2000000030
0AFF4000000020
0AFECCCCCCCCC6
09F60000000003
1BF50233433103
6FF93300301334
6FFFFF10305F80
5FFFFF10305500
033CFF10303000
000BFF10303000
000BFF10303000
000BFF10303000
00099910302332
00960000300003
1BF50333433203
6FF50000000003
6FFB6666666662
6FFFFFFFFFFE30
4FFFFFFFFFC200
ENDCHAR
STARTCHAR Ibreve
ENCODING 300
SWIDTH 705 0
DWIDTH 14 0
BBX 14 23 0 -2
BITMAP
00014332043330
001C0004880030
02DF0206B40230
0BFF2310003120
0CFF7033332000
0AFFF831013000
06F93333333333
02E50000000003
3EF50233433103
6FF93300301334
6FFFFF10305F80
5FFFFF10305500
033CFF10303000
000BFF10303000
000BFF10303000
000BFF10303000
00099910302332
00960000300003
1BF50333433203
6FF50000000003
6FFB6666666662
6FFFFFFFFFFE30
4FFFFFFFFFC200
ENDCHAR
STARTCHAR ibreve
ENCODING 301
SWIDTH 705 0
DWIDTH 14 0
BBX 14 23 0 -2
BITMAP
00014332043330
001C0004880030
02DF0206B40230
0BFF2310003120
0CFF7033332000
0AFFF831013000
06F93333333333
02E50000000003
3EF50233433103
6FF93300301334
6FFFFF10305F80
5FFFFF10305500
033CFF10303000
000BFF10303000
000BFF10303000
000BFF10303000
00099910302332
00960000300003
1BF50333433203
6FF50000000003
6FFB6666666662
6FFFFFFFFFFE30
4FFFFFFFFFC200
ENDCHAR
STARTCHAR Iogonek
ENCODING 302
SWIDTH 705 0
DWIDTH 14 0
BBX 14 21 0 -6
BITMAP
00263333333333
04E50000000003
4FF50233433103
6FF93300301334
6FFFFF10305F80
5FFFFF10305500
033CFF10303000
000BFF10303000
000BFF10303000
000BFF10303000
00099910302332
00950000300003
1BF50333435203
6FF50000003003
6FFB6666303163
6FFFFFFF703272
4FFFFFFF605203
000004FF800003
000006FFF96662
000004FFFFFE40
000000AEFFD300
ENDCHAR
STARTCHAR iogonek
ENCODING 303
SWIDTH 705 0
DWIDTH 14 0
BBX 14 21 0 -6
BITMAP
00263333333333
04E50000000003
4FF50233433103
6FF93300301334
6FFFFF10305F80
5FFFFF10305500
033CFF10303000
000BFF10303000
000BFF10303000
000BFF10303000
00099910302332
00950000300003
1BF50333435203
6FF50000003003
6FFB6666303163
6FFFFFFF703272
4FFFFFFF605203
000004FF800003
000006FFF96662
000004FFFFFE40
000000AEFFD300
ENDCHAR
STARTCHAR Idotaccent
ENCODING 304
SWIDTH 705 0
DWIDTH 14 0
BBX 14 22 0 -2
BITMAP
00000143333000
00002D10003000
0004EF10303000
000BFF10103000
000BFF30001000
00273333333333
03E50000000003
4FF50233433103
6FF93300301334
6FFFFF10305F80
5FFFFF10305500
033CFF10303000
000BFF10303000
000BFF10303000
000BFF10303000
00099910302332
00960000300003
1BF50333433203
6FF50000000003
6FFB6666666662
6FFFFFFFFFFE30
4FFFFFFFFFC200
ENDCHAR
STARTCHAR dotlessi
ENCODING 305
SWIDTH 705 0
DWIDTH 14 0
BBX 14 17 0 -2
BITMAP
00263333333333
04E50000000003
4FF50233433103
6FF93300301334
6FFFFF10305F80
5FFFFF10305500
033CFF10303000
000BFF10303000
000BFF10303000
000BFF10303000
00099910302332
00960000300003
1BF50333433203
6FF50000000003
6FFB6666666662
6FFFFFFFFFFE30
4FFFFFFFFFC200
ENDCHAR
STARTCHAR IJ
ENCODING 306
SWIDTH 844 0
DWIDTH 17 0
BBX 17 17 0 -2
BITMAP
000733333026333410
01BA000033E5000110
0DFA02107FF5030110
1FFA0210CFF5030110
1FFA0210CFF5030110
1FFA0210CFF5030110
1FFA0100CFF5030110
1FFB0000CFF5030110
1FFEAAA8EFF5030110
1FFFFFA1DFF5030110
079C98338970030210
005A00000000130300
07FA02333333200300
1FFA00000000003100
1FFD66666666781000
1FFFFFFFFFFFA10000
0DFFFFFFFEC5000000
ENDCHAR
STARTCHAR ij
ENCODING 307
SWIDTH 844 0
DWIDTH 17 0
BBX 17 17 0 -2
BITMAP
000733333026333410
01BA000033E5000110
0DFA02107FF5030110
1FFA0210CFF5030110
1FFA0210CFF5030110
1FFA0210CFF5030110
1FFA0100CFF5030110
1FFB0000CFF5030110
1FFEAAA8EFF5030110
1FFFFFA1DFF5030110
079C98338970030210
005A00000000130300
07FA02333333200300
1FFA00000000003100
1FFD66666666781000
1FFFFFFFFFFFA10000
0DFFFFFFFEC5000000
ENDCHAR
STARTCHAR Jcircumflex
ENCODING 308
SWIDTH 788 0
DWIDTH 16 0
BBX 17 23 0 -2
BITMAP
000000000013330000
000000002210002310
000000083023331030
000001BF2010001030
000009FF449DEB7340
00000AFFFFC999CD30
000009FFBF30003100
00000342CF30103000
00000008FF30303000
00000009FF30303000
00000009FF30303000
00000009FF30303000
0014333BFF30303000
02C20008FF30303000
3DF20208FF30303000
AFF20308FF30303000
AFF203028700303000
AFF403200003103000
9FF800233331003000
7FFF60000000041000
3FFFFD97667A900000
07FFFFFFFFF8000000
0039DEFEC930000000
ENDCHAR
STARTCHAR jcircumflex
ENCODING 309
SWIDTH 788 0
DWIDTH 16 0
BBX 17 23 0 -2
BITMAP
000000000013330000
000000002210002310
000000083023331030
000001BF2010001030
000009FF449DEB7340
00000AFFFFC999CD30
000009FFBF30003100
00000342CF30103000
00000008FF30303000
00000009FF30303000
00000009FF30303000
00000009FF30303000
0014333BFF30303000
02C20008FF30303000
3DF20208FF30303000
AFF20308FF30303000
AFF203028700303000
AFF403200003103000
9FF800233331003000
7FFF60000000041000
3FFFFD97667A900000
07FFFFFFFFF8000000
0039DEFEC930000000
ENDCHAR
STARTCHAR Kcommaaccent
ENCODING 310
SWIDTH 846 0
DWIDTH 17 0
BBX 17 24 0 -9
BITMAP
000633333064333500
01BA02106CA0300300
0CFA0210CF20303000
1FFA0210C903003000
1FFA02107203033000
1FFA02100021000400
1FFA02433343310210
1FFA02100000030030
1FFA02107992030030
1FFA0210CFF7030030
1FFA0210CFF8030030
1FFA02107FF8030030
1FFA00007FF8000030
1FFA00007FF8000030
1FFD66675997666400
1FFFFFF80000EFB100
1DFFFFF71330E90000
00004FF70030300000
00005FF70030300000
00005FFFC930300000
00005FFA1325100000
00000BFD7784000000
00002FFFFD20000000
00001EFE9100000000
ENDCHAR
STARTCHAR kcommaaccent
ENCODING 311
SWIDTH 846 0
DWIDTH 17 0
BBX 17 24 0 -9
BITMAP
000633333064333500
01BA02106CA0300300
0CFA0210CF20303000
1FFA0210C903003000
1FFA02107203033000
1FFA02100021000400
1FFA02433343310210
1FFA02100000030030
1FFA02107992030030
1FFA0210CFF7030030
1FFA0210CFF8030030
1FFA02107FF8030030
1FFA00007FF8000030
1FFA00007FF8000030
1FFD66675997666400
1FFFFFF80000EFB100
1DFFFFF71330E90000
00004FF70030300000
00005FF70030300000
00005FFFC930300000
00005FFA1325100000
00000BFD7784000000
00002FFFFD20000000
00001EFE9100000000
ENDCHAR
STARTCHAR kgreenlandic
ENCODING 312
SWIDTH 846 0
DWIDTH 17 0
BBX 17 17 0 -2
BITMAP
000633333024333500
01BA000034B0000300
0CFA02108F50302200
1FFA0210CE00303000
1FFA0210C703013000
1FFA02107103033000
1FFA02100021000400
1FFA02433343310210
1FFA02100000030030
1FFA02108AA3030030
1FFA0210CFF7030030
1FFA0210BFF8030030
1FFA02107FF8030030
1FFA00007FF8000030
1FFD66667FFC666610
1FFFFFE34FFFFFC200
1DFFFC202EFFFA1000
ENDCHAR
STARTCHAR Lacute
ENCODING 313
SWIDTH 795 0
DWIDTH 16 0
BBX 16 22 0 -2
BITMAP
000013468AAB2000
0008A86421103000
01BB023332003000
0DFA000000011000
1FFC23579A910000
1FFC0001DA100000
0DFA000030000000
0CFA021030000000
1FFA021030000000
1FFA021030000000
1FFA021030000000
1FFA021030143332
1FFA021032D00003
1FFA02107EE00203
1FFA0210CFE00303
1FFA021079800303
1FFA021000000303
1FFA013333333203
1FFA000000000003
1FFD666666666662
1FFFFFFFFFFFFE30
1DFFFFFFFFFFC200
ENDCHAR
STARTCHAR lacute
ENCODING 314
SWIDTH 795 0
DWIDTH 16 0
BBX 16 22 0 -2
BITMAP
000013468AAB2000
0008A86421103000
01BB023332003000
0DFA000000011000
1FFC23579A910000
1FFC0001DA100000
0DFA000030000000
0CFA021030000000
1FFA021030000000
1FFA021030000000
1FFA021030000000
1FFA021030143332
1FFA021032D00003
1FFA02107EE00203
1FFA0210CFE00303
1FFA021079800303
1FFA021000000303
1FFA013333333203
1FFA000000000003
1FFD666666666662
1FFFFFFFFFFFFE30
1DFFFFFFFFFFC200
ENDCHAR
STARTCHAR Lcommaaccent
ENCODING 315
SWIDTH 795 0
DWIDTH 16 0
BBX 16 24 0 -9
BITMAP
0006333330000000
01BA000030000000
0CFA021030000000
1FFA021030000000
1FFA021030000000
1FFA021030000000
1FFA021030143332
1FFA021032D00003
1FFA02107EE00203
1FFA0210CFE00303
1FFA021079800303
1FFA021000000303
1FFA013333333203
1FFB000000000004
1FFFEEEEDDDDEEE4
1FFFFFF50002FE30
1DFFFFF42321C200
00003EF400311000
00008FF500311000
00008FFEB7331000
00007FF823150000
00001DFC77820000
00004FFFFB100000
00003EFD70000000
ENDCHAR
STARTCHAR lcommaaccent
ENCODING 316
SWIDTH 795 0
DWIDTH 16 0
BBX 16 24 0 -9
BITMAP
0006333330000000
01BA000030000000
0CFA021030000000
1FFA021030000000
1FFA021030000000
1FFA021030000000
1FFA021030143332
1FFA021032D00003
1FFA02107EE00203
1FFA0210CFE00303
1FFA021079800303
1FFA021000000303
1FFA013333333203
1FFB000000000004
1FFFEEEEDDDDEEE4
1FFFFFF50002FE30
1DFFFFF42321C200
00003EF400311000
00008FF500311000
00008FFEB7331000
00007FF823150000
00001DFC77820000
00004FFFFB100000
00003EFD70000000
ENDCHAR
STARTCHAR Lcaron
ENCODING 317
SWIDTH 795 0
DWIDTH 16 0
BBX 16 17 0 -2
BITMAP
0006333330543332
01BA000039D00003
0CFA0210BFA03030
1FFA0210CF702030
1FFA0210CF500040
1FFA0210CFDBB910
1FFA0210CFFA9432
1FFA02109CF00003
1FFA02107EE00203
1FFA0210CFE00303
1FFA021079800303
1FFA021000000303
1FFA013333333203
1FFA000000000003
1FFD666666666662
1FFFFFFFFFFFFE30
1DFFFFFFFFFFC200
ENDCHAR
STARTCHAR lcaron
ENCODING 318
SWIDTH 795 0
DWIDTH 16 0
BBX 16 17 0 -2
BITMAP
0006333330543332
01BA000039D00003
0CFA0210BFA03030
1FFA0210CF702030
1FFA0210CF500040
1FFA0210CFDBB910
1FFA0210CFFA9432
1FFA02109CF00003
1FFA02107EE00203
1FFA0210CFE00303
1FFA021079800303
1FFA021000000303
1FFA013333333203
1FFA000000000003
1FFD666666666662
1FFFFFFFFFFFFE30
1DFFFFFFFFFFC200
ENDCHAR
STARTCHAR Ldot
ENCODING 319
SWIDTH 795 0
DWIDTH 16 0
BBX 16 17 0 -2
BITMAP
0006333330000000
01BA000030000000
0CFA011030000000
1FFA021030233331
1FFA021035B00003
1FFA02109FC02103
1FFA0210CFC00003
1FFA0210CFFBBB81
1FFA0210CFFA9842
1FFA02108CE00003
1FFA02106BB00203
1FFA021000000303
1FFA013333333203
1FFA000000000003
1FFD666666666663
1FFFFFFFFFFFFE40
1DFFFFFFFFFFC200
ENDCHAR
STARTCHAR ldot
ENCODING 320
SWIDTH 795 0
DWIDTH 16 0
BBX 16 17 0 -2
BITMAP
0006333330000000
01BA000030000000
0CFA011030000000
1FFA021030233331
1FFA021035B00003
1FFA02109FC02103
1FFA0210CFC00003
1FFA0210CFFBBB81
1FFA0210CFFA9842
1FFA02108CE00003
1FFA02106BB00203
1FFA021000000303
1FFA013333333203
1FFA000000000003
1FFD666666666663
1FFFFFFFFFFFFE40
1DFFFFFFFFFFC200
ENDCHAR
STARTCHAR Lslash
ENCODING 321
SWIDTH 805 0
DWIDTH 16 0
BBX 17 17 -1 -2
BITMAP
000063333300000000
001AD0000300000000
00BFD0030300000000
00EFD0030310000000
00EFD0030234000000
00EC10030003000000
02EB02353103433330
0DFB0003025D200030
1FFD500309FF202030
1FFFD00309FF203030
0EFFD0030599103030
01EFD0030000003030
00EFD0043333332030
00EFD0000000000030
00EFF7666666666630
00EFFFFFFFFFFFF500
00BFFFFFFFFFFE4000
ENDCHAR
STARTCHAR lslash
ENCODING 322
SWIDTH 805 0
DWIDTH 16 0
BBX 17 17 -1 -2
BITMAP
000063333300000000
001AD0000300000000
00BFD0030300000000
00EFD0030310000000
00EFD0030234000000
00EC10030003000000
02EB02353103433330
0DFB0003025D200030
1FFD500309FF202030
1FFFD00309FF203030
0EFFD0030599103030
01EFD0030000003030
00EFD0043333332030
00EFD0000000000030
00EFF7666666666630
00EFFFFFFFFFFFF500
00BFFFFFFFFFFE4000
ENDCHAR
STARTCHAR Nacute
ENCODING 323
SWIDTH 853 0
DWIDTH 17 0
BBX 17 22 0 -2
BITMAP
0000000135799A3000
000006986420004000
00009D013333103000
000AFC000000001000
000EFD23568AB20000
000C3339FFFB333410
01BA000076E8000030
0CFA03400BF8030030
1FFA030301D8030030
1FFA03013027030030
1FFA03001200030030
1FFA03000220030030
1FFA03003021030030
1FFA0300C203130030
1FFA0300DD10330030
1FFA0300DFB0050030
1FFA0300DFF7030030
1FFA0300DFF8020030
1FFA0000AFF8000030
1FFD66666FFC666610
1FFFFFD24FFFFFC100
1DFFFB102EFFF90000
ENDCHAR
STARTCHAR nacute
ENCODING 324
SWIDTH 853 0
DWIDTH 17 0
BBX 17 22 0 -2
BITMAP
0000000135799A3000
000006986420004000
00009D013333103000
000AFC000000001000
000EFD23568AB20000
000C3339FFFB333410
01BA000076E8000030
0CFA03400BF8030030
1FFA030301D8030030
1FFA03013027030030
1FFA03001200030030
1FFA03000220030030
1FFA03003021030030
1FFA0300C203130030
1FFA0300DD10330030
1FFA0300DFB0050030
1FFA0300DFF7030030
1FFA0300DFF8020030
1FFA0000AFF8000030
1FFD66666FFC666610
1FFFFFD24FFFFFC100
1DFFFB102EFFF90000
ENDCHAR
STARTCHAR Ncommaaccent
ENCODING 325
SWIDTH 853 0
DWIDTH 17 0
BBX 17 24 0 -9
BITMAP
000633353058333410
01BA02306DF8020030
0CFA031306F8030030
1FFA03012058030030
1FFA03002201030030
1FFA03000210030030
1FFA03002031030030
1FFA0300C203030030
1FFA0300DC00430030
1FFA0300DFA0060030
1FFA0300DFF6030030
1FFA0300DFF8030030
1FFA0000CFF8000030
1FFA00006FF8000030
1FFD66665997666610
1FFFFFF80000DFC100
1DFFFFF81330D90000
00003FF80030300000
00004FF80030300000
00004FFFCA30400000
00004FFB1324100000
00000BFE7784000000
00001FFFFD30000000
00000DFE9100000000
ENDCHAR
STARTCHAR ncommaaccent
ENCODING 326
SWIDTH 853 0
DWIDTH 17 0
BBX 17 24 0 -9
BITMAP
000633353058333410
01BA02306DF8020030
0CFA031306F8030030
1FFA03012058030030
1FFA03002201030030
1FFA03000210030030
1FFA03002031030030
1FFA0300C203030030
1FFA0300DC00430030
1FFA0300DFA0060030
1FFA0300DFF6030030
1FFA0300DFF8030030
1FFA0000CFF8000030
1FFA00006FF8000030
1FFD66665997666610
1FFFFFF80000DFC100
1DFFFFF81330D90000
00003FF80030300000
00004FF80030300000
00004FFFCA30400000
00004FFB1324100000
00000BFE7784000000
00001FFFFD30000000
00000DFE9100000000
ENDCHAR
STARTCHAR Ncaron
ENCODING 327
SWIDTH 853 0
DWIDTH 17 0
BBX 17 23 0 -2
BITMAP
000001200001340000
000056002332030000
0007F6020002030000
004FF7013331020000
005FFD400000200000
005FFFFC5149300000
002C3339FFC9333410
01BA000084D8000030
0CFA03400BF8030030
1FFA030301D8030030
1FFA03013027030030
1FFA03001200030030
1FFA03000220030030
1FFA03003021030030
1FFA0300C203130030
1FFA0300DD10330030
1FFA0300DFB0050030
1FFA0300DFF7030030
1FFA0300DFF8020030
1FFA0000AFF8000030
1FFD66666FFC666610
1FFFFFD24FFFFFC100
1DFFFB102EFFF90000
ENDCHAR
STARTCHAR ncaron
ENCODING 328
SWIDTH 853 0
DWIDTH 17 0
BBX 17 23 0 -2
BITMAP
000001200001340000
000056002332030000
0007F6020002030000
004FF7013331020000
005FFD400000200000
005FFFFC5149300000
002C3339FFC9333410
01BA000084D8000030
0CFA03400BF8030030
1FFA030301D8030030
1FFA03013027030030
1FFA03001200030030
1FFA03000220030030
1FFA03003021030030
1FFA0300C203130030
1FFA0300DD10330030
1FFA0300DFB0050030
1FFA0300DFF7030030
1FFA0300DFF8020030
1FFA0000AFF8000030
1FFD66666FFC666610
1FFFFFD24FFFFFC100
1DFFFB102EFFF90000
ENDCHAR
STARTCHAR napostrophe
ENCODING 329
SWIDTH 853 0
DWIDTH 17 0
BBX 17 25 0 -2
BITMAP
000333331000000000
007600003000000000
07F613403000000000
4FF600303000000000
5FF700303000000000
5FFFB9302000000000
5FFA13200000000000
1CFB00110000000000
1FFEA9980019999A10
1EFB000272D8000030
0DFA03402DF8030030
1FFA030302E8030030
1FFA03013037030030
1FFA03001200030030
1FFA03000220030030
1FFA03003021030030
1FFA0300C203130030
1FFA0300DD10330030
1FFA0300DFB0050030
1FFA0300DFF7030030
1FFA0300DFF8020030
1FFA0000AFF8000030
1FFD66666FFC666610
1FFFFFD24FFFFFC100
1DFFFB102EFFF90000
ENDCHAR
STARTCHAR Eng
ENCODING 330
SWIDTH 846 0
DWIDTH 17 0
BBX 17 19 0 -4
BITMAP
000003333333331000
000151033333203200
002B00400000220300
03EA02100000030210
0DF90300BFE3030120
1FF90300EFF5030120
3FF90300DFF5030120
3FF903009FF5030120
3FF903009FF5030120
3FF903009FF5030120
3FF903009FF5030120
3FF903009FF5030120
3FF903009FC3030120
3FF90000B700030310
3FFD6667F602300500
3FFFFFFFF600005300
1EFFFB7FFD99BB2000
0000006FFFFFB10000
0000004EFEB6000000
ENDCHAR
STARTCHAR eng
ENCODING 331
SWIDTH 846 0
DWIDTH 17 0
BBX 17 19 0 -4
BITMAP
000003333333331000
000151033333203200
002B00400000220300
03EA02100000030210
0DF90300BFE3030120
1FF90300EFF5030120
3FF90300DFF5030120
3FF903009FF5030120
3FF903009FF5030120
3FF903009FF5030120
3FF903009FF5030120
3FF903009FF5030120
3FF903009FC3030120
3FF90000B700030310
3FFD6667F602300500
3FFFFFFFF600005300
1EFFFB7FFD99BB2000
0000006FFFFFB10000
0000004EFEB6000000
ENDCHAR
STARTCHAR Omacron
ENCODING 332
SWIDTH 837 0
DWIDTH 17 0
BBX 17 22 0 -2
BITMAP
000004333333340000
000087000000030000
000AF7023333021000
004FF7000000021000
005FF9000000030000
004FFFDA9889B60000
001DB3033333115100
01BD00400000320300
0BF803002430030300
2FF70300EFF4030210
4FF70300FFF5030210
5FF70300CFF5030210
5FF703009FF5030210
5FF703009FF5030210
5FF703009FF5030210
5FF703009FE3030210
5FF800400000220300
4FFC00033333100400
2FFFA1000000005200
0CFFFFB87678AB2000
02DFFFFFFFFF910000
0016BEFFEC94000000
ENDCHAR
STARTCHAR omacron
ENCODING 333
SWIDTH 837 0
DWIDTH 17 0
BBX 17 22 0 -2
BITMAP
000004333333340000
000087000000030000
000AF7023333021000
004FF7000000021000
005FF9000000030000
004FFFDA9889B60000
001DB3033333115100
01BD00400000320300
0BF803002430030300
2FF70300EFF4030210
4FF70300FFF5030210
5FF70300CFF5030210
5FF703009FF5030210
5FF703009FF5030210
5FF703009FF5030210
5FF703009FE3030210
5FF800400000220300
4FFC00033333100400
2FFFA1000000005200
0CFFFFB87678AB2000
02DFFFFFFFFF910000
0016BEFFEC94000000
ENDCHAR
STARTCHAR Obreve
ENCODING 334
SWIDTH 837 0
DWIDTH 17 0
BBX 17 23 0 -2
BITMAP
000004333023340000
0000950034B0003000
001BF5130210303000
006FF7023333021000
007FFC000000030000
005FFFB41013610000
001CFFB87667430000
0007A1033333104200
009D00400000320400
09F803002430030300
1FF70300EFF4030210
4FF70300FFF5030210
5FF70300CFF5030210
5FF703009FF5030210
5FF703009FF5030210
5FF703009FF5030210
5FF703009FE3030210
5FF800400000220300
4FFC00033333100400
2FFFA1000000005200
0CFFFFB87678AB2000
02DFFFFFFFFF900000
0016BEFFEC94000000
ENDCHAR
STARTCHAR obreve
ENCODING 335
SWIDTH 837 0
DWIDTH 17 0
BBX 17 23 0 -2
BITMAP
000004333023340000
0000950034B0003000
001BF5130210303000
006FF7023333021000
007FFC000000030000
005FFFB41013610000
001CFFB87667430000
0007A1033333104200
009D00400000320400
09F803002430030300
1FF70300EFF4030210
4FF70300FFF5030210
5FF70300CFF5030210
5FF703009FF5030210
5FF703009FF5030210
5FF703009FF5030210
5FF703009FE3030210
5FF800400000220300
4FFC00033333100400
2FFFA1000000005200
0CFFFFB87678AB2000
02DFFFFFFFFF900000
0016BEFFEC94000000
ENDCHAR
STARTCHAR Ohungarumlaut
ENCODING 336
SWIDTH 837 0
DWIDTH 17 0
BBX 17 24 0 -2
BITMAP
000000433403334100
00000A500357000300
0001CF1106F4103000
0007FD030AF1303000
000BFA030DD0303000
000EF6001F90003000
004FF5006F80021000
007FFFDA9889B70000
002DB3033333115200
01BD00400000320400
0BF803002430030300
2FF70300EFF4030210
4FF70300FFF5030210
5FF70300CFF5030210
5FF703009FF5030210
5FF703009FF5030210
5FF703009FF5030210
5FF703009FE3030210
5FF800400000220300
4FFC00033333100400
2FFFA1000000005200
0CFFFFB87678AB2000
02DFFFFFFFFF900000
0016BEFFEC94000000
ENDCHAR
STARTCHAR ohungarumlaut
ENCODING 337
SWIDTH 837 0
DWIDTH 17 0
BBX 17 24 0 -2
BITMAP
000000433403334100
00000A500357000300
0001CF1106F4103000
0007FD030AF1303000
000BFA030DD0303000
000EF6001F90003000
004FF5006F80021000
007FFFDA9889B70000
002DB3033333115200
01BD00400000320400
0BF803002430030300
2FF70300EFF4030210
4FF70300FFF5030210
5FF70300CFF5030210
5FF703009FF5030210
5FF703009FF5030210
5FF703009FF5030210
5FF703009FE3030210
5FF800400000220300
4FFC00033333100400
2FFFA1000000005200
0CFFFFB87678AB2000
02DFFFFFFFFF900000
0016BEFFEC94000000
ENDCHAR
STARTCHAR OE
ENCODING 338
SWIDTH 1115 0
DWIDTH 22 0
BBX 22 17 0 -2
BITMAP
0000133333333333333334
0002400000000000000003
004B001333333433333203
05F8013024400300000004
1EF70300EFF10305FFFFC2
3FF70300FFF10303888910
5FF70300FFF10300000030
5FF70300FFF10533330030
5FF70300FFF10300000120
5FF70300FFF10305EED400
5FF7030079910303995333
5FF8013000000300000003
4FFD002333333433333203
2FFF900000000000000003
0DFFFD8666666666666664
04EFFFFFFFFFFFFFFFFF70
0029DFFFFFFFFFFFFFE500
ENDCHAR
STARTCHAR oe
ENCODING 339
SWIDTH 1115 0
DWIDTH 22 0
BBX 22 17 0 -2
BITMAP
0000133333333333333334
0002400000000000000003
004B001333333433333203
05F8013024400300000004
1EF70300EFF10305FFFFC2
3FF70300FFF10303888910
5FF70300FFF10300000030
5FF70300FFF10533330030
5FF70300FFF10300000120
5FF70300FFF10305EED400
5FF7030079910303995333
5FF8013000000300000003
4FFD002333333433333203
2FFF900000000000000003
0DFFFD8666666666666664
04EFFFFFFFFFFFFFFFFF70
0029DFFFFFFFFFFFFFE500
ENDCHAR
STARTCHAR Racute
ENCODING 340
SWIDTH 843 0
DWIDTH 17 0
BBX 17 22 0 -2
BITMAP
0000013579BCCA0000
00003C975322040000
0005F5033331030000
005FF5000000010000
007FF724679B500000
007C00000000241000
00BA00000000004000
0BFA01333333002100
1FFA02100000300300
1FFA0210CF60300300
1FFA0210CF80302100
1FFA02107930304000
1FFA02100000303300
1FFA02333335310120
1FFA02100000030030
1FFA0210CFF9012030
1FFA0210CFFC012030
1FFA02108FFC012030
1FFA00003FFC000030
1FFD66663FFE666630
1FFFFFD30FFFFFE400
1DFFFB100DFFFD2000
ENDCHAR
STARTCHAR racute
ENCODING 341
SWIDTH 843 0
DWIDTH 17 0
BBX 17 22 0 -2
BITMAP
0000013579BCCA0000
00003C975322040000
0005F5033331030000
005FF5000000010000
007FF724679B500000
007C00000000241000
00BA00000000004000
0BFA01333333002100
1FFA02100000300300
1FFA0210CF60300300
1FFA0210CF80302100
1FFA02107930304000
1FFA02100000303300
1FFA02333335310120
1FFA02100000030030
1FFA0210CFF9012030
1FFA0210CFFC012030
1FFA02108FFC012030
1FFA00003FFC000030
1FFD66663FFE666630
1FFFFFD30FFFFFE400
1DFFFB100DFFFD2000
ENDCHAR
STARTCHAR Rcommaaccent
ENCODING 342
SWIDTH 843 0
DWIDTH 17 0
BBX 17 24 0 -9
BITMAP
000633333333331000
01BA01333333004000
0CFA02100000302100
1FFA02107930300300
1FFA0210CF80301200
1FFA0210CF60303000
1FFA02100000304200
1FFA02333335310310
1FFA02100000030030
1FFA02105662021030
1FFA0210CFFB012030
1FFA0210CFFC012030
1FFA01004FFC011030
1FFA00003FFC000030
1FFD66675998666520
1FFFFFFA0000CFE300
1DFFFFF91330CC2000
00002FF90011300000
00003FFA0011300000
00003FFFCB30400000
00002FFD1323200000
000009FE7785000000
00000EFFFE30000000
00000CFEA200000000
ENDCHAR
STARTCHAR rcommaaccent
ENCODING 343
SWIDTH 843 0
DWIDTH 17 0
BBX 17 24 0 -9
BITMAP
000633333333331000
01BA01333333004000
0CFA02100000302100
1FFA02107930300300
1FFA0210CF80301200
1FFA0210CF60303000
1FFA02100000304200
1FFA02333335310310
1FFA02100000030030
1FFA02105662021030
1FFA0210CFFB012030
1FFA0210CFFC012030
1FFA01004FFC011030
1FFA00003FFC000030
1FFD66675998666520
1FFFFFFA0000CFE300
1DFFFFF91330CC2000
00002FF90011300000
00003FFA0011300000
00003FFFCB30400000
00002FFD1323200000
000009FE7785000000
00000EFFFE30000000
00000CFEA200000000
ENDCHAR
STARTCHAR Rcaron
ENCODING 344
SWIDTH 843 0
DWIDTH 17 0
BBX 17 23 0 -2
BITMAP
000002300001340000
000025121332011000
0002D8020002011000
002EF8003331021000
004FFE500000250000
004FFFFD613AA00000
003EA9999999320000
005A00000000023000
07FA01333333003000
1FFA02100000301200
1FFA0210CF60300300
1FFA0210CF80302100
1FFA02107930303000
1FFA02100000303300
1FFA02333335310120
1FFA02100000030030
1FFA0210CFF9012030
1FFA0210CFFC012030
1FFA02108FFC012030
1FFA00003FFC000030
1FFD66663FFE666630
1FFFFFD30FFFFFE400
0DFFFB100DFFFD2000
ENDCHAR
STARTCHAR rcaron
ENCODING 345
SWIDTH 843 0
DWIDTH 17 0
BBX 17 23 0 -2
BITMAP
000002300001340000
000025121332011000
0002D8020002011000
002EF8003331021000
004FFE500000250000
004FFFFD613AA00000
003EA9999999320000
005A00000000023000
07FA01333333003000
1FFA02100000301200
1FFA0210CF60300300
1FFA0210CF80302100
1FFA02107930303000
1FFA02100000303300
1FFA02333335310120
1FFA02100000030030
1FFA0210CFF9012030
1FFA0210CFFC012030
1FFA02108FFC012030
1FFA00003FFC000030
1FFD66663FFE666630
1FFFFFD30FFFFFE400
0DFFFB100DFFFD2000
ENDCHAR
STARTCHAR Sacute
ENCODING 346
SWIDTH 750 0
DWIDTH 15 0
BBX 15 22 0 -2
BITMAP
000000135799A300
0000698642000300
0009C01333310300
00BFC00000000100
00FFD23568AB2000
00FFE85333333500
00EE200000000300
0068003333330300
05F5030000000400
2FF50301FFFFE300
6FF50300368A5000
7FF6032000000400
7FFA001333310030
6FFF910000031030
3FFFFFDA85003030
08FFDDDDDB003030
0095000000022030
09F5033333320030
6FF5000000000410
7FFA666666688100
7FFFFFFFFFF80000
5FFFFFFFEB400000
ENDCHAR
STARTCHAR sacute
ENCODING 347
SWIDTH 750 0
DWIDTH 15 0
BBX 15 22 0 -2
BITMAP
000000135799A300
0000698642000300
0009C01333310300
00BFC00000000100
00FFD23568AB2000
00FFE85333333500
00EE200000000300
0068003333330300
05F5030000000400
2FF50301FFFFE300
6FF50300368A5000
7FF6032000000400
7FFA001333310030
6FFF910000031030
3FFFFFDA85003030
08FFDDDDDB003030
0095000000022030
09F5033333320030
6FF5000000000410
7FFA666666688100
7FFFFFFFFFF80000
5FFFFFFFEB400000
ENDCHAR
STARTCHAR Scircumflex
ENCODING 348
SWIDTH 750 0
DWIDTH 15 0
BBX 15 23 0 -2
BITMAP
0000000233100000
0000033100232000
0001700333202200
001C902000210300
01DF901487200300
03FFDBEFFFFD9100
03FFE85333333500
02FE200000000300
0077003333330300
06F5030000000400
2FF50301FFFFE300
6FF50300368A5000
7FF6032000000400
7FFA001333310030
6FFF910000031030
3FFFFFDA85003030
08FFDDDDDB003030
0095000000022030
09F5033333320030
6FF5000000000410
7FFA666666688100
7FFFFFFFFFF80000
5FFFFFFFEB400000
ENDCHAR
STARTCHAR scircumflex
ENCODING 349
SWIDTH 750 0
DWIDTH 15 0
BBX 15 23 0 -2
BITMAP
0000000233100000
0000033100232000
0001700333202200
001C902000210300
01DF901487200300
03FFDBEFFFFD9100
03FFE85333333500
02FE200000000300
0077003333330300
06F5030000000400
2FF50301FFFFE300
6FF50300368A5000
7FF6032000000400
7FFA001333310030
6FFF910000031030
3FFFFFDA85003030
08FFDDDDDB003030
0095000000022030
09F5033333320030
6FF5000000000410
7FFA666666688100
7FFFFFFFFFF80000
5FFFFFFFEB400000
ENDCHAR
STARTCHAR Scedilla
ENCODING 350
SWIDTH 750 0
DWIDTH 15 0
BBX 15 20 0 -5
BITMAP
0000233333333500
0005200000000300
0088003333330300
0AF5030000000300
3FF50301FFFFE300
6FF50300368A5000
7FF6032000000400
7FFA001333310030
6FFF910000031030
3FFFFFDA85003030
07FEDDDDDB003030
0095000000021030
09F5033334320030
6FF5000021000500
7FFC884030398000
7FFFFF3010A70000
5FFFFE0002400000
0007FFFFE5000000
000CFFFD30000000
0004666100000000
ENDCHAR
STARTCHAR scedilla
ENCODING 351
SWIDTH 750 0
DWIDTH 15 0
BBX 15 20 0 -5
BITMAP
0000233333333500
0005200000000300
0088003333330300
0AF5030000000300
3FF50301FFFFE300
6FF50300368A5000
7FF6032000000400
7FFA001333310030
6FFF910000031030
3FFFFFDA85003030
07FEDDDDDB003030
0095000000021030
09F5033334320030
6FF5000021000500
7FFC884030398000
7FFFFF3010A70000
5FFFFE0002400000
0007FFFFE5000000
000CFFFD30000000
0004666100000000
ENDCHAR
STARTCHAR Scaron
ENCODING 352
SWIDTH 750 0
DWIDTH 15 0
BBX 15 23 0 -2
BITMAP
0000141000033200
0000702023300300
001BC01100110300
00CFC00333200200
00FFF71000012000
00FFFFE822880000
00BFE85333333500
0005200000000300
0067003333330300
07F5030000000400
2FF50301FFFFE300
6FF50300368A5000
7FF6032000000400
7FFA001333310030
6FFF910000031030
3FFFFFDA85003030
07FFDDDDDB003030
0095000000022030
09F5033333320030
6FF5000000000410
7FFA666666688100
7FFFFFFFFFF80000
5FFFFFFFEB400000
ENDCHAR
STARTCHAR scaron
ENCODING 353
SWIDTH 750 0
DWIDTH 15 0
BBX 15 23 0 -2
BITMAP
0000141000033200
0000702023300300
001BC01100110300
00CFC00333200200
00FFF71000012000
00FFFFE822880000
00BFE85333333500
0005200000000300
0067003333330300
07F5030000000400
2FF50301FFFFE300
6FF50300368A5000
7FF6032000000400
7FFA001333310030
6FFF910000031030
3FFFFFDA85003030
07FFDDDDDB003030
0095000000022030
09F5033333320030
6FF5000000000410
7FFA666666688100
7FFFFFFFFFF80000
5FFFFFFFEB400000
ENDCHAR
STARTCHAR Tcommaaccent
ENCODING 354
SWIDTH 756 0
DWIDTH 15 0
BBX 16 24 0 -9
BITMAP
0063333333333340
1AD0133343333021
CFD0000030000021
EFF7663030056670
EFFFFF80300CFC20
BFFFFF80300C8000
0004FF8030030000
0004FF8030030000
0004FF8030030000
0004FF8030030000
0004FF8030030000
0004FF8030030000
0004FF8010030000
0004FF9000030000
0004FFFDDDB10000
0004FF9000030000
0002EF8133030000
0001CF8002130000
0003FF9002130000
0004FFFCA3030000
0003FFC132210000
0000AFE777200000
0000FFFFC2000000
0000DFE910000000
ENDCHAR
STARTCHAR tcommaaccent
ENCODING 355
SWIDTH 756 0
DWIDTH 15 0
BBX 16 24 0 -9
BITMAP
0063333333333340
1AD0133343333021
CFD0000030000021
EFF7663030056670
EFFFFF80300CFC20
BFFFFF80300C8000
0004FF8030030000
0004FF8030030000
0004FF8030030000
0004FF8030030000
0004FF8030030000
0004FF8030030000
0004FF8010030000
0004FF9000030000
0004FFFDDDB10000
0004FF9000030000
0002EF8133030000
0001CF8002130000
0003FF9002130000
0004FFFCA3030000
0003FFC132210000
0000AFE777200000
0000FFFFC2000000
0000DFE910000000
ENDCHAR
STARTCHAR Tcaron
ENCODING 356
SWIDTH 756 0
DWIDTH 15 0
BBX 16 23 0 -2
BITMAP
0000140000134100
0001612033300300
002DA02000110300
01EFA00333200200
02FFE60000012000
02FFFFD713970000
00C4333333333350
08D0000000000021
9FD0133343333021
EFE1000030000040
EFFFFF80300CFE50
DFFFFF80300CD300
4668FF8030061000
0004FF8030030000
0004FF8030030000
0004FF8030030000
0004FF8030030000
0004FF8030030000
0004FF8020030000
0004FF8000030000
0004FFC666620000
0004FFFFFD300000
0002EFFFB1000000
ENDCHAR
STARTCHAR tcaron
ENCODING 357
SWIDTH 756 0
DWIDTH 15 0
BBX 16 23 0 -2
BITMAP
0000140000134100
0001612033300300
002DA02000110300
01EFA00333200200
02FFE60000012000
02FFFFD713970000
00C4333333333350
08D0000000000021
9FD0133343333021
EFE1000030000040
EFFFFF80300CFE50
DFFFFF80300CD300
4668FF8030061000
0004FF8030030000
0004FF8030030000
0004FF8030030000
0004FF8030030000
0004FF8030030000
0004FF8020030000
0004FF8000030000
0004FFC666620000
0004FFFFFD300000
0002EFFFB1000000
ENDCHAR
STARTCHAR Tbar
ENCODING 358
SWIDTH 756 0
DWIDTH 15 0
BBX 16 17 0 -2
BITMAP
0063333333333350
09D0000000000021
AFD0133343333021
EFE0000030000030
EFFFEE70300BEE50
EFFFFF80300CD300
4779C95030075300
001A400030000300
01CF403353320300
07FF400030000300
08FFEC603009A200
08FFFF8030091000
039BFF8020030000
0004FF8000030000
0004FFC666520000
0004FFFFFD300000
0002EFFFB1000000
ENDCHAR
STARTCHAR tbar
ENCODING 359
SWIDTH 756 0
DWIDTH 15 0
BBX 16 17 0 -2
BITMAP
0063333333333350
09D0000000000021
AFD0133343333021
EFE0000030000030
EFFFEE70300BEE50
EFFFFF80300CD300
4779C95030075300
001A400030000300
01CF403353320300
07FF400030000300
08FFEC603009A200
08FFFF8030091000
039BFF8020030000
0004FF8000030000
0004FFC666520000
0004FFFFFD300000
0002EFFFB1000000
ENDCHAR
STARTCHAR Utilde
ENCODING 360
SWIDTH 846 0
DWIDTH 17 0
BBX 17 22 0 -2
BITMAP
000000333332450000
000028000001012000
0003D8034321012000
002EF8000013011000
003FFA377520200000
003C3334EFFA333410
02D90000BEF7000120
1EF903006EF7030120
3FF903008FF7030120
3FF903008FF7030120
3FF903008FF7030120
3FF903008FF7030120
3FF903008FF7030120
3FF903008FF7030120
3FF903008FF7030120
3FF902104881030120
3FFA00400000220210
3FFE10033333200400
1FFFC2000000005200
0AFFFFC97677AB2000
01CFFFFFFFFF900000
0006BDEFEC94000000
ENDCHAR
STARTCHAR utilde
ENCODING 361
SWIDTH 846 0
DWIDTH 17 0
BBX 17 22 0 -2
BITMAP
000000333332450000
000028000001012000
0003D8034321012000
002EF8000013011000
003FFA377520200000
003C3334EFFA333410
02D90000BEF7000120
1EF903006EF7030120
3FF903008FF7030120
3FF903008FF7030120
3FF903008FF7030120
3FF903008FF7030120
3FF903008FF7030120
3FF903008FF7030120
3FF903008FF7030120
3FF902104881030120
3FFA00400000220210
3FFE10033333200400
1FFFC2000000005200
0AFFFFC97677AB2000
01CFFFFFFFFF900000
0006BDEFEC94000000
ENDCHAR
STARTCHAR Umacron
ENCODING 362
SWIDTH 846 0
DWIDTH 17 0
BBX 17 22 0 -2
BITMAP
000003333333340000
000048000000012000
0004E8023333012000
001EF8000000012000
003FFA000000020000
003FCCCDFFFFCCCC10
00690000DFF7000220
08F902006DF7020120
3FF903007FF7030120
3FF903008FF7030120
3FF903008FF7030120
3FF903008FF7030120
3FF903008FF7030120
3FF903008FF7030120
3FF903008FF7030120
3FF902104A92030120
3FFA00400000230210
3FFE10033333200300
1FFFB2000000004200
0BFFFFB87677AA2000
02DFFFFFFFFF900000
0016BDFFEC94000000
ENDCHAR
STARTCHAR umacron
ENCODING 363
SWIDTH 846 0
DWIDTH 17 0
BBX 17 22 0 -2
BITMAP
000003333333340000
000048000000012000
0004E8023333012000
001EF8000000012000
003FFA000000020000
003FCCCDFFFFCCCC10
00690000DFF7000220
08F902006DF7020120
3FF903007FF7030120
3FF903008FF7030120
3FF903008FF7030120
3FF903008FF7030120
3FF903008FF7030120
3FF903008FF7030120
3FF903008FF7030120
3FF902104A92030120
3FFA00400000230210
3FFE10033333200300
1FFFB2000000004200
0BFFFFB87677AA2000
02DFFFFFFFFF900000
0016BDFFEC94000000
ENDCHAR
STARTCHAR Ubreve
ENCODING 364
SWIDTH 846 0
DWIDTH 17 0
BBX 17 23 0 -2
BITMAP
000003333023331000
0000760033C0003000
0008F7040210403000
004FF8023333012000
005FFD100000000000
004FFFC51013100000
001B3334EFFA333410
01B90000DFF7000120
1DF902006CF7020120
3FF903007FF7030120
3FF903008FF7030120
3FF903008FF7030120
3FF903008FF7030120
3FF903008FF7030120
3FF903008FF7030120
3FF903008FF7030120
3FF902104A92030120
3FFA00400000230210
3FFE10033333200400
1FFFC2000000005200
0BFFFFC97677AB2000
02DFFFFFFFFF900000
0016BDFFEC94000000
ENDCHAR
STARTCHAR ubreve
ENCODING 365
SWIDTH 846 0
DWIDTH 17 0
BBX 17 23 0 -2
BITMAP
000003333023331000
0000760033C0003000
0008F7040210403000
004FF8023333012000
005FFD100000000000
004FFFC51013100000
001B3334EFFA333410
01B90000DFF7000120
1DF902006CF7020120
3FF903007FF7030120
3FF903008FF7030120
3FF903008FF7030120
3FF903008FF7030120
3FF903008FF7030120
3FF903008FF7030120
3FF903008FF7030120
3FF902104A92030120
3FFA00400000230210
3FFE10033333200400
1FFFC2000000005200
0BFFFFC97677AB2000
02DFFFFFFFFF900000
0016BDFFEC94000000
ENDCHAR
STARTCHAR Uring
ENCODING 366
SWIDTH 846 0
DWIDTH 17 0
BBX 17 26 0 -2
BITMAP
000000133333200000
000003313333140000
000059040000322000
0006F7123EC0303000
002FF6125FE0303000
005FF6041530303000
005FF8013333002000
005FFC000000000000
004FFFB41002110000
001B3334EFFA333410
01C90000CDF7000120
1DF903004DF7030120
3FF903008FF7030120
3FF903008FF7030120
3FF903008FF7030120
3FF903008FF7030120
3FF903008FF7030120
3FF903008FF7030120
3FF903008FF7030120
3FF902108FF7030120
3FFA00403871230210
3FFE10033333200400
1FFFC2000000005200
0AFFFFC97677AB2000
01DFFFFFFFFF900000
0006BDFFEC94000000
ENDCHAR
STARTCHAR uring
ENCODING 367
SWIDTH 846 0
DWIDTH 17 0
BBX 17 26 0 -2
BITMAP
000000133333200000
000003313333140000
000059040000322000
0006F7123EC0303000
002FF6125FE0303000
005FF6041530303000
005FF8013333002000
005FFC000000000000
004FFFB41002110000
001B3334EFFA333410
01C90000CDF7000120
1DF903004DF7030120
3FF903008FF7030120
3FF903008FF7030120
3FF903008FF7030120
3FF903008FF7030120
3FF903008FF7030120
3FF903008FF7030120
3FF903008FF7030120
3FF902108FF7030120
3FFA00403871230210
3FFE10033333200400
1FFFC2000000005200
0AFFFFC97677AB2000
01DFFFFFFFFF900000
0006BDFFEC94000000
ENDCHAR
STARTCHAR Uhungarumlaut
ENCODING 368
SWIDTH 846 0
DWIDTH 17 0
BBX 17 24 0 -2
BITMAP
000000333412333200
000005700159000300
00006F4104E7011200
0003FF1307F4212000
0007FC030AF1302000
000AF9000EC0001000
000EF8003FB0020000
002FCCCDFFFFCCCC10
00790000DFF7000220
08F902006DF7020120
3FF903007FF7030120
3FF903008FF7030120
3FF903008FF7030120
3FF903008FF7030120
3FF903008FF7030120
3FF903008FF7030120
3FF903008FF7030120
3FF902104A92030120
3FFA00400000230210
3FFE10033333200300
1FFFB2000000004200
0BFFFFB87677AA2000
02DFFFFFFFFF900000
0016BDFFEC94000000
ENDCHAR
STARTCHAR uhungarumlaut
ENCODING 369
SWIDTH 846 0
DWIDTH 17 0
BBX 17 24 0 -2
BITMAP
000000333412333200
000005700159000300
00006F4104E7011200
0003FF1307F4212000
0007FC030AF1302000
000AF9000EC0001000
000EF8003FB0020000
002FCCCDFFFFCCCC10
00790000DFF7000220
08F902006DF7020120
3FF903007FF7030120
3FF903008FF7030120
3FF903008FF7030120
3FF903008FF7030120
3FF903008FF7030120
3FF903008FF7030120
3FF903008FF7030120
3FF902104A92030120
3FFA00400000230210
3FFE10033333200300
1FFFB2000000004200
0BFFFFB87677AA2000
02DFFFFFFFFF900000
0016BDFFEC94000000
ENDCHAR
STARTCHAR Uogonek
ENCODING 370
SWIDTH 846 0
DWIDTH 17 0
BBX 17 21 0 -6
BITMAP
001633333016333410
02C9000033D7000120
1EF903006EF7030120
3FF903008FF7030120
3FF903008FF7030120
3FF903008FF7030120
3FF903008FF7030120
3FF903008FF7030120
3FF903008FF7030120
3FF903008FF7030120
3FF902104881030120
3FFB00400000230310
2FFE10033443200500
1FFFB2000300005400
0BFFFFB803058B4000
03EFFFFD0306A30000
002AEFFC0330300000
00000DFE0000300000
00000FFFC766500000
00000EFFFFFA000000
000005DFFF70000000
ENDCHAR
STARTCHAR uogonek
ENCODING 371
SWIDTH 846 0
DWIDTH 17 0
BBX 17 21 0 -6
BITMAP
001633333016333410
02C9000033D7000120
1EF903006EF7030120
3FF903008FF7030120
3FF903008FF7030120
3FF903008FF7030120
3FF903008FF7030120
3FF903008FF7030120
3FF903008FF7030120
3FF903008FF7030120
3FF902104881030120
3FFB00400000230310
2FFE10033443200500
1FFFB2000300005400
0BFFFFB803058B4000
03EFFFFD0306A30000
002AEFFC0330300000
00000DFE0000300000
00000FFFC766500000
00000EFFFFFA000000
000005DFFF70000000
ENDCHAR
STARTCHAR Wcircumflex
ENCODING 372
SWIDTH 931 0
DWIDTH 19 0
BBX 18 23 0 -2
BITMAP
000000000333100000
000000133000232000
000003601333103000
00005E602000203000
0003FF601586203000
0006FFCCFFFFFC8000
00283334FFFFF83335
04E8000056BFF40003
2FF80200302EF40203
4FF80300307FF40303
4FF80300307FF40303
4FF80300346AF40303
4FF80300C100940303
4FF803005132130303
4FF803000303000303
4FF803002100300303
4FFB012030A1300303
4FFE103212F5031203
2FFF502306F9023021
0DFFB0000AFD000030
07FFF7666EFF866620
02FFFFFD3FFFFFD300
009FFFB109FFFC1000
ENDCHAR
STARTCHAR wcircumflex
ENCODING 373
SWIDTH 931 0
DWIDTH 19 0
BBX 18 23 0 -2
BITMAP
000000000333100000
000000133000232000
000003601333103000
00005E602000203000
0003FF601586203000
0006FFCCFFFFFC8000
00283334FFFFF83335
04E8000056BFF40003
2FF80200302EF40203
4FF80300307FF40303
4FF80300307FF40303
4FF80300346AF40303
4FF80300C100940303
4FF803005132130303
4FF803000303000303
4FF803002100300303
4FFB012030A1300303
4FFE103212F5031203
2FFF502306F9023021
0DFFB0000AFD000030
07FFF7666EFF866620
02FFFFFD3FFFFFD300
009FFFB109FFFC1000
ENDCHAR
STARTCHAR Ycircumflex
ENCODING 374
SWIDTH 805 0
DWIDTH 16 0
BBX 16 23 0 -2
BITMAP
0000000133300000
0000024300044100
0000540143300400
0007F20300130300
006FF20024100300
00AFF79DFFFB7300
00A73338FFF63334
04E300036EF10003
5FF303036FF10303
9FF30303BFF10303
9FF30303BFF10303
9FF40300CFA00303
9FF701304E203003
8FFE203100021030
6FFFC00400120220
0CFFF90034201300
02EFFF5003004000
005FFFE003031000
0009FFF002030000
0001DFF000030000
0000CFF866650000
0000CFFFFF900000
00009FFFE6000000
ENDCHAR
STARTCHAR ycircumflex
ENCODING 375
SWIDTH 805 0
DWIDTH 16 0
BBX 16 23 0 -2
BITMAP
0000000133300000
0000024300044100
0000540143300400
0007F20300130300
006FF20024100300
00AFF79DFFFB7300
00A73338FFF63334
04E300036EF10003
5FF303036FF10303
9FF30303BFF10303
9FF30303BFF10303
9FF40300CFA00303
9FF701304E203003
8FFE203100021030
6FFFC00400120220
0CFFF90034201300
02EFFF5003004000
005FFFE003031000
0009FFF002030000
0001DFF000030000
0000CFF866650000
0000CFFFFF900000
00009FFFE6000000
ENDCHAR
STARTCHAR Ydieresis
ENCODING 376
SWIDTH 805 0
DWIDTH 16 0
BBX 16 22 0 -2
BITMAP
0000333332333400
0006A0003C000120
008FA0304D030120
02FFA0004D000120
02FFC0005E100100
02FECCCEFFFECCC8
05F40005FFF20004
5FF301037FF10103
9FF30303AFF10303
9FF30303BFF10303
9FF30301CFC00303
9FF602206F303002
8FFD103101022010
5FFFB00400130110
0CFFF70034200200
02EFFF4003003000
005FFFE003021000
0009FFF002030000
0001DFF000030000
0000CFF866650000
0000CFFFFF900000
00009FFFE6000000
ENDCHAR
STARTCHAR Zacute
ENCODING 377
SWIDTH 760 0
DWIDTH 15 0
BBX 15 22 0 -2
BITMAP
0000001357999400
00005A8642100400
0008E01333310300
009FE00000000100
00DFE23468AB3000
00DC333333333330
02E9000000000030
1EF9023333330030
3FFA000000021030
3FFFFFFF30130130
3FFFFFF500400400
05666C8004004000
00005B0031031000
0003C10220220000
001C201201200000
00B6013004333330
09F3030000000030
5FF3023333332030
8FF3000000000030
8FFA666666666640
8FFFFFFFFFFFF600
6FFFFFFFFFFE4000
ENDCHAR
STARTCHAR zacute
ENCODING 378
SWIDTH 760 0
DWIDTH 15 0
BBX 15 22 0 -2
BITMAP
0000001357999400
00005A8642100400
0008E01333310300
009FE00000000100
00DFE23468AB3000
00DC333333333330
02E9000000000030
1EF9023333330030
3FFA000000021030
3FFFFFFF30130130
3FFFFFF500400400
05666C8004004000
00005B0031031000
0003C10220220000
001C201201200000
00B6013004333330
09F3030000000030
5FF3023333332030
8FF3000000000030
8FFA666666666640
8FFFFFFFFFFFF600
6FFFFFFFFFFE4000
ENDCHAR
STARTCHAR Zdotaccent
ENCODING 379
SWIDTH 760 0
DWIDTH 15 0
BBX 15 22 0 -2
BITMAP
0000003333320000
0000079000030000
00009F9030030000
0002FF9010030000
0002FFB000100000
0017333333333330
02C9000000000030
1EF9023333330030
3FFA000000021030
3FFFFFFF30130130
3FFFFFF500400400
05666C8004004000
00005B0031031000
0003C10220220000
001C201201200000
00B6013004333330
09F3030000000030
5FF3023333332030
8FF3000000000030
8FFA666666666640
8FFFFFFFFFFFF600
6FFFFFFFFFFE4000
ENDCHAR
STARTCHAR zdotaccent
ENCODING 380
SWIDTH 760 0
DWIDTH 15 0
BBX 15 22 0 -2
BITMAP
0000003333320000
0000079000030000
00009F9030030000
0002FF9010030000
0002FFB000100000
0017333333333330
02C9000000000030
1EF9023333330030
3FFA000000021030
3FFFFFFF30130130
3FFFFFF500400400
05666C8004004000
00005B0031031000
0003C10220220000
001C201201200000
00B6013004333330
09F3030000000030
5FF3023333332030
8FF3000000000030
8FFA666666666640
8FFFFFFFFFFFF600
6FFFFFFFFFFE4000
ENDCHAR
STARTCHAR Zcaron
ENCODING 381
SWIDTH 760 0
DWIDTH 15 0
BBX 15 23 0 -2
BITMAP
0000141000033100
0001612033300300
002CB02100110300
00EFB00333200200
01FFF60000012000
01FFFFE712970000
00BC333333333330
01B9000000000030
1DF9023333330030
3FFA000000021030
3FFFFFFF30130130
2FFFFFF500400400
05666C8004004000
00005B0031031000
0003C10220220000
001C201201200000
00B6013004333330
09F3030000000030
5FF3023333332030
8FF3000000000030
8FFA666666666640
8FFFFFFFFFFFF600
6FFFFFFFFFFE4000
ENDCHAR
STARTCHAR zcaron
ENCODING 382
SWIDTH 760 0
DWIDTH 15 0
BBX 15 23 0 -2
BITMAP
0000141000033100
0001612033300300
002CB02100110300
00EFB00333200200
01FFF60000012000
01FFFFE712970000
00BC333333333330
01B9000000000030
1DF9023333330030
3FFA000000021030
3FFFFFFF30130130
2FFFFFF500400400
05666C8004004000
00005B0031031000
0003C10220220000
001C201201200000
00B6013004333330
09F3030000000030
5FF3023333332030
8FF3000000000030
8FFA666666666640
8FFFFFFFFFFFF600
6FFFFFFFFFFE4000
ENDCHAR
STARTCHAR Schwa
ENCODING 399
SWIDTH 815 0
DWIDTH 16 0
BBX 16 17 0 -2
BITMAP
0000633333333310
001AE01333332031
00BFE00000004104
00DFFCBBBBA10302
00DFFFFFFFF40303
00B7000000000303
02D5000000000303
2EF5033333333403
6FF5030000000303
6FF50301FFF40303
6FF603009BA10303
6FF7032000002103
6FFD002333331004
5FFFA10000000150
2FFFFFB87678B800
07FFFFFFFFFF6000
0039CEFFEC820000
ENDCHAR
STARTCHAR florin
ENCODING 402
SWIDTH 674 0
DWIDTH 13 0
BBX 14 17 0 -2
BITMAP
00000003333350
00000160000021
00002C20133021
0002ED00400021
000AFC00306B30
001B9701206640
02C30001200021
3EF30334533021
9FF50001200041
9FFFFB0120AF70
8FFC840120A500
27F30004004000
2DF30332022000
8FF30000130000
9FF96679500000
9FFFFFE4000000
7FFFD920000000
ENDCHAR
STARTCHAR Ohorn
ENCODING 416
SWIDTH 847 0
DWIDTH 17 0
BBX 18 19 0 -2
BITMAP
000000000000033341
000000000000770003
000003333332311212
000130011013732150
003A00200000260300
05F803002430040210
1EF70300EFF4030210
3FF70300FFF5030210
5FF70300CFF5030210
5FF703009FF5030210
5FF703009FF5030210
5FF703009FF5030210
5FF703009FE3030210
5FF800400000210300
5FFD00033333100300
4FFFA1000000014100
1EFFFFB87678A90000
06FFFFFFFFFF800000
0038CEFFEC93000000
ENDCHAR
STARTCHAR ohorn
ENCODING 417
SWIDTH 847 0
DWIDTH 17 0
BBX 18 19 0 -2
BITMAP
000000000000033341
000000000000770003
000003333332311212
000130011013732150
003A00200000260300
05F803002430040210
1EF70300EFF4030210
3FF70300FFF5030210
5FF70300CFF5030210
5FF703009FF5030210
5FF703009FF5030210
5FF703009FF5030210
5FF703009FE3030210
5FF800400000210300
5FFD00033333100300
4FFFA1000000014100
1EFFFFB87678A90000
06FFFFFFFFFF800000
0038CEFFEC93000000
ENDCHAR
STARTCHAR Uhorn
ENCODING 431
SWIDTH 856 0
DWIDTH 17 0
BBX 18 19 0 -2
BITMAP
000000000000033331
0000000000007A0003
001733333017310303
02C9000033D7014222
1EF903006EF7030140
3FF903008FF7030120
3FF903008FF7030120
3FF903008FF7030120
3FF903008FF7030120
3FF903008FF7030120
3FF903008FF7030120
3FF903008FF7030120
3FF902104881030120
3FFA00400000230210
3FFE10033333200400
2FFFC2000000005200
0DFFFFC97677AA1000
03EFFFFFFFFF900000
0017BEFFEC94000000
ENDCHAR
STARTCHAR uhorn
ENCODING 432
SWIDTH 856 0
DWIDTH 17 0
BBX 18 19 0 -2
BITMAP
000000000000033331
0000000000007A0003
001733333017310303
02C9000033D7014222
1EF903006EF7030140
3FF903008FF7030120
3FF903008FF7030120
3FF903008FF7030120
3FF903008FF7030120
3FF903008FF7030120
3FF903008FF7030120
3FF903008FF7030120
3FF902104881030120
3FFA00400000230210
3FFE10033333200400
2FFFC2000000005200
0DFFFFC97677AA1000
03EFFFFFFFFF900000
0017BEFFEC94000000
ENDCHAR
STARTCHAR Acaron
ENCODING 461
SWIDTH 830 0
DWIDTH 17 0
BBX 16 23 0 -2
BITMAP
0000033000013400
0000341113320300
0004E60200020300
003FF60133310200
006FFD4000002100
006FFFFC514A4000
003EFF5333333200
00019A0000000300
0004E40233320120
000ED00300030030
005F80212F303030
00BF20307F804003
02FC0120CFC01303
08F8030066600303
0DF6030000000303
3FF6043333333503
5FF6030000000303
6FF60304FFF40303
6FF60204FFF40203
6FF60003AFF40003
6FFB66657FFA6666
6FFFFF907FFFFFA1
4EFFF7004EFFF700
ENDCHAR
STARTCHAR acaron
ENCODING 462
SWIDTH 830 0
DWIDTH 17 0
BBX 16 23 0 -2
BITMAP
0000033000013400
0000341113320300
0004E60200020300
003FF60133310200
006FFD4000002100
006FFFFC514A4000
003EFF5333333200
00019A0000000300
0004E40233320120
000ED00300030030
005F80212F303030
00BF20307F804003
02FC0120CFC01303
08F8030066600303
0DF6030000000303
3FF6043333333503
5FF6030000000303
6FF60304FFF40303
6FF60204FFF40203
6FF60003AFF40003
6FFB66657FFA6666
6FFFFF907FFFFFA1
4EFFF7004EFFF700
ENDCHAR
STARTCHAR Icaron
ENCODING 463
SWIDTH 705 0
DWIDTH 14 0
BBX 14 23 0 -2
BITMAP
00004200002330
00052112331030
007F2020002030
07FF3013330020
09FFB200000200
09FFFFA316A200
06E93333333333
02D50000000003
3EF50233433103
6FF93300301334
6FFFFF10305F80
5FFFFF10305500
033CFF10303000
000BFF10303000
000BFF10303000
000BFF10303000
00099910302332
00960000300003
1BF50333433203
6FF50000000003
6FFB6666666662
6FFFFFFFFFFE30
4FFFFFFFFFC200
ENDCHAR
STARTCHAR icaron
ENCODING 464
SWIDTH 705 0
DWIDTH 14 0
BBX 14 23 0 -2
BITMAP
00004200002330
00052112331030
007F2020002030
07FF3013330020
09FFB200000200
09FFFFA316A200
06E93333333333
02D50000000003
3EF50233433103
6FF93300301334
6FFFFF10305F80
5FFFFF10305500
033CFF10303000
000BFF10303000
000BFF10303000
000BFF10303000
00099910302332
00960000300003
1BF50333433203
6FF50000000003
6FFB6666666662
6FFFFFFFFFFE30
4FFFFFFFFFC200
ENDCHAR
STARTCHAR Ocaron
ENCODING 465
SWIDTH 837 0
DWIDTH 17 0
BBX 17 23 0 -2
BITMAP
000003210001340000
000087013332021000
000AF7020002021000
004FF7003331030000
005FFD400000240000
004FFFFC614A900000
0019ED864345331000
000570033333103200
008C00400000320300
09F803002430030200
1FF70300EFF4030210
4FF70300FFF5030210
5FF70300CFF5030210
5FF703009FF5030210
5FF703009FF5030210
5FF703009FF5030210
5FF703009FE3030210
5FF800400000220300
4FFD00033333100400
2FFFA1000000005200
0CFFFFB87678AB2000
02DFFFFFFFFF900000
0016BEFFEC94000000
ENDCHAR
STARTCHAR ocaron
ENCODING 466
SWIDTH 837 0
DWIDTH 17 0
BBX 17 23 0 -2
BITMAP
000003210001340000
000087013332021000
000AF7020002021000
004FF7003331030000
005FFD400000240000
004FFFFC614A900000
0019ED864345331000
000570033333103200
008C00400000320300
09F803002430030200
1FF70300EFF4030210
4FF70300FFF5030210
5FF70300CFF5030210
5FF703009FF5030210
5FF703009FF5030210
5FF703009FF5030210
5FF703009FE3030210
5FF800400000220300
4FFD00033333100400
2FFFA1000000005200
0CFFFFB87678AB2000
02DFFFFFFFFF900000
0016BEFFEC94000000
ENDCHAR
STARTCHAR Ucaron
ENCODING 467
SWIDTH 846 0
DWIDTH 17 0
BBX 17 23 0 -2
BITMAP
000001200001340000
000037001333012000
0005E8020002012000
002FF9003332011000
003FFE500000210000
003FFFFD6139500000
001B3334EFDA333410
02C9000075D7000120
1EF903006EF7030120
3FF903008FF7030120
3FF903008FF7030120
3FF903008FF7030120
3FF903008FF7030120
3FF903008FF7030120
3FF903008FF7030120
3FF903008FF7030120
3FF902104881030120
3FFA00400000220210
3FFE10033333200400
1FFFC2000000005200
0AFFFFC97677AB2000
01CFFFFFFFFF900000
0006BDEFEC94000000
ENDCHAR
STARTCHAR ucaron
ENCODING 468
SWIDTH 846 0
DWIDTH 17 0
BBX 17 23 0 -2
BITMAP
000001200001340000
000037001333012000
0005E8020002012000
002FF9003332011000
003FFE500000210000
003FFFFD6139500000
001B3334EFDA333410
02C9000075D7000120
1EF903006EF7030120
3FF903008FF7030120
3FF903008FF7030120
3FF903008FF7030120
3FF903008FF7030120
3FF903008FF7030120
3FF903008FF7030120
3FF903008FF7030120
3FF902104881030120
3FFA00400000220210
3FFE10033333200400
1FFFC2000000005200
0AFFFFC97677AB2000
01CFFFFFFFFF900000
0006BDEFEC94000000
ENDCHAR
STARTCHAR Udieresismacron
ENCODING 469
SWIDTH 846 0
DWIDTH 17 0
BBX 17 26 0 -2
BITMAP
000003333333340000
000078023333021000
0009F8000000021000
004FFEAABDCAA81000
004FF2000D50004000
004FF1000C40003000
003FF1030C40303000
00AFF1000C40003000
00BFF3001E60011000
00BFCCCDFFFFCCCC10
02D90000DFF7000220
1EF902006DF7020120
3FF903007FF7030120
3FF903008FF7030120
3FF903008FF7030120
3FF903008FF7030120
3FF903008FF7030120
3FF903008FF7030120
3FF903008FF7030120
3FF902104A92030120
3FFA00400000230210
3FFE10033333200300
1FFFB2000000004200
0AFFFFB87677AA2000
01CFFFFFFFFF900000
0006BDEFEC94000000
ENDCHAR
STARTCHAR udieresismacron
ENCODING 470
SWIDTH 846 0
DWIDTH 17 0
BBX 17 26 0 -2
BITMAP
000003333333340000
000078023333021000
0009F8000000021000
004FFEAABDCAA81000
004FF2000D50004000
004FF1000C40003000
003FF1030C40303000
00AFF1000C40003000
00BFF3001E60011000
00BFCCCDFFFFCCCC10
02D90000DFF7000220
1EF902006DF7020120
3FF903007FF7030120
3FF903008FF7030120
3FF903008FF7030120
3FF903008FF7030120
3FF903008FF7030120
3FF903008FF7030120
3FF903008FF7030120
3FF902104A92030120
3FFA00400000230210
3FFE10033333200300
1FFFB2000000004200
0AFFFFB87677AA2000
01CFFFFFFFFF900000
0006BDEFEC94000000
ENDCHAR
STARTCHAR Udieresisacute
ENCODING 471
SWIDTH 846 0
DWIDTH 17 0
BBX 17 27 0 -2
BITMAP
000000000025200000
000000008A85600000
0000001C5130300000
000002DF4100300000
000008FF4001000000
000017996BB4332000
0002C1000D40003000
003EF1030C40303000
00AFF1000C40003000
00BFF3001E60010000
00BFCCCDFFFFCCCC10
03E90000DFF7000220
1EF902006DF7020120
3FF903007FF7030120
3FF903008FF7030120
3FF903008FF7030120
3FF903008FF7030120
3FF903008FF7030120
3FF903008FF7030120
3FF903008FF7030120
3FF902104A92030120
3FFA00400000230210
3FFE10033333200300
1FFFB2000000004200
0AFFFFB87677AA2000
01CFFFFFFFFF900000
0006BDEFEC94000000
ENDCHAR
STARTCHAR udieresisacute
ENCODING 472
SWIDTH 846 0
DWIDTH 17 0
BBX 17 27 0 -2
BITMAP
000000000025200000
000000008A85600000
0000001C5130300000
000002DF4100300000
000008FF4001000000
000017996BB4332000
0002C1000D40003000
003EF1030C40303000
00AFF1000C40003000
00BFF3001E60010000
00BFCCCDFFFFCCCC10
03E90000DFF7000220
1EF902006DF7020120
3FF903007FF7030120
3FF903008FF7030120
3FF903008FF7030120
3FF903008FF7030120
3FF903008FF7030120
3FF903008FF7030120
3FF903008FF7030120
3FF902104A92030120
3FFA00400000230210
3FFE10033333200300
1FFFB2000000004200
0AFFFFB87677AA2000
01CFFFFFFFFF900000
0006BDEFEC94000000
ENDCHAR
STARTCHAR Udieresiscaron
ENCODING 473
SWIDTH 846 0
DWIDTH 17 0
BBX 17 27 0 -2
BITMAP
000005430001340000
0000A8013332012000
001CF8013332012000
003FFB100000041000
004FFFFB5138B30000
003FFB99AFC9432000
0006F1000D40003000
003EF1030C40303000
00AFF1000C40003000
00BFF3001E60010000
00BFCCCDFFFFCCCC10
03D90000DFF7000220
1EF902006DF7020120
3FF903007FF7030120
3FF903008FF7030120
3FF903008FF7030120
3FF903008FF7030120
3FF903008FF7030120
3FF903008FF7030120
3FF903008FF7030120
3FF902104A92030120
3FFA00400000230210
3FFE10033333200300
1FFFB2000000004200
0AFFFFB87677AA2000
01CFFFFFFFFF900000
0006BDEFEC94000000
ENDCHAR
STARTCHAR udieresiscaron
ENCODING 474
SWIDTH 846 0
DWIDTH 17 0
BBX 17 27 0 -2
BITMAP
000005430001340000
0000A8013332012000
001CF8013332012000
003FFB100000041000
004FFFFB5138B30000
003FFB99AFC9432000
0006F1000D40003000
003EF1030C40303000
00AFF1000C40003000
00BFF3001E60010000
00BFCCCDFFFFCCCC10
03D90000DFF7000220
1EF902006DF7020120
3FF903007FF7030120
3FF903008FF7030120
3FF903008FF7030120
3FF903008FF7030120
3FF903008FF7030120
3FF903008FF7030120
3FF903008FF7030120
3FF902104A92030120
3FFA00400000230210
3FFE10033333200300
1FFFB2000000004200
0AFFFFB87677AA2000
01CFFFFFFFFF900000
0006BDEFEC94000000
ENDCHAR
STARTCHAR Udieresisgrave
ENCODING 475
SWIDTH 846 0
DWIDTH 17 0
BBX 17 27 0 -2
BITMAP
000000035100000000
0000006A59A6000000
000009F71314000000
00005FF70003000000
00005FFA2002000000
00005B99AE72332000
0002C1000D40003000
003EF1030C40303000
00AFF1000C40003000
00BFF3001E60010000
00BFCCCDFFFFCCCC10
03E90000DFF7000220
1EF902006DF7020120
3FF903007FF7030120
3FF903008FF7030120
3FF903008FF7030120
3FF903008FF7030120
3FF903008FF7030120
3FF903008FF7030120
3FF903008FF7030120
3FF902104A92030120
3FFA00400000230210
3FFE10033333200300
1FFFB2000000004200
0AFFFFB87677AA2000
01CFFFFFFFFF900000
0006BDEFEC94000000
ENDCHAR
STARTCHAR udieresisgrave
ENCODING 476
SWIDTH 846 0
DWIDTH 17 0
BBX 17 27 0 -2
BITMAP
000000035100000000
0000006A59A6000000
000009F71314000000
00005FF70003000000
00005FFA2002000000
00005B99AE72332000
0002C1000D40003000
003EF1030C40303000
00AFF1000C40003000
00BFF3001E60010000
00BFCCCDFFFFCCCC10
03E90000DFF7000220
1EF902006DF7020120
3FF903007FF7030120
3FF903008FF7030120
3FF903008FF7030120
3FF903008FF7030120
3FF903008FF7030120
3FF903008FF7030120
3FF903008FF7030120
3FF902104A92030120
3FFA00400000230210
3FFE10033333200300
1FFFB2000000004200
0AFFFFB87677AA2000
01CFFFFFFFFF900000
0006BDEFEC94000000
ENDCHAR
STARTCHAR Gcaron
ENCODING 486
SWIDTH 808 0
DWIDTH 16 0
BBX 16 23 0 -2
BITMAP
0000042000023300
0000521123310300
0007F30200020300
006FF30133300200
009FFB3000002000
009FFFFB415A2000
005FFB6433333320
0002500000000030
0029002333331030
03E8012000000130
0DF70300CFFFF700
3FF70300FFFE5000
4FF7030086853332
5FF7030033C00003
5FF703008ED00203
5FF70300FFD00303
5FF7030068700303
5FF8023000000303
4FFD002333333203
2FFF800000000003
0CFFFD9666666662
03EFFFFFFFFFFE40
0029DFFFFFFFD300
ENDCHAR
STARTCHAR gcaron
ENCODING 487
SWIDTH 808 0
DWIDTH 16 0
BBX 16 23 0 -2
BITMAP
0000042000023300
0000521123310300
0007F30200020300
006FF30133300200
009FFB3000002000
009FFFFB415A2000
005FFB6433333320
0002500000000030
0029002333331030
03E8012000000130
0DF70300CFFFF700
3FF70300FFFE5000
4FF7030086853332
5FF7030033C00003
5FF703008ED00203
5FF70300FFD00303
5FF7030068700303
5FF8023000000303
4FFD002333333203
2FFF800000000003
0CFFFD9666666662
03EFFFFFFFFFFE40
0029DFFFFFFFD300
ENDCHAR
STARTCHAR Scommaaccent
ENCODING 536
SWIDTH 750 0
DWIDTH 15 0
BBX 15 24 0 -9
BITMAP
0000233333333400
0005103333330300
01A7031000000300
0CF50301CDDDD700
4FF5030069BD6000
7FF5030000003400
7FF8014331000130
7FFE300003340030
5FFFFC8642012030
0DFFFFFFFD003030
01A7000000003030
03E5000000021030
3EF5033333320120
7FF6000000015300
7FFFEEEDDDDE3000
7FFFFFB000030000
4EFFFFA133130000
0000AFA000330000
0001FFB000330000
0001FFFCB3130000
0001FFE133210000
00008FF778300000
0000DFFFE3000000
0000BFEA20000000
ENDCHAR
STARTCHAR scommaaccent
ENCODING 537
SWIDTH 750 0
DWIDTH 15 0
BBX 15 24 0 -9
BITMAP
0000233333333400
0005103333330300
01A7031000000300
0CF50301CDDDD700
4FF5030069BD6000
7FF5030000003400
7FF8014331000130
7FFE300003340030
5FFFFC8642012030
0DFFFFFFFD003030
01A7000000003030
03E5000000021030
3EF5033333320120
7FF6000000015300
7FFFEEEDDDDE3000
7FFFFFB000030000
4EFFFFA133130000
0000AFA000330000
0001FFB000330000
0001FFFCB3130000
0001FFE133210000
00008FF778300000
0000DFFFE3000000
0000BFEA20000000
ENDCHAR
STARTCHAR uni021A
ENCODING 538
SWIDTH 756 0
DWIDTH 15 0
BBX 16 24 0 -9
BITMAP
0063333333333340
1AD0133343333021
CFD0000030000021
EFF7663030056670
EFFFFF80300CFC20
BFFFFF80300C8000
0004FF8030030000
0004FF8030030000
0004FF8030030000
0004FF8030030000
0004FF8030030000
0004FF8030030000
0004FF8010030000
0004FF9000030000
0004FFFDDDB10000
0004FF9000030000
0002EF8133030000
0001CF8002130000
0003FF9002130000
0004FFFCA3030000
0003FFC132210000
0000AFE777200000
0000FFFFC2000000
0000DFE910000000
ENDCHAR
STARTCHAR uni021B
ENCODING 539
SWIDTH 756 0
DWIDTH 15 0
BBX 16 24 0 -9
BITMAP
0063333333333340
1AD0133343333021
CFD0000030000021
EFF7663030056670
EFFFFF80300CFC20
BFFFFF80300C8000
0004FF8030030000
0004FF8030030000
0004FF8030030000
0004FF8030030000
0004FF8030030000
0004FF8030030000
0004FF8010030000
0004FF9000030000
0004FFFDDDB10000
0004FF9000030000
0002EF8133030000
0001CF8002130000
0003FF9002130000
0004FFFCA3030000
0003FFC132210000
0000AFE777200000
0000FFFFC2000000
0000DFE910000000
ENDCHAR
STARTCHAR dotlessj
ENCODING 567
SWIDTH 788 0
DWIDTH 16 0
BBX 15 17 0 -2
BITMAP
0000000003533340
000000006F300030
00000006FF303030
00000009FF303030
00000009FF303030
00000009FF303030
0014333BFF303030
02C20008FF303030
3DF20208FF303030
AFF20308FF303030
AFF2030287003030
AFF4032000032030
9FF8002333320040
7FFF600000000510
3FFFFD97667A9100
07FFFFFFFFF80000
0039DEFED9300000
ENDCHAR
STARTCHAR ascript
ENCODING 593
SWIDTH 846 0
DWIDTH 17 0
BBX 17 17 0 -2
BITMAP
000003333333341000
000150033333104200
003A00400000320400
04E803000000030300
0EF70300CFE3030300
3FF70300FFF4030300
5FF70300DFF4030300
5FF70300AFF4030300
5FF70300AFF4030300
5FF70300AFF4030300
5FF70300AFF4030300
5FF800300000030300
5FFC00133333330210
4FFF80000000000210
1FFFFD866666666600
07FFFFFFFFFFFFA100
005BEFFFFFFFF80000
ENDCHAR
STARTCHAR schwa
ENCODING 601
SWIDTH 815 0
DWIDTH 16 0
BBX 16 17 0 -2
BITMAP
0000633333333310
001AE01333332031
00BFE00000004104
00DFFCBBBBA10302
00DFFFFFFFF40303
00B7000000000303
02D5000000000303
2EF5033333333403
6FF5030000000303
6FF50301FFF40303
6FF603009BA10303
6FF7032000002103
6FFD002333331004
5FFFA10000000150
2FFFFFB87678B800
07FFFFFFFFFF6000
0039CEFFEC820000
ENDCHAR
STARTCHAR gscript
ENCODING 609
SWIDTH 815 0
DWIDTH 16 0
BBX 16 19 0 -4
BITMAP
0000043333333400
0002400000000041
0039002333331004
04E6022000002103
1EF50301ACA00303
5FF40303FFF10303
7FF40301EFF10303
7FF5031000000303
7FF8003333333403
6FFE200000000303
4FFFE72100000303
0CFFFFFFFFF10303
02CFFBAAAA700303
0005E00000002204
005FE01333333022
00DFE10000012630
00DFFFFFFFFFD200
00CFFFFFFFFA1000
0036666664100000
ENDCHAR
STARTCHAR commaturnedmod
ENCODING 699
SWIDTH 600 0
DWIDTH 12 0
BBX 8 9 2 6
BITMAP
00033333
00742313
09F038B3
7FF03003
BFF04313
CFF00003
CFF76664
CFFFFF80
AFFFE500
ENDCHAR
STARTCHAR apostrophemod
ENCODING 700
SWIDTH 600 0
DWIDTH 12 0
BBX 8 10 2 6
BITMAP
00133333
02C00003
2DF03313
BFF00033
CFF10033
CFFDB432
BFF33312
4FF97740
8FFFF500
6FFC4000
ENDCHAR
STARTCHAR ringhalfright
ENCODING 702
SWIDTH 412 0
DWIDTH 8 0
BBX 9 10 0 5
BITMAP
0073333300
09E0131300
AFF1003210
CFFFD03210
CFFFC03210
15E0131300
5FF0002400
CFFFFF7000
CFFFE50000
4665100000
ENDCHAR
STARTCHAR ringhalfleft
ENCODING 703
SWIDTH 412 0
DWIDTH 8 0
BBX 9 10 0 5
BITMAP
0003333410
01B1142210
2CE0304500
AFE031C200
CFE0304300
CFF0131210
CFF9100210
CFFFFFF600
7FFFFE4000
0356620000
ENDCHAR
STARTCHAR circumflex
ENCODING 710
SWIDTH 600 0
DWIDTH 12 0
BBX 12 8 0 12
BITMAP
000001333000
000332000331
008202333003
1AF102000203
9FF2159B7303
AFFDFFFFFFD3
AFFDABFFFD20
572000158100
ENDCHAR
STARTCHAR caron
ENCODING 711
SWIDTH 600 0
DWIDTH 12 0
BBX 12 8 0 12
BITMAP
001321000233
02D102333103
3EF102000203
AFF502333014
AFFFD8215A80
AFFFFFFFF600
17CFFFE92000
000275000000
ENDCHAR
STARTCHAR verticallinemod
ENCODING 712
SWIDTH 456 0
DWIDTH 9 0
BBX 9 10 0 5
BITMAP
0016333330
02D8000030
2EF8030030
4FF8030030
4FF8030030
4FF8030030
4FF8000030
4FFC666620
4FFFFFE300
3EFFFC2000
ENDCHAR
STARTCHAR firsttonechinese
ENCODING 713
SWIDTH 600 0
DWIDTH 12 0
BBX 12 7 0 12
BITMAP
001433333332
01C200000003
2DF103333203
AFF300000004
AFFFFFFFFFB1
AFFFFFFFF900
266666665000
ENDCHAR
STARTCHAR secondtonechinese
ENCODING 714
SWIDTH 600 0
DWIDTH 12 0
BBX 12 8 0 12
BITMAP
000000002332
000433331003
01B200233203
2DF103100004
AFF42468ABA1
AFFFFFFFFA00
AFFFECA85000
242100000000
ENDCHAR
STARTCHAR fourthtonechinese
ENCODING 715
SWIDTH 600 0
DWIDTH 12 0
BBX 12 8 0 12
BITMAP
000333100000
01A200233332
2CF103331003
AFF300002203
AFFFDB975324
AFFFFFFFFFB1
279BDFFFF900
000000234000
ENDCHAR
STARTCHAR verticallinelowmod
ENCODING 716
SWIDTH 456 0
DWIDTH 9 0
BBX 9 10 0 -5
BITMAP
0016333330
02D8000030
2EF8030030
4FF8030030
4FF8030030
4FF8030030
4FF8000030
4FFC666620
4FFFFFE300
3EFFFC2000
ENDCHAR
STARTCHAR breve
ENCODING 728
SWIDTH 600 0
DWIDTH 12 0
BBX 12 8 0 12
BITMAP
001333203333
02C000397003
4EF040120213
CFF403333204
CFFE72001461
9FFFFFFFF900
2DFFFFFF7000
004677510000
ENDCHAR
STARTCHAR dotaccent
ENCODING 729
SWIDTH 600 0
DWIDTH 12 0
BBX 8 8 2 12
BITMAP
00143332
01C10003
2DF00303
BFF00103
CFF20003
CFFFFFC1
BFFFFA10
26665000
ENDCHAR
STARTCHAR ring
ENCODING 730
SWIDTH 600 0
DWIDTH 12 0
BBX 12 11 0 12
BITMAP
000023333310
000413333222
01C231000303
2DE030AF5123
AFE030CF7123
CFF031351303
CFF403333204
CFFE62001471
AFFFFFFFFA10
2DFFFFFF7000
004677510000
ENDCHAR
STARTCHAR ogonek
ENCODING 731
SWIDTH 600 0
DWIDTH 12 0
BBX 9 8 2 -6
BITMAP
0005344000
01C6213000
2DF3303410
6FF2331030
8FF3000030
AFFD766610
9FFFFFC200
3CFFFA1000
ENDCHAR
STARTCHAR tilde
ENCODING 732
SWIDTH 600 0
DWIDTH 12 0
BBX 12 7 0 12
BITMAP
001413333330
01C203100003
2DF100233203
AFF456531035
AFFFFFFFFF80
AFFFFFFFE500
341136761000
ENDCHAR
STARTCHAR hungarumlaut
ENCODING 733
SWIDTH 600 0
DWIDTH 12 0
BBX 14 9 -1 12
BITMAP
00003333033331
000A4003870012
01CF0208F32030
07FB030CE03030
0BF7011FA01030
0FF5005F800220
4FFFFEFFFFF500
7FFFC6FFFD3000
16661156610000
ENDCHAR
STARTCHAR gravecmb
ENCODING 768
SWIDTH 100 0
DWIDTH 2 0
BBX 12 8 -5 12
BITMAP
000333100000
01A200233332
2CF103331003
AFF300002203
AFFFDB975324
AFFFFFFFFFB1
279BDFFFF900
000000234000
ENDCHAR
STARTCHAR acutecmb
ENCODING 769
SWIDTH 100 0
DWIDTH 2 0
BBX 12 8 -5 12
BITMAP
000000002332
000433331003
01B200233203
2DF103100004
AFF42468ABA1
AFFFFFFFFA00
AFFFECA85000
242100000000
ENDCHAR
STARTCHAR circumflexcmb
ENCODING 770
SWIDTH 100 0
DWIDTH 2 0
BBX 12 8 -5 12
BITMAP
000001333000
000332000331
008202333003
1AF102000203
9FF2159B7303
AFFDFFFFFFD3
AFFDABFFFD20
572000158100
ENDCHAR
STARTCHAR tildecmb
ENCODING 771
SWIDTH 100 0
DWIDTH 2 0
BBX 12 7 -5 12
BITMAP
001413333330
01C203200003
2DF200233203
AFF446531035
AFFFFFFFFF80
AFFFFFFFE500
341135761000
ENDCHAR
STARTCHAR uni0304
ENCODING 772
SWIDTH 600 0
DWIDTH 12 0
BBX 12 7 0 12
BITMAP
001433333332
01C200000003
2DF103333203
AFF300000004
AFFFFFFFFFB1
AFFFFFFFF900
266666665000
ENDCHAR
STARTCHAR brevecmb
ENCODING 774
SWIDTH 100 0
DWIDTH 2 0
BBX 12 8 -5 12
BITMAP
001333203333
02C000397003
4EF040120213
CFF403333204
CFFE72001461
9FFFFFFFF900
2DFFFFFF7000
004677510000
ENDCHAR
STARTCHAR dotaccentcmb
ENCODING 775
SWIDTH 100 0
DWIDTH 2 0
BBX 8 8 -3 12
BITMAP
00143332
02C00003
2DF00303
BFF00103
CFF20003
CFFFFFC1
BFFFFA00
26665000
ENDCHAR
STARTCHAR dieresiscmb
ENCODING 776
SWIDTH 100 0
DWIDTH 2 0
BBX 14 7 -6 12
BITMAP
00033333233330
007A0003C00012
09FA0303D03012
1FFB0005E10022
1FFFFFFFFFFF70
1FFFFDEFFFE400
04666136662000
ENDCHAR
STARTCHAR hookcmb
ENCODING 777
SWIDTH 100 0
DWIDTH 2 0
BBX 10 9 -3 12
BITMAP
0023333310
04E0333230
6FF6551321
CFFE851311
BFFE033230
09FF346840
0EFFFFD300
0BFFEA2000
0242000000
ENDCHAR
STARTCHAR ringcmb
ENCODING 778
SWIDTH 100 0
DWIDTH 2 0
BBX 12 11 -5 12
BITMAP
000023333310
000413333222
01C231000303
2DE030AF5123
AFE030CF7123
CFF031351303
CFF403333204
CFFE62001471
AFFFFFFFFA10
2DFFFFFF7000
004677510000
ENDCHAR
STARTCHAR hungarumlautcmb
ENCODING 779
SWIDTH 100 0
DWIDTH 2 0
BBX 13 9 -5 12
BITMAP
00004333043330
001C1004A40030
03DC020BE02030
0AF8030EB03030
0EF4014F701120
3FF2008F500400
7FFFFEFFFFE300
AFFFA8FFFC2000
26650166610000
ENDCHAR
STARTCHAR caroncmb
ENCODING 780
SWIDTH 100 0
DWIDTH 2 0
BBX 12 8 -5 12
BITMAP
001321000233
02D102333103
3EF102000203
AFF502333014
AFFFD8215A80
AFFFFFFFF600
17CFFFE92000
000275000000
ENDCHAR
STARTCHAR horncmb
ENCODING 795
SWIDTH 100 0
DWIDTH 2 0
BBX 8 8 -3 9
BITMAP
00043331
01990003
1CD11303
7FC24032
EFD35850
EFFFE400
EFFC2000
76300000
ENDCHAR
STARTCHAR dotbelowcmb
ENCODING 803
SWIDTH 100 0
DWIDTH 2 0
BBX 8 8 -3 -8
BITMAP
00143332
02C00003
2DF00303
BFF00103
CFF20003
CFFFFFC1
BFFFFA00
26665000
ENDCHAR
STARTCHAR dieresisbelowcmb
ENCODING 804
SWIDTH 100 0
DWIDTH 2 0
BBX 14 7 -6 -8
BITMAP
00033333233330
007A0003C00012
09FA0303D03012
1FFB0005E10022
1FFFFFFFFFFF70
1FFFFDEFFFE400
04666136662000
ENDCHAR
STARTCHAR commaaccent
ENCODING 806
SWIDTH 600 0
DWIDTH 12 0
BBX 8 10 2 -9
BITMAP
00133333
02C00003
2DF03313
BFF00033
CFF10033
CFFDB432
BFF33312
4FF97740
8FFFF500
6FFC4000
ENDCHAR
STARTCHAR cedillacmb
ENCODING 807
SWIDTH 100 0
DWIDTH 2 0
BBX 9 9 -4 -5
BITMAP
0000032000
0000920330
001BB02030
009F503030
00EE103030
05F9000300
0BFB666400
1FFFFF6000
4FFFD40000
ENDCHAR
STARTCHAR ogonekcmb
ENCODING 808
SWIDTH 100 0
DWIDTH 2 0
BBX 9 8 -3 -6
BITMAP
0004343300
007C030300
09F9031430
0EF8052030
2FFA000030
4FFF966630
3FFFFFF500
09EFFE4000
ENDCHAR
STARTCHAR brevebelowcmb
ENCODING 814
SWIDTH 100 0
DWIDTH 2 0
BBX 12 8 -5 -8
BITMAP
001333203333
02C000397003
4EF040120213
CFF403333204
CFFE72001461
9FFFFFFFF900
2DFFFFFF7000
004677510000
ENDCHAR
STARTCHAR macronbelowcmb
ENCODING 817
SWIDTH 100 0
DWIDTH 2 0
BBX 12 7 -5 -7
BITMAP
001433333332
01C200000003
2DF203333203
AFF400000004
AFFFFFFFFFB1
9FFFFFFFF900
266666665000
ENDCHAR
STARTCHAR uni0394
ENCODING 916
SWIDTH 830 0
DWIDTH 17 0
BBX 16 18 0 -3
BITMAP
0000013333333200
0000290000000400
0004E60233320300
001EF20400030030
005FE02206012030
009FA0302F303030
00DF60306F603031
01FF20309FA03003
05FD0120CFD01203
09FA0301FFF10303
0DF70303FFF40303
1FF6030133310303
4FF6030000000303
6FF6013333333203
6FF7000000000004
6FFFFFFFFFFFFFE4
6FFFFFFFFFFFFD20
1566666666665100
ENDCHAR
STARTCHAR uni03A9
ENCODING 937
SWIDTH 877 0
DWIDTH 18 0
BBX 18 18 0 -3
BITMAP
000001333333332000
000032000000002300
000740033333310220
00AE00300000040030
07FD00304BB6021030
0CFD00309FFB012030
0DFD00308FFC012030
0EFD00303FFC012030
0EFD00303FFC012030
0EFE00303FFC012030
0EFF30303FFB021120
0DF510401BD2040133
0CF000040790410003
8FF013330790233103
BFF2000009B0000013
CFFFFFFFFFFFFFFF70
BFFFFFFBFFFFFFE500
266666505666662000
ENDCHAR
STARTCHAR uni03BC
ENCODING 956
SWIDTH 813 0
DWIDTH 16 0
BBX 16 17 0 -4
BITMAP
0003333310133332
0078000033D00003
09F802008EE00203
4FF80300EFE00303
4FF80300EFE00303
4FF80300EFE00303
4FF80300EFE00303
4FF80300EFE00303
4FF804106A701203
4FF8034000004004
4FF8030333330023
4FF8030000000560
4FF80000BAABE600
4FF90001FFFE4000
4FFFEEEEEC820000
4FFFFF5000000000
0677730000000000
ENDCHAR
STARTCHAR pi
ENCODING 960
SWIDTH 821 0
DWIDTH 16 0
BBX 16 15 0 -3
BITMAP
0003333333333332
0078000000000003
0AF8023333333203
4FF8030000000303
4FF8030099900303
4FF80300EFE00303
4FF80300EFE00303
4FF80300EFE00303
4FF80300EFE00303
4FF80300EFE00303
4FF80100EFE00103
4FF90001EFF10004
4FFFFFF6CFFFFFB1
4FFFFE40CFFFF900
0566620026664000
ENDCHAR
STARTCHAR Ddotbelow
ENCODING 7692
SWIDTH 846 0
DWIDTH 17 0
BBX 17 22 0 -7
BITMAP
000633333333332000
01BA00000000001300
0CFA01333333300300
1FFA02100000040030
1FFA02108BA4030030
1FFA0210CFF8030030
1FFA0210BFF8030030
1FFA02107FF8030030
1FFA02107FF8030030
1FFA02107FF8030030
1FFA02105992030030
1FFA02100000040030
1FFA01333333300200
1FFA00000000000200
1FFB00000000043000
1FFFEEEECCCDE50000
1DFFFFF80000500000
00001CF70300300000
00005FF70100300000
00005FFC6666200000
00005FFFFFD2000000
00003EFFFA10000000
ENDCHAR
STARTCHAR ddotbelow
ENCODING 7693
SWIDTH 846 0
DWIDTH 17 0
BBX 17 22 0 -7
BITMAP
000633333333332000
01BA00000000001300
0CFA01333333300300
1FFA02100000040030
1FFA02108BA4030030
1FFA0210CFF8030030
1FFA0210BFF8030030
1FFA02107FF8030030
1FFA02107FF8030030
1FFA02107FF8030030
1FFA02105992030030
1FFA02100000040030
1FFA01333333300200
1FFA00000000000200
1FFB00000000043000
1FFFEEEECCCDE50000
1DFFFFF80000500000
00001CF70300300000
00005FF70100300000
00005FFC6666200000
00005FFFFFD2000000
00003EFFFA10000000
ENDCHAR
STARTCHAR Dlinebelow
ENCODING 7694
SWIDTH 846 0
DWIDTH 17 0
BBX 17 22 0 -7
BITMAP
000633333333332000
01BA00000000001300
0CFA01333333300300
1FFA02100000040030
1FFA02108BA4030030
1FFA0210CFF8030030
1FFA0210BFF8030030
1FFA02107FF8030030
1FFA02107FF8030030
1FFA02107FF8030030
1FFA02105992030030
1FFA02100000040030
1FFA01333333300210
1FFA00000000000300
1FFC00000000155000
1FFFFFFFFFFFF60000
1DFFFA222222240000
0008F7023333021000
004FF8000000040000
005FFFFFFFFFF60000
004FFFFFFFFD300000
000566666661000000
ENDCHAR
STARTCHAR dlinebelow
ENCODING 7695
SWIDTH 846 0
DWIDTH 17 0
BBX 17 22 0 -7
BITMAP
000633333333332000
01BA00000000001300
0CFA01333333300300
1FFA02100000040030
1FFA02108BA4030030
1FFA0210CFF8030030
1FFA0210BFF8030030
1FFA02107FF8030030
1FFA02107FF8030030
1FFA02107FF8030030
1FFA02105992030030
1FFA02100000040030
1FFA01333333300210
1FFA00000000000300
1FFC00000000155000
1FFFFFFFFFFFF60000
1DFFFA222222240000
0008F7023333021000
004FF8000000040000
005FFFFFFFFFF60000
004FFFFFFFFD300000
000566666661000000
ENDCHAR
STARTCHAR Gmacron
ENCODING 7712
SWIDTH 808 0
DWIDTH 16 0
BBX 16 22 0 -2
BITMAP
0000023333333410
00003A0000000030
0003EB0133331030
000EFB0000000030
001FFC1000000200
001FFFFDCCCCCC30
000ED50000000030
001B202333331030
02C9012000000130
0CF70300CFFFF700
2FF70300FFFE5000
4FF7030086853332
5FF7030033C00003
5FF703008ED00203
5FF70300FFD00303
5FF7030068700303
5FF8023000000303
4FFC002333333203
2FFF800000000003
0CFFFD8666666662
03EFFFFFFFFFFE40
0029DFFFFFFFD300
ENDCHAR
STARTCHAR gmacron
ENCODING 7713
SWIDTH 808 0
DWIDTH 16 0
BBX 16 22 0 -2
BITMAP
0000023333333410
00003A0000000030
0003EB0133331030
000EFB0000000030
001FFC1000000200
001FFFFDCCCCCC30
000ED50000000030
001B202333331030
02C9012000000130
0CF70300CFFFF700
2FF70300FFFE5000
4FF7030086853332
5FF7030033C00003
5FF703008ED00203
5FF70300FFD00303
5FF7030068700303
5FF8023000000303
4FFC002333333203
2FFF800000000003
0CFFFD8666666662
03EFFFFFFFFFFE40
0029DFFFFFFFD300
ENDCHAR
STARTCHAR Hdotbelow
ENCODING 7716
SWIDTH 859 0
DWIDTH 17 0
BBX 17 22 0 -7
BITMAP
000633333006333320
01BA000031B8000030
0CFA02104CF8030030
1FFA02106FF8030030
1FFA02106FF8030030
1FFA02105995030030
1FFA02100000030030
1FFA02433333350030
1FFA02100000030030
1FFA02105663030030
1FFA0210CFF8030030
1FFA0210CFF8030030
1FFA02106FF8030030
1FFA00006FF8000030
1FFD66666FFC666620
1FFFFFE6499AFFD200
1DFFFC890000CB1000
000008F90300300000
00002FF90100300000
00003FFD6666200000
00003FFFFFD2000000
00001EFFFB10000000
ENDCHAR
STARTCHAR hdotbelow
ENCODING 7717
SWIDTH 859 0
DWIDTH 17 0
BBX 17 22 0 -7
BITMAP
000633333006333320
01BA000031B8000030
0CFA02104CF8030030
1FFA02106FF8030030
1FFA02106FF8030030
1FFA02105995030030
1FFA02100000030030
1FFA02433333350030
1FFA02100000030030
1FFA02105663030030
1FFA0210CFF8030030
1FFA0210CFF8030030
1FFA02106FF8030030
1FFA00006FF8000030
1FFD66666FFC666620
1FFFFFE6499AFFD200
1DFFFC890000CB1000
000008F90300300000
00002FF90100300000
00003FFD6666200000
00003FFFFFD2000000
00001EFFFB10000000
ENDCHAR
STARTCHAR Hbrevebelow
ENCODING 7722
SWIDTH 859 0
DWIDTH 17 0
BBX 17 22 0 -7
BITMAP
000633333017333320
01BA000034E8000030
0CFA02105FF8030030
1FFA02106FF8030030
1FFA02105995030030
1FFA02100000030030
1FFA02100000030030
1FFA02433333350030
1FFA02100000030030
1FFA0210CFF8030030
1FFA0210CFF8030030
1FFA02108FF8030030
1FFA02106FF8030030
1FFA00006FF8000030
1FFD44445FFC444210
1FFFFE966FFA99A100
1DFFF9002EE1003000
000BF9040000402000
003FFD113333111000
002FFFD85445610000
000DFFFFFFFA100000
00029DEFEB60000000
ENDCHAR
STARTCHAR hbrevebelow
ENCODING 7723
SWIDTH 859 0
DWIDTH 17 0
BBX 17 22 0 -7
BITMAP
000633333017333320
01BA000034E8000030
0CFA02105FF8030030
1FFA02106FF8030030
1FFA02105995030030
1FFA02100000030030
1FFA02100000030030
1FFA02433333350030
1FFA02100000030030
1FFA0210CFF8030030
1FFA0210CFF8030030
1FFA02108FF8030030
1FFA02106FF8030030
1FFA00006FF8000030
1FFD44445FFC444210
1FFFFE966FFA99A100
1DFFF9002EE1003000
000BF9040000402000
003FFD113333111000
002FFFD85445610000
000DFFFFFFFA100000
00029DEFEB60000000
ENDCHAR
STARTCHAR Ldotbelow
ENCODING 7734
SWIDTH 795 0
DWIDTH 16 0
BBX 16 22 0 -7
BITMAP
0006333330000000
01BA000030000000
0CFA021030000000
1FFA021030000000
1FFA021030000000
1FFA021030000000
1FFA021030143332
1FFA021032D00003
1FFA02107EE00203
1FFA0210CFE00303
1FFA021079800303
1FFA021000000303
1FFA013333333203
1FFA000000000003
1FFB000000000000
1FFFEEEDCCCDEC20
1DFFFFF50003C200
00002DF403021000
00008FF401021000
00008FFA66650000
00008FFFFFA00000
00006FFFF8000000
ENDCHAR
STARTCHAR ldotbelow
ENCODING 7735
SWIDTH 795 0
DWIDTH 16 0
BBX 16 22 0 -7
BITMAP
0006333330000000
01BA000030000000
0CFA021030000000
1FFA021030000000
1FFA021030000000
1FFA021030000000
1FFA021030143332
1FFA021032D00003
1FFA02107EE00203
1FFA0210CFE00303
1FFA021079800303
1FFA021000000303
1FFA013333333203
1FFA000000000003
1FFB000000000000
1FFFEEEDCCCDEC20
1DFFFFF50003C200
00002DF403021000
00008FF401021000
00008FFA66650000
00008FFFFFA00000
00006FFFF8000000
ENDCHAR
STARTCHAR Ldotbelowmacron
ENCODING 7736
SWIDTH 795 0
DWIDTH 16 0
BBX 16 27 0 -7
BITMAP
0000143333333200
0001C20000000300
002DF10333320300
00AFF10000000300
00AFF30000000000
00AFDCCDFFFF5000
04EB0000CFF40000
1FFA011053100000
1FFA021030000000
1FFA021030000000
1FFA021030000000
1FFA021030143332
1FFA021032D00003
1FFA02107EE00203
1FFA0210CFE00303
1FFA021079800303
1FFA021000000303
1FFA013333333203
1FFA000000000003
1FFB000000000000
1FFFEEEDCCCDEC20
0DFFFFF50003C200
00002DF403021000
00008FF401021000
00008FFA66650000
00008FFFFFA00000
00006FFFF8000000
ENDCHAR
STARTCHAR ldotbelowmacron
ENCODING 7737
SWIDTH 795 0
DWIDTH 16 0
BBX 16 27 0 -7
BITMAP
0000143333333200
0001C20000000300
002DF10333320300
00AFF10000000300
00AFF30000000000
00AFDCCDFFFF5000
04EB0000CFF40000
1FFA011053100000
1FFA021030000000
1FFA021030000000
1FFA021030000000
1FFA021030143332
1FFA021032D00003
1FFA02107EE00203
1FFA0210CFE00303
1FFA021079800303
1FFA021000000303
1FFA013333333203
1FFA000000000003
1FFB000000000000
1FFFEEEDCCCDEC20
0DFFFFF50003C200
00002DF403021000
00008FF401021000
00008FFA66650000
00008FFFFFA00000
00006FFFF8000000
ENDCHAR
STARTCHAR Llinebelow
ENCODING 7738
SWIDTH 795 0
DWIDTH 16 0
BBX 16 21 0 -6
BITMAP
0006333330000000
01BA000030000000
0CFA021030000000
1FFA021030000000
1FFA021030000000
1FFA021030000000
1FFA021030143332
1FFA021032D00003
1FFA02107EE00203
1FFA0210CFE00303
1FFA021079800303
1FFA021000000303
1FFA013333333203
1FFB000000000004
1FFFEDCCCCCCCDB2
1FFFF20000000610
1DFFF10333320300
005FF10000000300
00BFF96666666300
00BFFFFFFFFE4000
008FFFFFFFD30000
ENDCHAR
STARTCHAR llinebelow
ENCODING 7739
SWIDTH 795 0
DWIDTH 16 0
BBX 16 21 0 -6
BITMAP
0006333330000000
01BA000030000000
0CFA021030000000
1FFA021030000000
1FFA021030000000
1FFA021030000000
1FFA021030143332
1FFA021032D00003
1FFA02107EE00203
1FFA0210CFE00303
1FFA021079800303
1FFA021000000303
1FFA013333333203
1FFB000000000004
1FFFEDCCCCCCCDB2
1FFFF20000000610
1DFFF10333320300
005FF10000000300
00BFF96666666300
00BFFFFFFFFE4000
008FFFFFFFD30000
ENDCHAR
STARTCHAR Mdotbelow
ENCODING 7746
SWIDTH 949 0
DWIDTH 19 0
BBX 19 22 0 -7
BITMAP
00063333300034333410
01BA0000110480000110
0CFA0132025E20320110
1FFA030310C804030110
1FFA0300403131030110
1FFA0300040220030110
1FFA0300213202030110
1FFA0300900036030110
1FFA0300E300B6030110
1FFA0300EEACF6030110
1FFA0300EFDFF6030110
1FFA0300C86FF6030110
1FFA0200306FF6020110
1FFA0000306FF6000110
1FFD6665106FFB666600
1FFFFFC23359AFFFB100
1DFFFA1870000EF80000
000000AF703003000000
000004FF701003000000
000004FFC66651000000
000004FFFFFC10000000
000003FFFFA100000000
ENDCHAR
STARTCHAR mdotbelow
ENCODING 7747
SWIDTH 949 0
DWIDTH 19 0
BBX 19 22 0 -7
BITMAP
00063333300034333410
01BA0000110480000110
0CFA0132025E20320110
1FFA030310C804030110
1FFA0300403131030110
1FFA0300040220030110
1FFA0300213202030110
1FFA0300900036030110
1FFA0300E300B6030110
1FFA0300EEACF6030110
1FFA0300EFDFF6030110
1FFA0300C86FF6030110
1FFA0200306FF6020110
1FFA0000306FF6000110
1FFD6665106FFB666600
1FFFFFC23359AFFFB100
1DFFFA1870000EF80000
000000AF703003000000
000004FF701003000000
000004FFC66651000000
000004FFFFFC10000000
000003FFFFA100000000
ENDCHAR
STARTCHAR Ndotaccent
ENCODING 7748
SWIDTH 853 0
DWIDTH 17 0
BBX 17 22 0 -2
BITMAP
000000033333100000
000000880000300000
00000AF80300300000
00003FF80100300000
00004FFA0001300000
00063339FFFC333410
01BA0000AFF8000030
0CFA03401DF8030030
1FFA030301D8030030
1FFA03013027030030
1FFA03001200030030
1FFA03000220030030
1FFA03003021030030
1FFA0300C203130030
1FFA0300DD10330030
1FFA0300DFB0050030
1FFA0300DFF7030030
1FFA0300DFF8020030
1FFA0000AFF8000030
1FFD66666FFC666610
1FFFFFD24FFFFFC100
1DFFFB102EFFF90000
ENDCHAR
STARTCHAR ndotaccent
ENCODING 7749
SWIDTH 853 0
DWIDTH 17 0
BBX 17 22 0 -2
BITMAP
000000033333100000
000000880000300000
00000AF80300300000
00003FF80100300000
00004FFA0001300000
00063339FFFC333410
01BA0000AFF8000030
0CFA03401DF8030030
1FFA030301D8030030
1FFA03013027030030
1FFA03001200030030
1FFA03000220030030
1FFA03003021030030
1FFA0300C203130030
1FFA0300DD10330030
1FFA0300DFB0050030
1FFA0300DFF7030030
1FFA0300DFF8020030
1FFA0000AFF8000030
1FFD66666FFC666610
1FFFFFD24FFFFFC100
1DFFFB102EFFF90000
ENDCHAR
STARTCHAR Ndotbelow
ENCODING 7750
SWIDTH 853 0
DWIDTH 17 0
BBX 17 22 0 -7
BITMAP
000633340017333410
01BA000042D8000030
0CFA03400BF8030030
1FFA030301D8030030
1FFA03013027030030
1FFA03001200030030
1FFA03000220030030
1FFA03003021030030
1FFA0300C203130030
1FFA0300DD10330030
1FFA0300DFB0050030
1FFA0300DFF7030030
1FFA0300DFF8020030
1FFA0000AFF8000030
1FFD66666FFC666610
1FFFFFD5499AFFC100
1DFFFB880000D90000
000009F80300300000
00003FF80100300000
00004FFD6666200000
00004FFFFFD2000000
00002EFFFB10000000
ENDCHAR
STARTCHAR ndotbelow
ENCODING 7751
SWIDTH 853 0
DWIDTH 17 0
BBX 17 22 0 -7
BITMAP
000633340017333410
01BA000042D8000030
0CFA03400BF8030030
1FFA030301D8030030
1FFA03013027030030
1FFA03001200030030
1FFA03000220030030
1FFA03003021030030
1FFA0300C203130030
1FFA0300DD10330030
1FFA0300DFB0050030
1FFA0300DFF7030030
1FFA0300DFF8020030
1FFA0000AFF8000030
1FFD66666FFC666610
1FFFFFD5499AFFC100
1DFFFB880000D90000
000009F80300300000
00003FF80100300000
00004FFD6666200000
00004FFFFFD2000000
00002EFFFB10000000
ENDCHAR
STARTCHAR Nlinebelow
ENCODING 7752
SWIDTH 853 0
DWIDTH 17 0
BBX 17 21 0 -6
BITMAP
000633340017333410
01BA000042D8000030
0CFA03400BF8030030
1FFA030301D8030030
1FFA03013027030030
1FFA03001200030030
1FFA03000220030030
1FFA03003021030030
1FFA0300C203130030
1FFA0300DD10330030
1FFA0300DFB0050030
1FFA0300DFF7030030
1FFA0300DFF8020030
1FFA0000AFF8000030
1FFD33336FFB333310
1FFFFE9649999AC200
1DFFFA023333103000
000BFA000000003000
002FFD766666671000
002FFFFFFFFFC20000
001EFFFFFFFA100000
ENDCHAR
STARTCHAR nlinebelow
ENCODING 7753
SWIDTH 853 0
DWIDTH 17 0
BBX 17 21 0 -6
BITMAP
000633340017333410
01BA000042D8000030
0CFA03400BF8030030
1FFA030301D8030030
1FFA03013027030030
1FFA03001200030030
1FFA03000220030030
1FFA03003021030030
1FFA0300C203130030
1FFA0300DD10330030
1FFA0300DFB0050030
1FFA0300DFF7030030
1FFA0300DFF8020030
1FFA0000AFF8000030
1FFD33336FFB333310
1FFFFE9649999AC200
1DFFFA023333103000
000BFA000000003000
002FFD766666671000
002FFFFFFFFFC20000
001EFFFFFFFA100000
ENDCHAR
STARTCHAR Rdotbelow
ENCODING 7770
SWIDTH 843 0
DWIDTH 17 0
BBX 17 22 0 -7
BITMAP
000633333333340000
01BA00000000004000
0CFA01333333003000
1FFA02100000301200
1FFA0210CF60300300
1FFA0210CF80301100
1FFA02107930303000
1FFA02100000303300
1FFA02333335310120
1FFA02100000030030
1FFA0210CFF9012030
1FFA0210CFFC012030
1FFA02108FFC012030
1FFA00003FFC000030
1FFD66663FFE666630
1FFFFFD53999EFE400
1DFFFB6B0000AD2000
000006FB0120300000
00000FFB0000300000
00001FFE7666200000
00001FFFFFE4000000
00000DFFFD20000000
ENDCHAR
STARTCHAR rdotbelow
ENCODING 7771
SWIDTH 843 0
DWIDTH 17 0
BBX 17 22 0 -7
BITMAP
000633333333340000
01BA00000000004000
0CFA01333333003000
1FFA02100000301200
1FFA0210CF60300300
1FFA0210CF80301100
1FFA02107930303000
1FFA02100000303300
1FFA02333335310120
1FFA02100000030030
1FFA0210CFF9012030
1FFA0210CFFC012030
1FFA02108FFC012030
1FFA00003FFC000030
1FFD66663FFE666630
1FFFFFD53999EFE400
1DFFFB6B0000AD2000
000006FB0120300000
00000FFB0000300000
00001FFE7666200000
00001FFFFFE4000000
00000DFFFD20000000
ENDCHAR
STARTCHAR Rdotbelowmacron
ENCODING 7772
SWIDTH 843 0
DWIDTH 17 0
BBX 17 27 0 -7
BITMAP
000023333333410000
0003A0000000030000
003EB0233331030000
00EFB0000000030000
01FFC1000000120000
01FFDCCCCCCD800000
01FB00000000033000
07FA01333333004000
1FFA02100000301200
1FFA0210CF60300300
1FFA0210CF80302200
1FFA02107930303000
1FFA02100000303300
1FFA02333335310120
1FFA02100000030030
1FFA0210CFF9012030
1FFA0210CFFC012030
1FFA02108FFC012030
1FFA00003FFC000030
1FFD66663FFE666630
1FFFFFD53999EFE400
0DFFFB6B0000AD2000
000006FB0120300000
00000FFB0000300000
00001FFE7666200000
00001FFFFFE4000000
00000DFFFD20000000
ENDCHAR
STARTCHAR rdotbelowmacron
ENCODING 7773
SWIDTH 843 0
DWIDTH 17 0
BBX 17 27 0 -7
BITMAP
000023333333410000
0003A0000000030000
003EB0233331030000
00EFB0000000030000
01FFC1000000120000
01FFDCCCCCCD800000
01FB00000000033000
07FA01333333004000
1FFA02100000301200
1FFA0210CF60300300
1FFA0210CF80302200
1FFA02107930303000
1FFA02100000303300
1FFA02333335310120
1FFA02100000030030
1FFA0210CFF9012030
1FFA0210CFFC012030
1FFA02108FFC012030
1FFA00003FFC000030
1FFD66663FFE666630
1FFFFFD53999EFE400
0DFFFB6B0000AD2000
000006FB0120300000
00000FFB0000300000
00001FFE7666200000
00001FFFFFE4000000
00000DFFFD20000000
ENDCHAR
STARTCHAR Rlinebelow
ENCODING 7774
SWIDTH 843 0
DWIDTH 17 0
BBX 17 21 0 -6
BITMAP
000633333333331000
01BA01333333004000
0CFA02100000302100
1FFA02107930300300
1FFA0210CF80301200
1FFA0210CF60303000
1FFA02100000304200
1FFA02333335310310
1FFA02100000030030
1FFA02104662021030
1FFA0210CFFB012030
1FFA0210CFFC012030
1FFA02107FFC012030
1FFA00003FFC000030
1FFD33333FFE333310
1FFFFE9739999BE300
1DFFF8023333013000
001CF8000000012000
003FFD666666670000
004FFFFFFFFFB10000
002EFFFFFFF9000000
ENDCHAR
STARTCHAR rlinebelow
ENCODING 7775
SWIDTH 843 0
DWIDTH 17 0
BBX 17 21 0 -6
BITMAP
000633333333331000
01BA01333333004000
0CFA02100000302100
1FFA02107930300300
1FFA0210CF80301200
1FFA0210CF60303000
1FFA02100000304200
1FFA02333335310310
1FFA02100000030030
1FFA02104662021030
1FFA0210CFFB012030
1FFA0210CFFC012030
1FFA02107FFC012030
1FFA00003FFC000030
1FFD33333FFE333310
1FFFFE9739999BE300
1DFFF8023333013000
001CF8000000012000
003FFD666666670000
004FFFFFFFFFB10000
002EFFFFFFF9000000
ENDCHAR
STARTCHAR Sdotaccent
ENCODING 7776
SWIDTH 750 0
DWIDTH 15 0
BBX 15 22 0 -2
BITMAP
0000003333320000
0000069000030000
00009F9030030000
0002FF9010030000
0002FFB000100000
0002E85333333500
0004200000000300
0077003333330300
08F5030000000400
3FF50301FFFFE300
6FF50300368A5000
7FF6032000000400
7FFA001333310030
6FFF910000031030
3FFFFFDA85003030
07FFDDDDDB003030
0095000000022030
09F5033333320030
6FF5000000000410
7FFA666666688100
7FFFFFFFFFF80000
5FFFFFFFEB400000
ENDCHAR
STARTCHAR sdotaccent
ENCODING 7777
SWIDTH 750 0
DWIDTH 15 0
BBX 15 22 0 -2
BITMAP
0000003333320000
0000069000030000
00009F9030030000
0002FF9010030000
0002FFB000100000
0002E85333333500
0004200000000300
0077003333330300
08F5030000000400
3FF50301FFFFE300
6FF50300368A5000
7FF6032000000400
7FFA001333310030
6FFF910000031030
3FFFFFDA85003030
07FFDDDDDB003030
0095000000022030
09F5033333320030
6FF5000000000410
7FFA666666688100
7FFFFFFFFFF80000
5FFFFFFFEB400000
ENDCHAR
STARTCHAR Sdotbelow
ENCODING 7778
SWIDTH 750 0
DWIDTH 15 0
BBX 15 22 0 -7
BITMAP
0000233333333500
0005200000000300
0088003333330300
0AF5030000000400
3FF50301EFFFE300
6FF50300479B5000
7FF6032000001500
7FFA001333310040
6FFF910000031030
3FFFFFDA85003030
07FFDDDDDB003030
0096000000022030
09F5033333320020
6FF5000000000000
7FF6000000012000
7FFFEEECCCDB1000
5FFFFFB000040000
0000AFA021030000
0001FFA000030000
0001FFE666620000
0001FFFFFE300000
0000DFFFC2000000
ENDCHAR
STARTCHAR sdotbelow
ENCODING 7779
SWIDTH 750 0
DWIDTH 15 0
BBX 15 22 0 -7
BITMAP
0000233333333500
0005200000000300
0088003333330300
0AF5030000000400
3FF50301EFFFE300
6FF50300479B5000
7FF6032000001500
7FFA001333310040
6FFF910000031030
3FFFFFDA85003030
07FFDDDDDB003030
0096000000022030
09F5033333320020
6FF5000000000000
7FF6000000012000
7FFFEEECCCDB1000
5FFFFFB000040000
0000AFA021030000
0001FFA000030000
0001FFE666620000
0001FFFFFE300000
0000DFFFC2000000
ENDCHAR
STARTCHAR Tdotbelow
ENCODING 7788
SWIDTH 756 0
DWIDTH 15 0
BBX 16 22 0 -7
BITMAP
0063333333333350
09D0000000000021
AFD0133343333021
EFE1000030000040
EFFFFF80300CFE50
EFFFFF80300CD300
4668FF8030061000
0004FF8030030000
0004FF8030030000
0004FF8030030000
0004FF8030030000
0004FF8030030000
0004FF8030030000
0004FF8010030000
0004FF9000030000
0004FFFCCCA00000
0002EF9000030000
0000BF8030030000
0003FF8010030000
0003FFD666630000
0003FFFFFE300000
0002EFFFB1000000
ENDCHAR
STARTCHAR tdotbelow
ENCODING 7789
SWIDTH 756 0
DWIDTH 15 0
BBX 16 22 0 -7
BITMAP
0063333333333350
09D0000000000021
AFD0133343333021
EFE1000030000040
EFFFFF80300CFE50
EFFFFF80300CD300
4668FF8030061000
0004FF8030030000
0004FF8030030000
0004FF8030030000
0004FF8030030000
0004FF8030030000
0004FF8030030000
0004FF8010030000
0004FF9000030000
0004FFFCCCA00000
0002EF9000030000
0000BF8030030000
0003FF8010030000
0003FFD666630000
0003FFFFFE300000
0002EFFFB1000000
ENDCHAR
STARTCHAR Tlinebelow
ENCODING 7790
SWIDTH 756 0
DWIDTH 15 0
BBX 16 21 0 -6
BITMAP
0063333333333350
09D0133343333021
AFD0000030000021
EFE1000030000040
EFFFFF80300CFE50
EFFFFF80300CD300
4668FF8030061000
0004FF8030030000
0004FF8030030000
0004FF8030030000
0004FF8030030000
0004FF8030030000
0004FF8030030000
0004FF8000030000
0004FFB333330000
0004E99999733100
0009A02333310300
00AFA00000000300
01FFE76666667200
01FFFFFFFFFD3000
00DFFFFFFFA10000
ENDCHAR
STARTCHAR tlinebelow
ENCODING 7791
SWIDTH 756 0
DWIDTH 15 0
BBX 16 21 0 -6
BITMAP
0063333333333350
09D0133343333021
AFD0000030000021
EFE1000030000040
EFFFFF80300CFE50
EFFFFF80300CD300
4668FF8030061000
0004FF8030030000
0004FF8030030000
0004FF8030030000
0004FF8030030000
0004FF8030030000
0004FF8030030000
0004FF8000030000
0004FFB333330000
0004E99999733100
0009A02333310300
00AFA00000000300
01FFE76666667200
01FFFFFFFFFD3000
00DFFFFFFFA10000
ENDCHAR
STARTCHAR Wgrave
ENCODING 7808
SWIDTH 931 0
DWIDTH 19 0
BBX 18 22 0 -2
BITMAP
000002999864200000
00003E400235797000
0004EF303333203000
0009FF400000003000
0009FFFDB975421000
00173334FFFFF83335
02D80000BDEFF40003
2EF80200303EF40203
4FF80300307FF40303
4FF80300307FF40303
4FF80300346AF40303
4FF80300C100940303
4FF803005132130303
4FF803000303000303
4FF803002100300303
4FFB012030A1300303
4FFE103212F5031203
2FFF502306F9023021
0DFFB0000AFD000030
08FFF7666EFF866620
02FFFFFD3FFFFFD300
009FFFB109FFFC1000
ENDCHAR
STARTCHAR wgrave
ENCODING 7809
SWIDTH 931 0
DWIDTH 19 0
BBX 18 22 0 -2
BITMAP
000002999864200000
00003E400235797000
0004EF303333203000
0009FF400000003000
0009FFFDB975421000
00173334FFFFF83335
02D80000BDEFF40003
2EF80200303EF40203
4FF80300307FF40303
4FF80300307FF40303
4FF80300346AF40303
4FF80300C100940303
4FF803005132130303
4FF803000303000303
4FF803002100300303
4FFB012030A1300303
4FFE103212F5031203
2FFF502306F9023021
0DFFB0000AFD000030
08FFF7666EFF866620
02FFFFFD3FFFFFD300
009FFFB109FFFC1000
ENDCHAR
STARTCHAR Wacute
ENCODING 7810
SWIDTH 931 0
DWIDTH 19 0
BBX 18 22 0 -2
BITMAP
00000000245799A100
000000897642001300
00001B902333310300
0001DF900000000100
0003FFB23579BA1000
00173334FFFFC63335
02D800009645D40003
2EF80200302EF40203
4FF80300307FF40303
4FF80300307FF40303
4FF80300346AF40303
4FF80300C100940303
4FF803005132130303
4FF803000303000303
4FF803002100300303
4FFB012030A1300303
4FFE103212F5031203
2FFF502306F9023021
0DFFB0000AFD000030
08FFF7666EFF866620
02FFFFFD3FFFFFD300
009FFFB109FFFC1000
ENDCHAR
STARTCHAR wacute
ENCODING 7811
SWIDTH 931 0
DWIDTH 19 0
BBX 18 22 0 -2
BITMAP
00000000245799A100
000000897642001300
00001B902333310300
0001DF900000000100
0003FFB23579BA1000
00173334FFFFC63335
02D800009645D40003
2EF80200302EF40203
4FF80300307FF40303
4FF80300307FF40303
4FF80300346AF40303
4FF80300C100940303
4FF803005132130303
4FF803000303000303
4FF803002100300303
4FFB012030A1300303
4FFE103212F5031203
2FFF502306F9023021
0DFFB0000AFD000030
08FFF7666EFF866620
02FFFFFD3FFFFFD300
009FFFB109FFFC1000
ENDCHAR
STARTCHAR Wdieresis
ENCODING 7812
SWIDTH 931 0
DWIDTH 19 0
BBX 18 22 0 -2
BITMAP
000001433314333100
00002C0000D2000300
0002DE0210F1030300
000CFE0000F1000300
000DFF1002F3001000
000DCCCDFFFFFECCCB
00580000EFFFF50004
07F80100556EF40103
4FF80300307FF40303
4FF80300307FF40303
4FF80300346AF40303
4FF80300C100940303
4FF803005132130303
4FF803000303000303
4FF803002100300303
4FFA011030A1300302
4FFE003212F5031202
2FFF502306F9023011
0DFFA0000AFD000030
08FFF7666EFF866620
02FFFFFD3FFFFFD300
009FFFB109FFFC1000
ENDCHAR
STARTCHAR wdieresis
ENCODING 7813
SWIDTH 931 0
DWIDTH 19 0
BBX 18 22 0 -2
BITMAP
000001433314333100
00002C0000D2000300
0002DE0210F1030300
000CFE0000F1000300
000DFF1002F3001000
000DCCCDFFFFFECCCB
00580000EFFFF50004
07F80100556EF40103
4FF80300307FF40303
4FF80300307FF40303
4FF80300346AF40303
4FF80300C100940303
4FF803005132130303
4FF803000303000303
4FF803002100300303
4FFA011030A1300302
4FFE003212F5031202
2FFF502306F9023011
0DFFA0000AFD000030
08FFF7666EFF866620
02FFFFFD3FFFFFD300
009FFFB109FFFC1000
ENDCHAR
STARTCHAR Ydotaccent
ENCODING 7822
SWIDTH 805 0
DWIDTH 16 0
BBX 16 22 0 -2
BITMAP
0000001433330000
000002D100030000
00004EF103030000
0000BFF101030000
0000BFF300030000
00353338FFF63334
05E30004FFF10003
5FF30104AFF10103
9FF30303AFF10303
9FF30303BFF10303
9FF40301BFB00303
9FF702205F303103
8FFE203101022030
6FFFC00400130220
0CFFF90034201300
02EFFF5003004000
005FFFE003031000
0009FFF002030000
0001DFF000030000
0000CFF866650000
0000CFFFFF900000
00009FFFE6000000
ENDCHAR
STARTCHAR ydotaccent
ENCODING 7823
SWIDTH 805 0
DWIDTH 16 0
BBX 16 22 0 -2
BITMAP
0000001433330000
000002D100030000
00004EF103030000
0000BFF101030000
0000BFF300030000
00353338FFF63334
05E30004FFF10003
5FF30104AFF10103
9FF30303AFF10303
9FF30303BFF10303
9FF40301BFB00303
9FF702205F303103
8FFE203101022030
6FFFC00400130220
0CFFF90034201300
02EFFF5003004000
005FFFE003031000
0009FFF002030000
0001DFF000030000
0000CFF866650000
0000CFFFFF900000
00009FFFE6000000
ENDCHAR
STARTCHAR Zdotbelow
ENCODING 7826
SWIDTH 760 0
DWIDTH 15 0
BBX 15 22 0 -7
BITMAP
0017333333333330
02C9000000000030
1EF9023333330030
3FFA000000021030
3FFFFFFF30130130
3FFFFFF600400400
05666C9004004000
00005C0031031000
0003D20220220000
001D401201200000
00B8013004333330
09F4030000000030
5FF3023333332030
8FF3000000000030
8FF4000000000000
8FFFEEEDCCCEE500
6FFFFFD000095000
00008FC003030000
0000FFC001030000
0000FFE766620000
0000FFFFFE400000
0000DFFFD3000000
ENDCHAR
STARTCHAR zdotbelow
ENCODING 7827
SWIDTH 760 0
DWIDTH 15 0
BBX 15 22 0 -7
BITMAP
0017333333333330
02C9000000000030
1EF9023333330030
3FFA000000021030
3FFFFFFF30130130
3FFFFFF600400400
05666C9004004000
00005C0031031000
0003D20220220000
001D401201200000
00B8013004333330
09F4030000000030
5FF3023333332030
8FF3000000000030
8FF4000000000000
8FFFEEEDCCCEE500
6FFFFFD000095000
00008FC003030000
0000FFC001030000
0000FFE766620000
0000FFFFFE400000
0000DFFFD3000000
ENDCHAR
STARTCHAR tdieresis
ENCODING 7831
SWIDTH 756 0
DWIDTH 15 0
BBX 16 22 0 -2
BITMAP
0000433324333200
001B400097000300
02DF4030A6030300
08FF4000A6000300
08FF5000C8000100
08E4333333333350
0BD0000000000021
BFD0133343333021
EFE1000030000040
EFFFFF80300CFE50
EFFFFF80300CD300
4668FF8030061000
0004FF8030030000
0004FF8030030000
0004FF8030030000
0004FF8030030000
0004FF8030030000
0004FF8020030000
0004FF8000030000
0004FFC666620000
0004FFFFFD300000
0002EFFFB1000000
ENDCHAR
STARTCHAR Germandbls
ENCODING 7838
SWIDTH 859 0
DWIDTH 17 0
BBX 17 17 0 -2
BITMAP
000633333333331000
01BA00000000004000
0CFA00433333103100
1FFA01200000303100
1FFA01208A10303000
1FFA0120CF11204000
1FFA0120CC03001410
1FFA0120C903330030
1FFA0120C900003030
1FFA0120CFFF303030
1FFA0120CFEE203030
1FFA0120C700003030
1FFA0010C602330030
1FFA0000C600000230
1FFD6666EB66679400
1FFFFFFFFFFFFD2000
1DFFFC5FFFFD810000
ENDCHAR
STARTCHAR Adotbelow
ENCODING 7840
SWIDTH 830 0
DWIDTH 17 0
BBX 16 22 0 -7
BITMAP
0000033333333200
0000490000000300
0004E40233320120
000ED00300030030
005F80212F303030
00BF20307F804003
02FC0120CFC01303
08F8030066600303
0DF6030000000303
3FF6043333333503
5FF6030000000303
6FF60304FFF40303
6FF60204FFF40203
6FF60003AFF40003
6FFB66657FFA6666
6FFFFF94699BFFA1
4EFFF7A50002F700
00001CF403011000
00007FF401011000
00007FFB66650000
00007FFFFFA10000
00005FFFF8000000
ENDCHAR
STARTCHAR adotbelow
ENCODING 7841
SWIDTH 830 0
DWIDTH 17 0
BBX 16 22 0 -7
BITMAP
0000033333333200
0000490000000300
0004E40233320120
000ED00300030030
005F80212F303030
00BF20307F804003
02FC0120CFC01303
08F8030066600303
0DF6030000000303
3FF6043333333503
5FF6030000000303
6FF60304FFF40303
6FF60204FFF40203
6FF60003AFF40003
6FFB66657FFA6666
6FFFFF94699BFFA1
4EFFF7A50002F700
00001CF403011000
00007FF401011000
00007FFB66650000
00007FFFFFA10000
00005FFFF8000000
ENDCHAR
STARTCHAR Ahookabove
ENCODING 7842
SWIDTH 830 0
DWIDTH 17 0
BBX 16 24 0 -2
BITMAP
0000003333330000
000004B000005000
00004FC133324000
0000EFE776033000
0000FFFD63042000
0000BDFB13301000
00001DFD46850000
00001F5333333200
00004A0000000300
0004E40233320120
000ED00300030030
005F80212F303030
00BF20307F804003
02FC0120CFC01303
08F8030066600303
0DF6030000000303
3FF6043333333503
5FF6030000000303
6FF60304FFF40303
6FF60204FFF40203
6FF60003AFF40003
6FFB66657FFA6666
6FFFFF907FFFFFA1
4EFFF7004EFFF700
ENDCHAR
STARTCHAR ahookabove
ENCODING 7843
SWIDTH 830 0
DWIDTH 17 0
BBX 16 24 0 -2
BITMAP
0000003333330000
000004B000005000
00004FC133324000
0000EFE776033000
0000FFFD63042000
0000BDFB13301000
00001DFD46850000
00001F5333333200
00004A0000000300
0004E40233320120
000ED00300030030
005F80212F303030
00BF20307F804003
02FC0120CFC01303
08F8030066600303
0DF6030000000303
3FF6043333333503
5FF6030000000303
6FF60304FFF40303
6FF60204FFF40203
6FF60003AFF40003
6FFB66657FFA6666
6FFFFF907FFFFFA1
4EFFF7004EFFF700
ENDCHAR
STARTCHAR Acircumflexacute
ENCODING 7844
SWIDTH 830 0
DWIDTH 17 0
BBX 16 27 0 -2
BITMAP
0000000000026A70
0000000001A84140
000000003D713130
00000003EF700020
00000005FF703310
000000254028A100
0000150133310500
0001C60200020300
002DF60269720300
005FFDDFFFFFD700
006FFE2000001300
005FF90000000300
0016E30233320120
000EC00300030030
005F70212F303030
00BF10307F804003
02FB0120CFC01303
08F8030066600303
0DF6030000000303
3FF6043333333503
5FF6030000000303
6FF60304FFF40303
6FF60204FFF40203
6FF60003AFF40003
6FFB66657FFA6665
6FFFFF907FFFFFA0
4EFFF7004EFFF700
ENDCHAR
STARTCHAR acircumflexacute
ENCODING 7845
SWIDTH 830 0
DWIDTH 17 0
BBX 16 27 0 -2
BITMAP
0000000000026A70
0000000001A84140
000000003D713130
00000003EF700020
00000005FF703310
000000254028A100
0000150133310500
0001C60200020300
002DF60269720300
005FFDDFFFFFD700
006FFE2000001300
005FF90000000300
0016E30233320120
000EC00300030030
005F70212F303030
00BF10307F804003
02FB0120CFC01303
08F8030066600303
0DF6030000000303
3FF6043333333503
5FF6030000000303
6FF60304FFF40303
6FF60204FFF40203
6FF60003AFF40003
6FFB66657FFA6665
6FFFFF907FFFFFA0
4EFFF7004EFFF700
ENDCHAR
STARTCHAR Acircumflexgrave
ENCODING 7846
SWIDTH 830 0
DWIDTH 17 0
BBX 16 27 0 -2
BITMAP
0000000000310000
00000000098AB810
00000001BF120240
0000000AFF113030
0000000CFF300020
0000003740368100
0000150133310500
0001C60200020300
002DF60269720300
005FFDDFFFFFD700
006FFE2000001300
005FF90000000300
0016E30233320120
000EC00300030030
005F70212F303030
00BF10307F804003
02FB0120CFC01303
08F8030066600303
0DF6030000000303
3FF6043333333503
5FF6030000000303
6FF60304FFF40303
6FF60204FFF40203
6FF60003AFF40003
6FFB66657FFA6665
6FFFFF907FFFFFA0
4EFFF7004EFFF700
ENDCHAR
STARTCHAR acircumflexgrave
ENCODING 7847
SWIDTH 830 0
DWIDTH 17 0
BBX 16 27 0 -2
BITMAP
0000000000310000
00000000098AB810
00000001BF120240
0000000AFF113030
0000000CFF300020
0000003740368100
0000150133310500
0001C60200020300
002DF60269720300
005FFDDFFFFFD700
006FFE2000001300
005FF90000000300
0016E30233320120
000EC00300030030
005F70212F303030
00BF10307F804003
02FB0120CFC01303
08F8030066600303
0DF6030000000303
3FF6043333333503
5FF6030000000303
6FF60304FFF40303
6FF60204FFF40203
6FF60003AFF40003
6FFB66657FFA6665
6FFFFF907FFFFFA0
4EFFF7004EFFF700
ENDCHAR
STARTCHAR Acircumflexhookabove
ENCODING 7848
SWIDTH 830 0
DWIDTH 17 0
BBX 17 28 0 -2
BITMAP
000000000043333200
000000001C62333120
00000002DFA6642130
00000006FFFA622130
00000005FFF4233030
000000003BE8468600
000000221005AE6000
000015013331040000
0002D6020002030000
002EF6026972030000
005FFDDFFFFFD70000
006FFE200000130000
005FF9000000030000
0016E3023332012000
000EC0030003003000
005F70212F30303000
00BF10307F80400300
02FB0120CFC0130300
08F803006660030300
0DF603000000030300
3FF604333333350300
5FF603000000030300
6FF60304FFF4030300
6FF60204FFF4020300
6FF60003AFF4000300
6FFB66657FFA666500
6FFFFF907FFFFFA000
4EFFF7004EFFF70000
ENDCHAR
STARTCHAR acircumflexhookabove
ENCODING 7849
SWIDTH 830 0
DWIDTH 17 0
BBX 17 28 0 -2
BITMAP
000000000043333200
000000001C62333120
00000002DFA6642130
00000006FFFA622130
00000005FFF4233030
000000003BE8468600
000000221005AE6000
000015013331040000
0002D6020002030000
002EF6026972030000
005FFDDFFFFFD70000
006FFE200000130000
005FF9000000030000
0016E3023332012000
000EC0030003003000
005F70212F30303000
00BF10307F80400300
02FB0120CFC0130300
08F803006660030300
0DF603000000030300
3FF604333333350300
5FF603000000030300
6FF60304FFF4030300
6FF60204FFF4020300
6FF60003AFF4000300
6FFB66657FFA666500
6FFFFF907FFFFFA000
4EFFF7004EFFF70000
ENDCHAR
STARTCHAR Acircumflextilde
ENCODING 7850
SWIDTH 830 0
DWIDTH 17 0
BBX 16 27 0 -2
BITMAP
0000013333333400
0000460000000300
0006F60333330300
004FF60210000400
006FFEEFFBCCA200
006FFFC610054100
0027780133310400
0003E60200020300
002EF60269720300
005FFDDFFFFFD700
006FFE2000001300
005FF90000000300
0016E30233320120
000EC00300030030
005F70212F303030
00BF10307F804003
02FB0120CFC01303
08F8030066600303
0DF6030000000303
3FF6043333333503
5FF6030000000303
6FF60304FFF40303
6FF60204FFF40203
6FF60003AFF40003
6FFB66657FFA6665
6FFFFF907FFFFFA0
4EFFF7004EFFF700
ENDCHAR
STARTCHAR acircumflextilde
ENCODING 7851
SWIDTH 830 0
DWIDTH 17 0
BBX 16 27 0 -2
BITMAP
0000013333333400
0000460000000300
0006F60333330300
004FF60210000400
006FFEEFFBCCA200
006FFFC610054100
0027780133310400
0003E60200020300
002EF60269720300
005FFDDFFFFFD700
006FFE2000001300
005FF90000000300
0016E30233320120
000EC00300030030
005F70212F303030
00BF10307F804003
02FB0120CFC01303
08F8030066600303
0DF6030000000303
3FF6043333333503
5FF6030000000303
6FF60304FFF40303
6FF60204FFF40203
6FF60003AFF40003
6FFB66657FFA6665
6FFFFF907FFFFFA0
4EFFF7004EFFF700
ENDCHAR
STARTCHAR Acircumflexdotbelow
ENCODING 7852
SWIDTH 830 0
DWIDTH 17 0
BBX 16 28 0 -7
BITMAP
0000000033310000
0000013200023200
0000250133310300
0003E60200020300
002EF60269720300
005FFDDFFFFFD700
006FFE2000001300
005FF90000000300
0016E30233320120
000EC00300030030
005F70212F303030
00BF10307F804003
02FB0120CFC01303
08F8030066600303
0DF6030000000303
3FF6043333333503
5FF6030000000303
6FF60304FFF40303
6FF60204FFF40203
6FF60003AFF40003
6FFB66657FFA6665
6FFFFF94699BFFA0
4EFFF7A50002F700
00001CF403011000
00007FF401011000
00007FFB66650000
00007FFFFFA10000
00005FFFF8000000
ENDCHAR
STARTCHAR acircumflexdotbelow
ENCODING 7853
SWIDTH 830 0
DWIDTH 17 0
BBX 16 28 0 -7
BITMAP
0000000033310000
0000013200023200
0000250133310300
0003E60200020300
002EF60269720300
005FFDDFFFFFD700
006FFE2000001300
005FF90000000300
0016E30233320120
000EC00300030030
005F70212F303030
00BF10307F804003
02FB0120CFC01303
08F8030066600303
0DF6030000000303
3FF6043333333503
5FF6030000000303
6FF60304FFF40303
6FF60204FFF40203
6FF60003AFF40003
6FFB66657FFA6665
6FFFFF94699BFFA0
4EFFF7A50002F700
00001CF403011000
00007FF401011000
00007FFB66650000
00007FFFFFA10000
00005FFFF8000000
ENDCHAR
STARTCHAR Abreveacute
ENCODING 7854
SWIDTH 830 0
DWIDTH 17 0
BBX 16 28 0 -2
BITMAP
0000000000001000
0000000027BEC000
00000004D9524000
0000006F91313000
000002FF90001000
0000059980200400
000094008EC00120
0009F4204B602120
006FF61300023200
008FFB0133320000
007FFFB410130000
003FFFCAAAAAA400
0007ED0000000600
0004E70233320420
000EF10300030050
005FA0212F303050
00BF40307F804014
02FD0120CFC01305
08F9030066600304
0DF6030000000303
3FF6043333333503
5FF6030000000303
6FF60304FFF40303
6FF60204FFF40203
6FF60003AFF40003
6FFB66657FFA6666
6FFFFF907FFFFFA1
4EFFF7004EFFF700
ENDCHAR
STARTCHAR abreveacute
ENCODING 7855
SWIDTH 830 0
DWIDTH 17 0
BBX 16 28 0 -2
BITMAP
0000000000001000
0000000027BEC000
00000004D9524000
0000006F91313000
000002FF90001000
0000059980200400
000094008EC00120
0009F4204B602120
006FF61300023200
008FFB0133320000
007FFFB410130000
003FFFCAAAAAA400
0007ED0000000600
0004E70233320420
000EF10300030050
005FA0212F303050
00BF40307F804014
02FD0120CFC01305
08F9030066600304
0DF6030000000303
3FF6043333333503
5FF6030000000303
6FF60304FFF40303
6FF60204FFF40203
6FF60003AFF40003
6FFB66657FFA6666
6FFFFF907FFFFFA1
4EFFF7004EFFF700
ENDCHAR
STARTCHAR Abrevegrave
ENCODING 7856
SWIDTH 830 0
DWIDTH 17 0
BBX 16 28 0 -2
BITMAP
0000000100000000
000002CFC8300000
00003E9148B00000
0002EF8031300000
0004FF9000200000
0004FC7120233400
0003F40089A00120
0008F4203A602120
006FF61300023200
008FFB0133320000
007FFFB410130000
003FFFCAAAAAA400
0007ED0000000600
0004E70233320420
000EF10300030050
005FA0212F303050
00BF40307F804014
02FD0120CFC01305
08F9030066600304
0DF6030000000303
3FF6043333333503
5FF6030000000303
6FF60304FFF40303
6FF60204FFF40203
6FF60003AFF40003
6FFB66657FFA6666
6FFFFF907FFFFFA1
4EFFF7004EFFF700
ENDCHAR
STARTCHAR abrevegrave
ENCODING 7857
SWIDTH 830 0
DWIDTH 17 0
BBX 16 28 0 -2
BITMAP
0000000100000000
000002CFC8300000
00003E9148B00000
0002EF8031300000
0004FF9000200000
0004FC7120233400
0003F40089A00120
0008F4203A602120
006FF61300023200
008FFB0133320000
007FFFB410130000
003FFFCAAAAAA400
0007ED0000000600
0004E70233320420
000EF10300030050
005FA0212F303050
00BF40307F804014
02FD0120CFC01305
08F9030066600304
0DF6030000000303
3FF6043333333503
5FF6030000000303
6FF60304FFF40303
6FF60204FFF40203
6FF60003AFF40003
6FFB66657FFA6666
6FFFFF907FFFFFA1
4EFFF7004EFFF700
ENDCHAR
STARTCHAR Abrevehookabove
ENCODING 7858
SWIDTH 830 0
DWIDTH 17 0
BBX 16 29 0 -2
BITMAP
0000000433333000
000001B600002200
00001CF734340300
00006FFFDB612300
00005FFF41231300
000016EF60135100
00000699CEF94400
000074008FC00120
0008F4204B602120
006FF61300023200
008FFB0133320000
007FFFB410130000
003FFFCAAAAAA400
0007ED0000000600
0004E70233320420
000EF10300030050
005FA0212F303050
00BF40307F804014
02FD0120CFC01305
08F9030066600304
0DF6030000000303
3FF6043333333503
5FF6030000000303
6FF60304FFF40303
6FF60204FFF40203
6FF60003AFF40003
6FFB66657FFA6666
6FFFFF907FFFFFA1
4EFFF7004EFFF700
ENDCHAR
STARTCHAR abrevehookabove
ENCODING 7859
SWIDTH 830 0
DWIDTH 17 0
BBX 16 29 0 -2
BITMAP
0000000433333000
000001B600002200
00001CF734340300
00006FFFDB612300
00005FFF41231300
000016EF60135100
00000699CEF94400
000074008FC00120
0008F4204B602120
006FF61300023200
008FFB0133320000
007FFFB410130000
003FFFCAAAAAA400
0007ED0000000600
0004E70233320420
000EF10300030050
005FA0212F303050
00BF40307F804014
02FD0120CFC01305
08F9030066600304
0DF6030000000303
3FF6043333333503
5FF6030000000303
6FF60304FFF40303
6FF60204FFF40203
6FF60003AFF40003
6FFB66657FFA6666
6FFFFF907FFFFFA1
4EFFF7004EFFF700
ENDCHAR
STARTCHAR Abrevetilde
ENCODING 7860
SWIDTH 830 0
DWIDTH 17 0
BBX 16 27 0 -2
BITMAP
0000013333333300
0000460000000300
0006F60222320300
004FF95775324500
006FFC99DFF98400
006FF4008FC00120
002EF4204B602120
005FF61300023200
008FFB0133320000
007FFFB410130000
003FFFCAAAAAA400
0007ED0000000600
0004E70233320420
000EF10300030050
005FA0212F303050
00BF40307F804014
02FD0120CFC01305
08F9030066600304
0DF6030000000303
3FF6043333333503
5FF6030000000303
6FF60304FFF40303
6FF60204FFF40203
6FF60003AFF40003
6FFB66657FFA6666
6FFFFF907FFFFFA1
4EFFF7004EFFF700
ENDCHAR
STARTCHAR abrevetilde
ENCODING 7861
SWIDTH 830 0
DWIDTH 17 0
BBX 16 27 0 -2
BITMAP
0000013333333300
0000460000000300
0006F60222320300
004FF95775324500
006FFC99DFF98400
006FF4008FC00120
002EF4204B602120
005FF61300023200
008FFB0133320000
007FFFB410130000
003FFFCAAAAAA400
0007ED0000000600
0004E70233320420
000EF10300030050
005FA0212F303050
00BF40307F804014
02FD0120CFC01305
08F9030066600304
0DF6030000000303
3FF6043333333503
5FF6030000000303
6FF60304FFF40303
6FF60204FFF40203
6FF60003AFF40003
6FFB66657FFA6666
6FFFFF907FFFFFA1
4EFFF7004EFFF700
ENDCHAR
STARTCHAR Abrevedotbelow
ENCODING 7862
SWIDTH 830 0
DWIDTH 17 0
BBX 16 28 0 -7
BITMAP
0000033330333400
0000940045B00120
0009F4204B602120
006FF61300023200
008FFB0133320000
007FFFB410130000
003FFFCAAAAAA400
0007ED0000000600
0004E70233320420
000EF10300030050
005FA0212F303050
00BF40307F804014
02FD0120CFC01305
08F9030066600304
0DF6030000000303
3FF6043333333503
5FF6030000000303
6FF60304FFF40303
6FF60204FFF40203
6FF60003AFF40003
6FFB66657FFA6666
6FFFFF94699BFFA1
4EFFF7A50002F700
00001CF403011000
00007FF401011000
00007FFB66650000
00007FFFFFA10000
00005FFFF8000000
ENDCHAR
STARTCHAR abrevedotbelow
ENCODING 7863
SWIDTH 830 0
DWIDTH 17 0
BBX 16 28 0 -7
BITMAP
0000033330333400
0000940045B00120
0009F4204B602120
006FF61300023200
008FFB0133320000
007FFFB410130000
003FFFCAAAAAA400
0007ED0000000600
0004E70233320420
000EF10300030050
005FA0212F303050
00BF40307F804014
02FD0120CFC01305
08F9030066600304
0DF6030000000303
3FF6043333333503
5FF6030000000303
6FF60304FFF40303
6FF60204FFF40203
6FF60003AFF40003
6FFB66657FFA6666
6FFFFF94699BFFA1
4EFFF7A50002F700
00001CF403011000
00007FF401011000
00007FFB66650000
00007FFFFFA10000
00005FFFF8000000
ENDCHAR
STARTCHAR Edotbelow
ENCODING 7864
SWIDTH 754 0
DWIDTH 15 0
BBX 15 22 0 -7
BITMAP
0006333333333330
01BA000000000030
0CFA013333332030
1FFA021000000030
1FFA0210DFFFFA10
1FFA021078889000
1FFA021000003000
1FFA024333303000
1FFA021000003000
1FFA0210CEEC2000
1FFA021089943320
1FFA021000000030
1FFA013333332030
1FFA000000000030
1FFB000000000000
1FFFEEEDCCCED400
1DFFFFD000094000
00008FC003030000
0000FFC001030000
0000FFE766630000
0000FFFFFE500000
0000DFFFD3000000
ENDCHAR
STARTCHAR edotbelow
ENCODING 7865
SWIDTH 754 0
DWIDTH 15 0
BBX 15 22 0 -7
BITMAP
0006333333333330
01BA000000000030
0CFA013333332030
1FFA021000000030
1FFA0210DFFFFA10
1FFA021078889000
1FFA021000003000
1FFA024333303000
1FFA021000003000
1FFA0210CEEC2000
1FFA021089943320
1FFA021000000030
1FFA013333332030
1FFA000000000030
1FFB000000000000
1FFFEEEDCCCED400
1DFFFFD000094000
00008FC003030000
0000FFC001030000
0000FFE766630000
0000FFFFFE500000
0000DFFFD3000000
ENDCHAR
STARTCHAR Ehookabove
ENCODING 7866
SWIDTH 754 0
DWIDTH 15 0
BBX 15 24 0 -2
BITMAP
0000014333320000
00001B3000051000
0001CF3233303000
0008FF9773303000
0009FFF741403000
0006DFF223101000
00008FF657810000
0006333333333330
01BA000000000030
0CFA013333332030
1FFA021000000030
1FFA0210DFFFFA10
1FFA021078889000
1FFA021000003000
1FFA024333303000
1FFA021000003000
1FFA0210CEEC2000
1FFA021089943320
1FFA021000000030
1FFA013333332030
1FFA000000000030
1FFD666666666620
1FFFFFFFFFFFE400
1DFFFFFFFFFD3000
ENDCHAR
STARTCHAR ehookabove
ENCODING 7867
SWIDTH 754 0
DWIDTH 15 0
BBX 15 24 0 -2
BITMAP
0000014333320000
00001B3000051000
0001CF3233303000
0008FF9773303000
0009FFF741403000
0006DFF223101000
00008FF657810000
0006333333333330
01BA000000000030
0CFA013333332030
1FFA021000000030
1FFA0210DFFFFA10
1FFA021078889000
1FFA021000003000
1FFA024333303000
1FFA021000003000
1FFA0210CEEC2000
1FFA021089943320
1FFA021000000030
1FFA013333332030
1FFA000000000030
1FFD666666666620
1FFFFFFFFFFFE400
1DFFFFFFFFFD3000
ENDCHAR
ENDFONT
